<!-- Generator: Adobe Illustrator 18.1.0, SVG Export Plug-In  -->
<svg version="1.1"
	 xmlns="http://www.w3.org/2000/svg" xmlns:xlink="http://www.w3.org/1999/xlink" xmlns:a="http://ns.adobe.com/AdobeSVGViewerExtensions/3.0/"
	 x="0px" y="0px" width="275.282px" height="230.726px" viewBox="0 0 275.282 230.726"
	 style="enable-background:new 0 0 275.282 230.726;" xml:space="preserve">
<defs>
</defs>
<path style="fill:#FFFFFF;" d="M177.174,117.352c-0.661-1.169-0.726-1.421-2.132-2.741l-15.132-14.21
	c-0.359-0.337-0.698-0.694-1.023-1.064c-5.24-5.98-17.623-18.303-23.169-13.539l-58.914,48.736
	c-0.837,0.692-6.734-0.076-20.222,5.654l-25.021,10.926c-0.291,0.15-0.563,0.32-0.828,0.501l-17.888,7.679
	c-6.444,2.766-9.453,10.302-6.687,16.745l1.716,3.997c0.488,1.136,1.13,2.158,1.882,3.068l-4.074,2.346
	c-5.412,3.117-7.291,10.096-4.174,15.508l1.796,3.119c1.006,1.747,2.418,3.119,4.046,4.081c-3.208,3.498-3.672,8.906-0.824,12.926
	l3.447,4.865c2.949,4.162,4.582,6.038,9.029,3.87c1.262-0.615,4.676-5.033,6-5.5l13-4.5l12-5.5l0.5,4.5
	c6.565-13.13,17.238-15.592,24.115-15.965c11.519,0.135,20.916,9.358,21.048,20.812c0.03,2.558,5.944,7.091,8.502,7.062
	c2.559-0.03,6.779,0,10.021-3.104l1.135-3.756c0.229-0.558,2.042-6.761,2.034-7.402c-0.065-5.621-1.353-10.938-3.59-15.698
	c0.04-0.053,0.073-0.109,0.115-0.161l59.716-65.343c0.388-0.488,0.827-0.93,1.272-1.367
	C179.313,129.516,180.183,122.671,177.174,117.352z"/>
<linearGradient id="SVGID_1_" gradientUnits="userSpaceOnUse" x1="102.0392" y1="131.7771" x2="274.5363" y2="131.7771" gradientTransform="matrix(0.7368 -0.6761 0.8086 0.8812 -64.9194 103.1198)">
	<stop  offset="0.0026" style="stop-color:#853722"/>
	<stop  offset="0.5051" style="stop-color:#612A13"/>
	<stop  offset="0.9972" style="stop-color:#3F1915"/>
</linearGradient>
<polygon style="fill:url(#SVGID_1_);" points="275.282,67.815 147.677,183.888 85.452,116.073 213.056,0 "/>
</svg>
