<!-- Generator: Adobe Illustrator 18.1.0, SVG Export Plug-In  -->
<svg version="1.1"
	 xmlns="http://www.w3.org/2000/svg" xmlns:xlink="http://www.w3.org/1999/xlink" xmlns:a="http://ns.adobe.com/AdobeSVGViewerExtensions/3.0/"
	 x="0px" y="0px" width="130.349px" height="79.236px" viewBox="0 0 130.349 79.236"
	 style="enable-background:new 0 0 130.349 79.236;" xml:space="preserve">
<defs>
</defs>
<g>
	<path style="fill:none;stroke:#FFFFFF;stroke-width:8;stroke-linejoin:round;stroke-miterlimit:10;" d="M102.057,4.382L102.464,4
		h-0.452H4.452H4l0.407,0.382c-0.461,4.166-3.878,42.152,21.318,66.17v0.642h-1.01c-1.116,0-2.021,0.905-2.021,2.021
		s0.905,2.021,2.021,2.021h56.079c1.116,0,2.021-0.905,2.021-2.021s-0.905-2.021-2.021-2.021h-0.74
		C105.996,47.218,102.522,8.586,102.057,4.382z"/>
	<path style="fill:none;stroke:#FFFFFF;stroke-width:8;stroke-linecap:round;stroke-miterlimit:10;" d="M103.397,14.299
		c0,0,6.805-5.078,16.128-0.822c10.78,4.922,5.969,15.783,4.333,19.32c-1.636,3.537-9.972,16.167-28.666,18.946"/>
</g>
</svg>
