<?xml version="1.0" encoding="utf-8"?>
<!-- Generator: Adobe Illustrator 18.1.0, SVG Export Plug-In . SVG Version: 6.00 Build 0)  -->
<!DOCTYPE svg PUBLIC "-//W3C//DTD SVG 1.1//EN" "http://www.w3.org/Graphics/SVG/1.1/DTD/svg11.dtd">
<svg version="1.1" id="Layer_1" xmlns="http://www.w3.org/2000/svg" xmlns:xlink="http://www.w3.org/1999/xlink" x="0px" y="0px"
	 width="88px" height="113px" viewBox="-442 720.9 88 113" enable-background="new -442 720.9 88 113" xml:space="preserve">
<g>
	<path fill="none" stroke="#FFFFFF" stroke-width="3" stroke-miterlimit="10" d="M-440.5,819v-83.2c0-3.4,1.3-6.9,4-9.5
		c2.6-2.6,6.1-3.9,9.5-3.9h58c3.5,0,6.9,1.3,9.5,3.9c2.6,2.6,4,6.1,4,9.5v67.1H-427c-7.5,0-13.5,6-13.5,13.4V819
		c0,7.4,6,13.4,13.5,13.4h71.5"/>
	<line fill="none" stroke="#FFFFFF" stroke-width="3" stroke-miterlimit="10" x1="-355.5" y1="821.2" x2="-429.3" y2="821.2"/>
	<line fill="none" stroke="#FFFFFF" stroke-width="3" stroke-miterlimit="10" x1="-355.5" y1="813.8" x2="-429.3" y2="813.8"/>
	<line fill="none" stroke="#FFFFFF" stroke-width="3" stroke-miterlimit="10" x1="-427" y1="802.9" x2="-427" y2="722.4"/>
	<rect x="-413.2" y="741.8" fill="none" stroke="#FFFFFF" stroke-width="3" stroke-miterlimit="10" width="40.5" height="14.8"/>
</g>
</svg>
