<!-- Generator: Adobe Illustrator 18.1.0, SVG Export Plug-In  -->
<svg version="1.1"
	 xmlns="http://www.w3.org/2000/svg" xmlns:xlink="http://www.w3.org/1999/xlink" xmlns:a="http://ns.adobe.com/AdobeSVGViewerExtensions/3.0/"
	 x="0px" y="0px" width="132.896px" height="28.747px" viewBox="0 0 132.896 28.747"
	 style="enable-background:new 0 0 132.896 28.747;" xml:space="preserve">
<defs>
</defs>
<g>
	<path style="fill:#FFFFFF;" d="M0.004,16.678c0.262,7.212,13.178,12.597,28.849,12.028c15.671-0.569,23.141-6.694,22.879-13.906
		S43.577,2.022,27.905,2.59S-0.258,9.467,0.004,16.678z"/>
	<path style="fill:#FFFFFF;" d="M130.339,11.996l-87.77,6.515c-1.758,0.193-4.633-0.964-4.794-2.43v0
		c-0.161-1.465,4.793-5.85,6.551-6.043l84.697-10.032c1.758-0.193,3.693,4.179,3.854,5.644v0
		C133.039,7.116,132.097,11.803,130.339,11.996z"/>
	<path style="fill:none;stroke:#D1D3D4;stroke-width:5;stroke-linecap:round;stroke-miterlimit:10;" d="M43.09,18.214
		c0,0-8.023,7.638-24.694,2.802"/>
</g>
</svg>
