<?xml version="1.0" encoding="utf-8"?>
<!-- Generator: Adobe Illustrator 18.0.0, SVG Export Plug-In . SVG Version: 6.00 Build 0)  -->
<!DOCTYPE svg PUBLIC "-//W3C//DTD SVG 1.1//EN" "http://www.w3.org/Graphics/SVG/1.1/DTD/svg11.dtd">
<svg version="1.1" id="Layer_1" xmlns="http://www.w3.org/2000/svg" xmlns:xlink="http://www.w3.org/1999/xlink" x="0px" y="0px"
	 width="50px" height="50px" viewBox="0 0 50 50" enable-background="new 0 0 50 50" xml:space="preserve">
<g>
	<path fill="#FFFFFF" d="M28.4,16.5c-1.8,0-2.7,1.1-2.7,2.8c0,1.7,0.9,2.8,2.7,2.8c1.8,0,2.7-1.1,2.7-2.8
		C31.1,17.6,30.2,16.5,28.4,16.5z"/>
	<path fill="#FFFFFF" d="M48.6,10.3c-0.9-1.9-2.9-0.6-4.3,0.7c-3.1-6.2-9.5-10-19-10c-9.1,0-15.4,3.4-18.6,9.1
		C5.3,8.8,3.1,7.1,2.1,9.2c-1,2.2,1.6,3.3,3.4,3.7c-0.8,2.3-1.3,4.9-1.3,7.8c0,9.8,5,16.7,14.5,18.8c-0.2,0.7-0.3,1.6-0.3,2.4
		c0,1.6,0,3.2,0,3.4c0,0.2-2.9,2.6-2.5,3.1c0.1,0.1,0.2,0.1,0.4,0.1h4.1c0.3,0,0.4,0,0.5-0.1c0.1-0.2-0.5-4.2-0.6-6.5
		c0-0.8,0-1.5,0-2.1c1.6,0.3,3.2,0.4,5,0.4c1.3,0,2.5-0.1,3.6-0.2c-0.1,0.6-0.2,1.3-0.2,1.9c0,1.6,0,3.2,0,3.4
		c0,0.2-2.9,2.6-2.5,3.1c0.1,0.1,0.2,0.1,0.4,0.1h4.1c0.3,0,0.4,0,0.5-0.1c0.1-0.2-0.5-4.2-0.6-6.5c0-0.9,0-1.6,0-2.1
		c10.3-1.8,15.8-8.9,15.8-19.1c0-2.4-0.3-4.6-0.9-6.6C47.2,13.5,49.6,12.4,48.6,10.3z M10,22.7c-1.3,0-2-0.8-2-2.1
		c0-1.2,0.7-2.1,2-2.1c1.3,0,2,0.8,2,2.1C12,21.9,11.3,22.7,10,22.7z M22.3,34.7c-0.1,0.1-1.3,2.8-5.6,2.1c-4.3-0.7-4.7-3.6-4.7-3.7
		c-0.1-0.5,0.1-1,0.6-1.1c0.5-0.1,9.1,1.2,9.5,1.4C22.4,33.7,22.5,34.3,22.3,34.7z M28.4,31.8c-8.5,0-13.1-5-13.1-12.7
		c0-7.7,4.6-12.7,13.1-12.7c8.5,0,13.1,5,13.1,12.7C41.5,26.8,36.9,31.8,28.4,31.8z"/>
</g>
</svg>
