<?xml version="1.0" encoding="utf-8"?>
<!-- Generator: Adobe Illustrator 16.2.0, SVG Export Plug-In . SVG Version: 6.00 Build 0)  -->
<!DOCTYPE svg PUBLIC "-//W3C//DTD SVG 1.1//EN" "http://www.w3.org/Graphics/SVG/1.1/DTD/svg11.dtd">
<svg version="1.1" id="Layer_1" xmlns="http://www.w3.org/2000/svg" xmlns:xlink="http://www.w3.org/1999/xlink" x="0px" y="0px"
	 width="90px" height="90px" viewBox="0 0 90 90" enable-background="new 0 0 90 90" xml:space="preserve">
<g>
	<path fill="#E5332A" d="M10.803,39.361c-1.663,1.722,0.784,13.479,1.252,17.158c0.469,3.68-0.193,10.09,6.564,13.061
		c6.76,2.971,33.539,5.933,35.376,3.982c1.835-1.95,3.401-6.014,0.822-9.142c-2.582-3.127-15.403-10.164-18.373-10.319
		c-2.969-0.156-13.889,0.614-16.325-0.865C17.684,51.757,10.803,39.361,10.803,39.361z"/>
	<path fill="#BD1622" d="M61.485,35.546c-1.592-1.263-4.907-1.158-4.907-1.158l8.124,27.221c-6.78-0.953-30.135,0.729-35.491,1.136
		c1.287-6.366,5.548-26.471,8.286-28.048c0,0-4.348-0.793-6.877,3.536c-2.524,4.331-6.336,23.672-6.2,25.212
		c0.135,1.541-1.448,8.915,2.227,9.873c1.457,0.379,3.278,0.303,4.916-0.146c2.551,7.531,5.657,16.477,6.14,16.828h7.06
		l1.407-14.742l3.411-0.283L50.516,90h7.341c0,0,3.566-10.422,6.132-18.514c2.341,1.287,7.494,0.496,8.768-2.402
		C74.292,65.59,63.074,36.804,61.485,35.546z"/>
	<path fill="#EB5F47" d="M36.433,34.092c0,0-9.859,21.769-8.808,28.625c1.047,6.854,14.26,8.054,16.567,8.226
		C46.5,71.115,62.44,70.6,64.748,66.83c1.886-3.082,2.938-6.17-6.295-31.536C58.453,35.293,52.163,25.009,36.433,34.092z"/>
	<rect x="21.274" y="6.101" fill="#E5332A" width="51" height="32"/>
	<rect x="43.734" y="30.902" fill="#EB5F47" width="6.098" height="0.846"/>
	<path fill="#F0866C" d="M31.416,6.181c0,0-2.269-6.021-3.52-6.177c-1.25-0.156-4.22,4.773-4.22,6.49
		C23.676,8.21,31.18,9.153,31.416,6.181z"/>
	<path fill="#F0866C" d="M21.241,21.439c0,0-5.33,3.602-5.192,4.853c0.14,1.253,5.621,3,7.292,2.6
		C25.01,28.495,24.187,20.979,21.241,21.439z"/>
	<path fill="#F0866C" d="M22.269,6.945c0,0-6.061,2.15-6.242,3.395c-0.18,1.249,4.69,4.314,6.407,4.348
		C24.149,14.722,25.238,7.238,22.269,6.945z"/>
	<path fill="#EB5F47" d="M32.622,11.656c0,0-4.057-4.994-5.291-4.746c-1.233,0.249-2.494,5.862-1.949,7.491
		C25.923,16.032,33.339,14.551,32.622,11.656z"/>
	<path fill="#F0866C" d="M69.661,36.261c0,0,6.271-1.442,6.591-2.66c0.323-1.219-4.165-4.82-5.867-5.049
		C68.681,28.322,66.748,35.631,69.661,36.261z"/>
	<path fill="#F0866C" d="M70.245,7.269c0,0-1.629-6.224-2.858-6.508c-1.225-0.284-4.692,4.308-4.87,6.018
		C62.336,8.483,69.704,10.201,70.245,7.269z"/>
	<path fill="#EB5F47" d="M70.92,28.546c0,0,5.926-2.504,6.031-3.76c0.106-1.254-4.936-4.028-6.65-3.959
		C68.584,20.894,67.939,28.427,70.92,28.546z"/>
	<path fill="#EB5F47" d="M21.811,35.018c0,0-1.35,6.292-0.381,7.099c0.968,0.807,6.132-1.732,7.059-3.176
		C29.419,37.495,23.616,32.646,21.811,35.018z"/>
	<path fill="#EB5F47" d="M10.201,44.412c0,0-5.336,3.596-5.198,4.85c0.138,1.252,5.619,3.006,7.29,2.607
		C13.962,51.472,13.147,43.954,10.201,44.412z"/>
	<path fill="#EB5F47" d="M11.502,57.037c0,0-4.812,4.271-4.51,5.494c0.301,1.223,5.967,2.236,7.568,1.621
		C16.167,63.539,14.362,56.194,11.502,57.037z"/>
	<path fill="#EB5F47" d="M16.646,67.835c0,0-0.367,6.424,0.714,7.074c1.079,0.648,5.793-2.654,6.486-4.224
		C24.543,69.117,18.066,65.214,16.646,67.835z"/>
	<path fill="#EB5F47" d="M62.486,6.369c0,0-2.903-5.741-4.165-5.759c-1.258-0.02-3.68,5.2-3.494,6.907
		C55.012,9.225,62.574,9.351,62.486,6.369z"/>
	<circle fill="#ECECEC" cx="32.743" cy="26.22" r="3.702"/>
	<circle fill="#ECECEC" cx="61.928" cy="26.222" r="4.092"/>
	<path fill="#BD1622" d="M36.445,20.384v4.623c0,0-6.644-0.771-7.855,0.95l-1.682-2.889C26.908,23.067,30.191,17.938,36.445,20.384z
		"/>
	<path fill="#BD1622" d="M56.578,15.131v6.288c0,0,8.59-2.032,11.583,1.488v-5.704C68.161,17.203,65.611,14.308,56.578,15.131z"/>
	<ellipse fill="#BD1622" cx="52.745" cy="35.215" rx="2.073" ry="1.688"/>
	<path fill="#E84E1B" d="M52.744,35.215c0,0,6.759-3.089,9.769-2.811c0,0-0.429,0.564-0.585,1.124c0,0,6.467-1.105,10.973,1.838
		l-2.216,1.537c0,0,5.942-1.615,10.634,5.369c0,0-7.35,10.108-17.356,3.7l1.251,2.705c0,0-5.855-0.412-8.635-6.405v2.292
		C56.578,44.564,53.097,44.316,52.744,35.215z"/>
	<path fill="#F29100" d="M53.996,36.605c0,0,4.747-2.17,6.864-1.975c0,0-0.303,0.396-0.412,0.789c0,0,4.542-0.775,7.707,1.291
		l-1.557,1.081c0,0,4.175-1.133,7.47,3.772c0,0-5.163,7.101-12.191,2.598l0.877,1.901c0,0-4.113-0.288-6.064-4.499v1.609
		C56.689,43.172,54.244,42.998,53.996,36.605z"/>
	<g>
		<path fill="#EB5F47" d="M23.676,14.189c0,0-13.811-1.593-13.811,5.104s0,9.52,0,9.52l5.472-6.886v2.5
			C15.337,24.426,26.17,22.556,23.676,14.189z"/>
		<path fill="#EB5F47" d="M66.876,9.974c0,0,14.782-1.594,14.782,5.104c0,6.697,0,9.521,0,9.521l-5.856-6.887v2.498
			C75.802,20.209,64.207,18.339,66.876,9.974z"/>
	</g>
</g>
</svg>
