<?xml version="1.0" encoding="utf-8"?>
<!-- Generator: Adobe Illustrator 17.0.0, SVG Export Plug-In . SVG Version: 6.00 Build 0)  -->
<!DOCTYPE svg PUBLIC "-//W3C//DTD SVG 1.1//EN" "http://www.w3.org/Graphics/SVG/1.1/DTD/svg11.dtd">
<svg version="1.1" id="Layer_1" xmlns="http://www.w3.org/2000/svg" xmlns:xlink="http://www.w3.org/1999/xlink" x="0px" y="0px"
	 width="468px" height="424.2px" viewBox="0 0 468 424.2" enable-background="new 0 0 468 424.2" xml:space="preserve">
<path fill="#FFFFFF" d="M0,424.2C0,282.8,0,141.4,0,0c156,0,312,0,468,0c0,141.4,0,282.8,0,424.2C312,424.2,156,424.2,0,424.2z
	 M119.9,325.7C119.9,325.7,119.8,325.6,119.9,325.7c-1.9,14.2-3.5,28.5-5.9,42.6c-1.4,8.2-4.3,16.1-6.2,24.2
	c-0.8,3.5-0.9,7.2-1,10.8c0,0.8,1.1,2,2.1,2.5c1.6,0.8,3.3,1.4,5,1.5c18.9,1.7,37.7,3.4,56.6,4.9c8.3,0.7,16.6,1.7,24.9,1.5
	c26-0.6,52-1.5,78-2.8c22.4-1.1,44.9-2.8,67.3-4.5c8.4-0.6,16.8-2.2,25.2-3.2c2.5-0.3,3.4-1.5,3.1-4c-0.9-6.8-1.5-13.5-2.4-20.3
	c-1.4-10.3-5.6-19.6-9.6-29.1c-0.4-0.8-0.7-1.7-0.9-2.6c-0.6-2.9-0.6-6-1.6-8.7c-2.8-7.9-5.5-15.2-4.6-24.3
	c2-20.1,1.9-40.3,0.3-60.6c-1.1-14.5-4.2-28.9-2.8-43.8c1.1-12-0.8-24.2-1.1-36.3c-0.1-2.7,0.2-5.4,0.9-8c0.4-1.3,1.8-3,3.1-3.4
	c6.5-2.1,12-0.5,16.8,4.6c4.3,4.6,8.7,9.4,14,12.6c7.9,4.9,16.6,8.5,25.7,13c-0.8-2.4-1.1-3.6-1.5-4.7c0.2-0.2,0.4-0.4,0.7-0.7
	c2.1,4.3,5.1,5.2,9,3c10.5-5.7,21.1-11.4,31.6-17.1c2.2-1.2,3.8-2.9,1.9-5.5c4.9-3,9.5-5.8,14.3-8.7c-1-1.4-1.5-2.2-2.1-2.9
	c-7.5-9.4-15.4-18.7-22.6-28.4c-8.2-11.1-16.7-21.9-26.8-31.4c-10.6-10-21.1-20.2-31.7-30.1c-2.3-2.1-4.9-4.2-7.7-5.4
	c-9.3-3.7-18.9-6.9-28.3-10.3c-7.7-2.8-15.5-5.4-23.3-8.2c-2.9-1-5.6-2.9-8.5-3.3c-9.9-1.4-16.9-8.8-26-11.8c-1.6-0.5-2.8-2.5-4-3.9
	c-1.1-1.2-2-2.6-3-4c-1.3-1.8-3.1-2.3-5.3-1.8c-18.6,4.6-37.6,4.5-56.5,3.7c-6.5-0.3-13.1-1.8-19.2-4c-4.4-1.5-6.7-0.8-9.6,2.4
	c-2.3,2.5-5.6,4.5-8.8,5.6c-5.6,2-11.5,3.1-17.2,4.6c-11.8,3.1-23.5,6.6-35.5,9c-9.9,2-19.4,5-28.4,9.1c-6.2,2.9-13,4.9-17.2,12.2
	c-4.3,7.4-11.8,13-17.7,19.6c-7.9,8.8-16.1,17.3-23.4,26.5c-9.6,11.9-18.5,24.4-27.5,36.7c-2.2,3.1-3.8,6.6-5.7,9.9
	c5.9,3.4,11.4,6.4,16.7,9.6c1.1,0.7,2,1.9,2.9,2.9c1.3,1.7,2.2,4,3.8,5.2c9,6.2,18.4,11.6,29.2,14.4c3.8,1,6.1,0.2,8.3-2.4
	c2-2.4,4.1-4.8,5.4-6.4c2.7-0.4,4.5-0.3,6.1-0.9c3.4-1.3,6.6-2.9,9.8-4.5c1.1-0.5,2.1-1.5,2.7-2.5c3.7-6.2,10.4-8.1,16-11.6
	c0.9-0.6,3.8,0.3,4.3,1.2c1.7,3.5,3.3,7.2,3.8,10.9c1.4,11.3,2.3,22.6,3.5,34.5c0-7.7,0-15,0-21.8c0.2,1.9,0.6,4.2,0.7,6.5
	c0.2,9.8,0.7,19.7,0.4,29.5c-0.3,10.7-1.2,21.4-2,32c-0.6,8.6-2.1,17.2-2.3,25.8c-0.3,16.6,0,33.2,0.1,49.8c0,4.7,0,9.4,0,14.1
	c1.2-2.5,1.6-5,2.1-7.5C118.7,329.4,119.3,327.5,119.9,325.7z"/>
<path id="Shirt" onclick="notify(this, &quot;select&quot;);" opacity="0.7" fill="#168DFF" enable-background="new    " d="
	M119.9,325.7c-0.5,1.8-1.1,3.7-1.6,5.6c-0.6,2.5-1,5-2.1,7.5c0-4.7,0-9.4,0-14.1c-0.1-16.6-0.4-33.2-0.1-49.8
	c0.2-8.6,1.6-17.2,2.3-25.8c0.8-10.7,1.7-21.4,2-32c0.3-9.8-0.2-19.7-0.4-29.5c-0.1-2.3-0.5-4.6-0.7-6.5c0,6.9,0,14.1,0,21.8
	c-1.2-11.8-2-23.2-3.5-34.5c-0.5-3.8-2.1-7.5-3.8-10.9c-0.4-0.9-3.4-1.7-4.3-1.2c-5.6,3.5-12.4,5.4-16,11.6c-0.6,1-1.7,2-2.7,2.5
	c-3.2,1.6-6.5,3.2-9.8,4.5c-1.5,0.6-3.4,0.5-6.1,0.9c-1.3,1.6-3.3,4-5.4,6.4c-2.2,2.6-4.5,3.4-8.3,2.4c-10.8-2.8-20.2-8.2-29.2-14.4
	c-1.7-1.1-2.5-3.5-3.8-5.2c-0.8-1.1-1.7-2.3-2.9-2.9c-5.3-3.2-10.8-6.2-16.7-9.6c1.9-3.3,3.5-6.8,5.7-9.9c9-12.3,18-24.8,27.5-36.7
	c7.3-9.2,15.5-17.7,23.4-26.4c5.9-6.5,13.4-12.1,17.7-19.6c4.2-7.3,11-9.3,17.2-12.2c9-4.2,18.5-7.1,28.4-9.1
	c11.9-2.4,23.7-6,35.5-9c5.8-1.5,11.6-2.6,17.2-4.6c3.2-1.1,6.5-3.1,8.8-5.6c3-3.2,5.3-4,9.6-2.4c6.1,2.2,12.8,3.7,19.2,4
	c18.9,0.8,37.9,0.8,56.5-3.7c2.2-0.5,3.9-0.1,5.3,1.8c1,1.3,1.9,2.7,3,4c1.2,1.4,2.4,3.3,4,3.9c9.1,3.1,16.1,10.4,26,11.8
	c2.9,0.4,5.6,2.3,8.5,3.3c7.7,2.8,15.5,5.5,23.3,8.2c9.5,3.4,19,6.6,28.3,10.3c2.8,1.1,5.4,3.2,7.7,5.4c10.6,10,21.1,20.1,31.7,30.1
	c10.1,9.5,18.6,20.2,26.8,31.4c7.2,9.7,15,18.9,22.6,28.4c0.6,0.7,1.1,1.5,2.1,2.9c-4.8,2.9-9.4,5.8-14.3,8.7
	c1.9,2.6,0.3,4.3-1.9,5.5c-10.5,5.7-21.1,11.4-31.6,17.1c-3.9,2.1-6.9,1.3-9-3c-0.2,0.2-0.4,0.4-0.7,0.7c0.4,1.2,0.7,2.4,1.5,4.7
	c-9.1-4.5-17.8-8.1-25.7-13c-5.3-3.2-9.7-8-14-12.6c-4.8-5.1-10.3-6.7-16.8-4.6c-1.3,0.4-2.7,2.1-3.1,3.4c-0.7,2.6-1,5.3-0.9,8
	c0.4,12.1,2.2,24.3,1.1,36.3c-1.3,14.9,1.7,29.2,2.8,43.8c1.6,20.3,1.7,40.5-0.3,60.6c-0.9,9.1,1.7,16.4,4.6,24.3
	c1,2.7,1,5.8,1.6,8.7c0.2,0.9,0.5,1.8,0.9,2.6c4,9.4,8.2,18.8,9.6,29.1c0.9,6.7,1.5,13.5,2.4,20.3c0.3,2.5-0.6,3.7-3.1,4
	c-8.4,1.1-16.8,2.6-25.2,3.2c-22.4,1.7-44.8,3.4-67.3,4.5c-26,1.3-52,2.2-78,2.8c-8.3,0.2-16.6-0.8-24.9-1.5
	c-18.9-1.5-37.7-3.2-56.6-4.9c-1.7-0.2-3.5-0.8-5-1.5c-0.9-0.4-2.1-1.6-2.1-2.5c0.1-3.6,0.2-7.3,1-10.8c1.9-8.1,4.8-16,6.2-24.2
	C116.4,354.2,117.9,339.9,119.9,325.7c2.8-19,4.1-38.1,4.7-57.1c-0.8,3.3-1.4,6.7-1.6,10.1c-1,13-2,26-2.9,39
	C119.9,320.3,119.9,323,119.9,325.7z"/>
<path fill="#FFFFFF" d="M119.9,325.7c0.1-2.7,0-5.4,0.2-8c0.9-13,1.9-26,2.9-39c0.3-3.4,0.8-6.7,1.6-10.1
	C123.9,287.6,122.6,306.7,119.9,325.7C119.8,325.6,119.9,325.7,119.9,325.7z"/>
<script  type="text/JavaScript">
	<![CDATA[
function notify( ref, type ) {
    var event = document.createEvent("CustomEvent");
    event.initEvent(type,true,true);
    ref.dispatchEvent(event);
}

		
		
		
		
		
		
		]]>
</script>
<path id="Skin" onclick="notify(this, &quot;select&quot;);" fill="#FFB26B" d="M305.2,197.7c0.7-15.6,0.7-34-2.5-42.8
	c-6-16.9-21.5-44-67.6-43.2s-67.2,29-70.6,43.2c-1.7,7.2-1.5,24.9-0.9,40.6c-5.9-0.8-10.8,4.1-8.4,24.9c1.8,15.8,6.8,21.6,11.6,23.2
	c2,14.9,6.1,33.7,13.5,48.5c3.6,7.3,24.1,23.6,42,28.4c4.9,1.3,13.7,1.8,23.4,0c18-3.4,34.6-11.4,43.6-32
	c6.2-14.1,10.5-33.7,12.6-48.3c5.3-1.2,12.7-5.2,15.1-18.1C320.3,204.2,320.2,195.2,305.2,197.7z"/>
<ellipse cx="234.1" cy="268.1" rx="9.6" ry="4.2"/>
<path id="Hair" onclick="notify(this, &quot;select&quot;);" fill="#2D144B" d="M179.7,255.4c1.2,9.1,1.2,13.9,11.1,27.5
	c15.3,20.2,24.7,18.3,32.6,2.9s17.3-14.1,25.2,2.5c7.9,16.6,16.8,9.1,26.4,0s10.6-14.5,15.6-33.9c4.9-19.4,15.3-12.9,15.3-12.9
	c-1.7,32.8-5.5,33-8.2,41.3s-32.6,38.3-36.3,42c-3.7,3.7-12.6,12.5-26.3,13.4s-23.3-10.9-26-12.8s-32.9-34.1-37.1-43.5
	c-4.2-9.4-8.6-40.5-8.6-40.5C172.3,243.5,178.5,246.3,179.7,255.4z M233.9,254.7c6.7,12.6,12.6,2.5,22.6,7.3
	c10,4.7,5.3,13.7,13.7,16.5c8.4,2.8,5.3-0.8,2.8-2c-3.9-3.3-3.1-5.9-7.5-14.8c-4.5-8.9-15.9-13.2-22.1-13.4
	C240.4,248.1,232.2,250.5,233.9,254.7z M225.7,248.2c-6.2,0.2-17.6,4.5-22.1,13.4c-4.5,8.9-3.6,11.4-7.5,14.8
	c-2.5,1.1-5.6,4.7,2.8,2c8.4-2.8,3.6-11.7,13.7-16.5c10.1-4.8,15.9,5.3,22.6-7.3C236.9,250.5,228.6,248.1,225.7,248.2z M165,195.7
	l2.1,11.5l4.3-4.5c-4.7-48.6,33.3-41.9,46.7-42c22-0.2,48.2,28.9,44,21.9c-11.3-19.3-30.1-29.2-30.1-29.2
	c4.1,1.5,34.9,24.7,31.9,19.2c-11.4-20.3,16.4-9.4,16.4-9.4s7.5,5,7.8,10s0.9,16.9,2,19.4s3.6,34.3,3.6,34.3l12.5-16.5
	c0-0.8,0.6-11.8,1-12.8c2.1-5.2,3.2-25.5,3.4-29.5c0-11.5-6.8-24.8-7-24.8c-2.9,0.2-12.3,1.8-16,0s-2.5,7.1-2.5,7.1
	s-7.1,3.3-9.5,2.6c-2.5-0.7-8.3-6.3-8.3-6.3l-6.2-7.4l2.5,5.9l-23.2-8.5c0,0-11.6-7.3-11.6-5.1s3.7,9.6,5,12.6s-13.7-2.6-13.7-2.6
	s-8.3-5.5-7.9-4.8c0.4,0.7,2.1,8.5-3.3,6.7c-5.4-1.8-8.7-13.7-8.7-13.7s1.7,5.5-2.1,11.1c-3.7,5.5-6.6,9.2-6.6,9.2s-5-9.2-5-7
	s-6.3-11.2-16.6,0.3c-10.4,11.5-12,42.9-10.1,50.9"/>
<path id="Glasses" onclick="notify(this, &quot;select&quot;);" fill="#08ADBC" d="M220.6,196.4c3.7,4.6-1.4,19-5,24.8
	s-5.3,9.4-21.3,8.9c-16.1-0.5-16.3,0.9-22.3-18.4s-6.4-20.6,20.2-21.1C203.6,190.5,216.9,191.8,220.6,196.4z M276.2,190.7
	c-11.5-0.2-24.8,1.1-28.5,5.7c-3.7,4.6,1.4,19,5,24.8s5.3,9.4,21.3,8.9c16.1-0.5,16.3,0.9,22.3-18.4
	C302.4,192.5,302.8,191.2,276.2,190.7z"/>
<path id="Frame" onclick="notify(this, &quot;select&quot;);" fill="#C01650" d="M311,190.6c0,0-2.1-1-5.5-1.7s-0.2-2.5-29.8-3.9
	c-29.6-1.4-35.8,9.9-37.2,10.6s-7.6,1.4-9.2,0c-5.3-7.8-20.7-10.1-36.9-10.6c-10.1-0.3-27.3,3.2-32.1,3.9s-3.2,7.3-2.3,8.3
	c0.9,0.9,1.8-1.4,3.2-0.2c2.8,3.2,5.5,14.7,6.4,17.9s4.1,14.5,8.9,17.9c4.8,3.4,23.6,4.4,33.3,1.6c9.6-2.8,11.7-14.2,13.8-20.4
	s6.2-9.6,10.1-9.9c3.9-0.2,7.6,1.4,10.6,9.9s5.7,18.8,16.7,20.4c24.1,2.3,27.8,0.2,33-5c5.3-5.3,11-28.2,11.5-29.8s2.8-2.1,4.4-3.1
	C311.4,195.3,311,190.6,311,190.6z M215.5,221.2c-3.7,5.7-5.3,9.4-21.3,8.9c-16.1-0.5-16.3,0.9-22.3-18.4s-6.4-20.6,20.2-21.1
	c11.5-0.2,24.8,1.1,28.5,5.7C224.2,201,219.2,215.5,215.5,221.2z M296.4,211.8c-6,19.3-6.2,17.9-22.3,18.4
	c-16.1,0.5-17.7-3.2-21.3-8.9s-8.7-20.2-5-24.8s17-5.9,28.5-5.7C302.8,191.2,302.4,192.5,296.4,211.8z"/>
<ellipse transform="matrix(-0.9942 0.1072 -0.1072 -0.9942 472.0746 254.6184)" cx="229.194" cy="139.998" rx="88.394" ry="31.698"/>
<path id="Hat" onclick="notify(this, &quot;select&quot;);" fill="#D4145A" d="M317.1,130.5c-1-9.2-12.9-16.3-31.2-20.2
	c-5.5-10.3-24.2-41.6-28.2-46.7c-4-5.2-9.4-3.3-14.7-0.3s-14.8,11.5-22.2,12c-6.4,0.4-11.7-4.6-16.3-7.1s-11.8-7.3-19.1,6.1
	c-8.1,15.4-14.6,37-18,48.8c-17,7.6-27.1,17.1-26.1,26.3c1.9,17.4,42.8,27.2,91.3,22S319,147.9,317.1,130.5z"/>
<path fill="#D9E021" d="M166.7,142.5c1.6,0.4,14.3,11.3,62,6.4c47.6-4.9,61.5-20.5,63.2-21.5c1.8-1-0.7-6.1-0.7-6.1l-5.2-10.7
	c-0.5-0.9-1-1.9-1.7-3.1c-0.8,2.8-7.1,16.5-59.8,21.2s-56.3-8.7-56.3-8.7c-1.3,4.5-2.3,8.1-2.9,10
	C163.2,137.2,165,142.1,166.7,142.5z"/>
</svg>
