<?xml version="1.0" encoding="utf-8"?>
<!-- Generator: Adobe Illustrator 17.0.0, SVG Export Plug-In . SVG Version: 6.00 Build 0)  -->
<!DOCTYPE svg PUBLIC "-//W3C//DTD SVG 1.1//EN" "http://www.w3.org/Graphics/SVG/1.1/DTD/svg11.dtd">
<svg version="1.1" xmlns="http://www.w3.org/2000/svg" xmlns:xlink="http://www.w3.org/1999/xlink" x="0px" y="0px" width="80px"
	 height="80px" viewBox="0 0 80 80" enable-background="new 0 0 80 80" xml:space="preserve">
<g id="Grid" display="none">
	<path display="inline" opacity="0.5" fill="#CCCCCC" d="M42.1,20h-2H20v19.3v2V60h20.1h2H60V41.3v-2V20H42.1z M22,22h17v17H22V22z
		 M39,58H22V41h17V58z M58,58H41V41h17V58z M41,39V22h17v17H41z"/>
</g>
<g id="Layer_1">
	<polygon fill="none" stroke="#FFFFFF" stroke-width="2" stroke-linecap="round" stroke-miterlimit="10" points="40,23.6 44.5,34.9 
		56.6,35.6 47.2,43.4 50.2,55.1 40,48.6 29.8,55.1 32.8,43.4 23.4,35.6 35.5,34.9 	"/>
</g>
</svg>
