<?xml version="1.0" encoding="utf-8"?>
<!-- Generator: Adobe Illustrator 17.0.0, SVG Export Plug-In . SVG Version: 6.00 Build 0)  -->
<!DOCTYPE svg PUBLIC "-//W3C//DTD SVG 1.1//EN" "http://www.w3.org/Graphics/SVG/1.1/DTD/svg11.dtd">
<svg version="1.1" id="Plan_1" xmlns="http://www.w3.org/2000/svg" xmlns:xlink="http://www.w3.org/1999/xlink" x="0px" y="0px"
	 width="800px" height="600px" viewBox="0 0 800 600" enable-background="new 0 0 800 600" xml:space="preserve">
<rect fill="#3A7BBA" width="800" height="600"/>
<path fill="#969696" stroke="#FFFFFF" stroke-width="2" stroke-miterlimit="22.9256" d="M587.8,381.3l-35.3,7.1
	c-0.2,1.4-0.8,2-0.8,3.4c0,0.8,0.2,1.3,0.6,1.9c0.4,0.6,1.2,0.6,1.3,1.3c0.1,0.6-0.1,1-0.1,1.7c0,0.7,0.2,1.1,0.4,1.7
	c0.2,0.9,0.3,1.3,0.5,2.3v0c0.4-0.1,0.8-0.1,1.2-0.1c0.6,0,1,0.2,1.5-0.1c0.5-0.3,0.5-0.9,0.6-1.5c0.2-0.9,0.2-1.5,0.2-2.4
	c0.3,0,0.5,0.1,0.8,0.1c1.1,0,1.6-0.7,2.7-0.7c0.4,0,0.6,0.4,1,0.5c0.5,0.2,0.9,0.2,1.5,0.2c1,0,1.5-0.4,2.4-0.7
	c1.5-0.5,2.3-1,3.9-1c1.6,0,2.4,1,3.9,1.5c0.7,0.2,1.2,0,1.9,0.1c1.1,0.2,1.6,0.7,2.7,1l2.9-0.4c0.6,0.2,1,0.6,1.2,1.2
	c0.2,0.5,0.1,1,0.5,1.5c0.7,0.8,1.5,0.8,2.5,1.1c0.8,0.2,1.4,0.4,1.8,1.1c0.4,0.7,0.3,1.4,0.8,1.9c0.5,0.5,0.9,0.6,1.5,1h-0.5
	c1.6-0.1,2.7-0.8,4.1-1.4c0.7-0.3,1.2-0.6,1.9-0.8c0.7-0.2,1.4,0,1.9-0.5c0.6-0.5,0.7-1.4,1.5-1.7c0.7-0.3,1.4,0,1.9-0.5
	c0.4-0.4,0.4-0.9,0.4-1.5c0-0.8,0.1-1.3,0.1-2.2c1,0,1.5-0.4,2.4-0.4h2.4c0.4,0,0.6,0.1,1,0.1c0.4,0,0.6-0.4,1-0.4
	c0.8,0,1.2,0.4,1.9,0.5c0.8,0.1,1.4,0,1.9,0.5c0.2,0.1,0.1,0.3,0.2,0.5c0.7,0.8,1.3,1.3,1.9,2.2c0.6,0.8,1.2,1.4,1.5,2.4
	c0.1,0.3-0.1,0.6,0,1c0.2,0.7,1,0.7,1.7,1c0.6,0.2,0.9,0.5,1.5,0.8c2.5,1.5,4.2,2,6.8,3.4c1.7,0.9,2.5,2,3.3,3.7
	c0.3,0.7,1,1.1,1,1.9v2.5c0,1.5,0.7,2.3,0.7,3.8c0,1.7-0.1,2.7-0.1,4.4v0.7c0,1.4,0.3,2.2,0.6,3.6c0.2,0.8,0.3,1.2,0.6,1.9
	c0.2,0.4,0.1,1,0.5,1c0.6,0,1.2-0.1,1.5-0.6c0.2-0.5,0.3-0.9,0.5-1.5c1,0.2,1.8,0.3,2.4,1.1c0.5,0.6,0.4,1.2,0.4,1.9
	c0,1-0.2,1.6-0.6,2.4c-0.4,0.7-1,1.1-1,1.9c0,0.6,0.6,0.9,1,1.3c0.4,0.5,0.6,0.8,0.7,1.5c0.3,1.2,0.5,1.9,1.2,2.9
	c1,1.5,2.1,2,3.6,2.9c0.6,0.3,0.9,0.7,1.5,1.1c0.5-0.5,0.5-0.9,0.7-1.5c0.1-0.2,0.3-0.1,0.5-0.2h1.5c0.2,1.2,0.4,2,1,3
	c0.5,0.8,0.7,1.6,1.6,1.9c0.9,0.4,1.5,0.5,2.4,0.8c-0.4,0.5-0.8,0.8-0.8,1.5c0,1.3,1.5,1.3,2.4,2.2c0.9,0.9,1,1.7,1.3,2.9
	c0.3,1.4,0.5,2.2,1.2,3.4c0.4,0.7,1.2,0.8,1.9,1.1c1.6,0.7,2.6,1.2,3.7,2.5c0.6,0.7,0.8,1.2,1.5,1.8c1.7,1.5,2.5,3.5,4.8,3.5
	c0.2,0,0.3-0.2,0.5-0.2c0.4,0.3,1,0.5,1,1c0,0.8-0.4,1.4-1.1,1.7c-0.3,0.1-0.6,0-1,0c-0.2,0-0.3,0.3-0.5,0.4
	c0.6,0.8,1.4,1.1,2.4,1.1c1.5,0,1.8-1.9,3.3-1.9c0.8,0,1.3,0.2,2.2,0.2c1.1,0,1.5-1,2.1-1.9c0.7-1.2,1.1-2,1.3-3.4l-0.6-2.7
	c0.2-2,0.9-3.1,1.2-5.1c0.4-2.4,0.3-3.8,0.7-6.3l-0.7-5.1c0.1-0.7,0-1.1,0.1-1.7c0.2-1.1,0.5-1.8,0.5-2.9c0-1.9-0.3-3.1-1.3-4.7
	c-0.8-1.3-1.2-2.1-2.1-3.4c-0.4-0.6-0.7-1-0.7-1.7c0-0.4,0.4-0.6,0.4-1c0-1.4-1-2-1.7-3.1c-0.5-0.8-0.8-1.2-1.3-1.9
	c-1.5-2.2-2.2-3.6-3.3-5.9c-0.7-1.4-1.5-2-2.4-3.3c-0.6-0.8-0.8-1.5-1.3-2.4c-0.7-1.3-1.1-2.2-1.9-3.4c-0.6-0.8-1.3-1.2-1.6-2.2
	c1.8,0.2,2.7,0.9,4.4,1.6c-0.4-0.8-0.6-1.3-1.1-1.9c-0.6-0.8-1.3-0.9-1.9-1.6c-0.5-0.5-0.8-0.9-1.2-1.5c-0.9-1-1.7-1.5-2.3-2.7
	c-1-1.8-1.4-3.1-2.5-4.8c-1-1.4-2.1-1.9-2.9-3.4c-0.7-1.3-0.9-2.1-1.5-3.5c-0.2-0.6-0.6-0.9-0.8-1.5c-0.9-2-1.1-3.3-1.8-5.3
	c-0.3-0.8-0.7-1.2-1-1.9c-0.7-1.7-0.7-2.8-1.6-4.4c-1.6,2.1-1.7,4-1.7,6.7c0,1.9,0.3,3,0,4.9c-0.4-1.6-0.4-2.6-0.8-4.1
	c-0.4-1.5-1.3-2.3-1.3-3.9c0-1,0.3-1.7,1-2.4c0.1-0.2,0.4-0.1,0.5-0.2c0.4-0.5,0.5-1,0.8-1.5c0.4-0.5,1-0.7,1-1.3c0-1.2-0.1-2-0.3-3
	h0c-0.5,0.1-1.4,0.3-1.9,0.4c-0.4,0.1-0.6,0.4-1,0.4c-0.4,0-0.6-0.2-0.9-0.1c-0.4,0-0.6,0.2-0.9,0.2c-0.6,0-0.9-0.2-1.5-0.2
	c-0.2,0-0.3-0.2-0.5-0.2c-1.5,0-2.3,1.1-2.9,2.4c-0.3,0.7-0.8,1.1-0.8,2v4.1c-1.7-0.4-2.5-1.1-3.9-2.2l-24.8,3.4l-9.4,0.6
	c-1.8-0.8-3-0.9-4.8-1.6C590.4,382.6,589.6,381.7,587.8,381.3L587.8,381.3z"/>
<path fill="#969696" stroke="#FFFFFF" stroke-width="2" stroke-miterlimit="22.9256" d="M587.8,381.3c1.8,0.4,2.6,1.3,4.4,1.9
	c1.9,0.7,3,0.8,4.8,1.6l9.4-0.6l24.8-3.4c1.4,1,2.2,1.8,3.9,2.2v-4.1c0-0.8,0.5-1.2,0.8-2c0.6-1.3,1.5-2.4,2.9-2.4
	c0.2,0,0.3,0.2,0.5,0.2c0.5,0.1,0.9,0.2,1.5,0.2c0.4,0,0.6-0.2,0.9-0.2c0.4,0,0.6,0.1,0.9,0.1c0.4,0,0.6-0.2,1-0.4
	c0.5-0.2,1.4-0.3,1.9-0.4h0c-0.1-0.5-0.2-1-0.2-1.6c-0.1-0.9-0.2-1.5-0.4-2.4c-0.1-0.7-0.1-1.2-0.2-1.9c-0.1-0.5-0.7-0.7-0.7-1.2
	c0-1.3,1.1-1.8,1.1-3.1c0-0.7-0.4-1-0.4-1.7c0-0.8,0.4-1.3,0.5-2.2c0.2-1.7,0.1-2.7,0.5-4.4c0.3-1.4,0.9-2,1.1-3.4
	c0.9-1,1.8-1.4,1.8-2.8c0-0.5-0.2-0.8-0.4-1.2l0,0c-0.8-0.1-1.6,0.2-2.2-0.2c-0.3-0.2-0.4-0.6-0.6-1c-0.9-1.4-1-2.5-1.9-3.9
	c-0.7-1-1.4-1.4-2.3-2.1c-1.6-1.2-2.7-2.1-3.3-4c-0.5-1.5-0.5-2.4-0.8-3.9c-0.2-1.1-0.5-2.1-1.6-2.4c-1-0.3-1.5-0.6-2.5-0.7
	c-0.3,0-0.7,0-1-0.1c-1.5-0.8-1.6-2.1-2.8-3.1c-2.3-2.1-3.6-3.8-6.7-4.8c-2.7-0.9-4.7-1-6.5-3.1c-0.6-0.7-1.1-1-1.6-1.8
	c-1.2-1.9-1.9-3.1-3.7-4.4c-1.2-0.8-2.1-1.1-3.4-1.8c-0.6-0.3-0.7-0.9-1-1.5c-0.3-0.7-0.5-1.2-0.5-1.9c0-1.4,0.5-2,0.8-3.4l0,0
	l-18.5,4.5v0l-15.5,4h-0.1l9.8,29.6c0.2,1.5,0.1,2.4,0.4,3.9c0.1,0.8,0.5,1.2,0.6,1.9c0.2,0.9,0.1,1.5,0.2,2.4
	c0.1,0.6,0.2,1.1,0.7,1.5c0.3,0.2,0.6,0.2,1,0.4c0.8,0.3,1.2,0.8,1.7,1.5c0.5,0.7,0.8,1.1,1.3,1.8c0.5,0.7,1,1.1,1,1.9
	c0,0.5-0.5,0.6-0.7,1c-0.4,0.5-0.7,0.8-1,1.5c-0.4,0.8-0.1,1.5-0.1,2.4c0,1.3-0.4,2.1-0.6,3.4l1.7,9.8
	C588.3,377.9,588,378.8,587.8,381.3L587.8,381.3z"/>
<path fill="#969696" stroke="#FFFFFF" stroke-width="2" stroke-miterlimit="22.9256" d="M587.8,381.3l-35.3,7.1
	c-0.2,1.4-0.8,2-0.8,3.4c0,0.8,0.2,1.3,0.6,1.9c0.4,0.6,1.2,0.6,1.3,1.3c0.1,0.6-0.1,1-0.1,1.7c0,0.7,0.2,1.1,0.4,1.7
	c0.2,0.9,0.3,1.3,0.5,2.3v0c-1.5,0.2-2.5,0.6-4.2,0.6c-1.1,0-1.5-0.8-2.2-1.7c-0.8-1.1-1.4-1.6-1.8-2.9c-0.7,1.7-1.3,2.6-2.5,3.9
	c-0.3,0.3-0.5,0.6-0.8,0.8c-0.8,0.5-1.5,0.4-2.5,0.5c-0.1,0-0.3,0-0.4,0v0l-3.6-26.3l-0.4-53.7c-0.7-1.4-1.1-2.1-2.1-3.3l0,0
	c0.5-0.5,0.6-1.1,1.2-1.5c0.3-0.2,0.6,0.1,1,0c1.3-0.3,2-0.7,3.4-0.8c1-0.1,1.5-0.6,2.4-0.6c0.6,0,0.9,0.5,1.5,0.7
	c1.1,0.4,1.8,0.7,2.9,0.8l26.5-5h0l9.8,29.6c0.2,1.5,0.1,2.4,0.4,3.9c0.1,0.8,0.5,1.2,0.6,1.9c0.2,0.9,0.1,1.5,0.2,2.4
	c0.1,0.6,0.2,1.1,0.7,1.5c0.3,0.2,0.6,0.2,1,0.4c0.8,0.3,1.2,0.8,1.7,1.5c0.5,0.7,0.8,1.1,1.3,1.8c0.5,0.7,1,1.1,1,1.9
	c0,0.5-0.5,0.6-0.7,1c-0.4,0.5-0.7,0.8-1,1.5c-0.4,0.8-0.1,1.5-0.1,2.4c0,1.3-0.4,2.1-0.6,3.4l1.7,9.8
	C588.3,377.9,588,378.8,587.8,381.3L587.8,381.3z"/>
<path fill="#969696" stroke="#FFFFFF" stroke-width="2" stroke-miterlimit="22.9256" d="M539.8,402c-2.8,0.2-4.5,0.5-7.4,0.9l-1-0.2
	c-1.9,0.6-2.8,1.5-4.4,2.8c-0.8,0.7-1.2,1.3-2.2,1.8c-0.6,0.3-1,0.7-1.7,0.7c-0.3,0-0.6,0-0.8-0.1l0,0c0-1.7,0-2.8-0.6-4.4
	c-0.5-1.3-1.3-1.8-2.3-2.7c-0.5-0.4-1-0.7-1-1.3c0-0.4,0.2-0.6,0.2-1c0.2-1.1,0.2-1.8,0.2-2.9c0-1-1.2-0.9-1.9-1.6l-25.6,3.9
	c-0.1-0.1-0.3-0.2-0.4-0.4c-0.4-0.7,0-1.3-0.2-2.1c-0.3-0.8-0.6-1.3-0.6-2.2c0-0.8,0.6-1.1,1-1.7c0.3-0.5,0.5-0.9,0.7-1.5
	c0.2-0.5,0.6-0.8,0.6-1.5c0-0.9-1-1.3-1-2.2c0-0.3,0-0.5,0.2-0.7c0.3-0.3,0.8-0.2,1-0.5c0.4-0.6-0.2-1.3,0.1-1.9
	c0.5-1,1.5-1.1,2.2-2.1c0.4-0.6,0.5-1,0.5-1.7c0-1-0.2-1.7,0.1-2.7c0.2-0.8,1-1.1,1.2-1.9c0.2-0.7,0-1.2,0-1.9
	c0-1.9-0.2-3.1-0.8-4.8c-0.5-1.2,0-2.1-0.2-3.4c-0.1-0.8-0.5-1.2-0.8-1.9c-0.3-0.5-0.5-1-0.6-1.5l0,0c0-0.2-0.1-0.4-0.1-0.6
	c-0.1-0.8,0.1-1.2,0.1-1.9c0-0.9-0.3-1.5-0.4-2.4c-0.2-1.8,0-2.9-0.4-4.7c-0.2-0.8-0.7-1.1-0.7-1.9c0-1.2,0.5-1.8,0.8-2.9
	c0.3-1.1,0.2-1.8,0.4-2.9c0.3-2.6,3.4-3.2,3.4-5.8c0-0.5-0.4-0.7-0.4-1.2c0-0.3,0.3-0.5,0.5-0.7c0.6-0.6,1.2-0.9,1.8-1.6
	c0.8-1,1.5-1.7,1.5-3c0-0.5,0-1,0-1.5c0-0.2-0.2-0.3-0.1-0.5c0.1-0.4,0.4-0.6,0.6-1c0.5-0.9,0.6-1.5,1.1-2.4c0.2-0.4,0.7-0.5,1-0.8
	c0.6-0.7,0.9-1.3,1-2.1l0,0l29.3-4.8l0,0c1,1.1,1.4,1.9,2.1,3.3l0.4,53.7L539.8,402L539.8,402z"/>
<path fill="#969696" stroke="#FFFFFF" stroke-width="2" stroke-miterlimit="22.9256" d="M533.7,318.8c0.5-0.5,0.6-1.1,1.2-1.5
	c0.3-0.2,0.6,0.1,1,0c1.3-0.3,2-0.7,3.4-0.8c1-0.1,1.5-0.6,2.4-0.6c0.6,0,0.9,0.5,1.5,0.7c1.1,0.4,1.8,0.7,2.9,0.8l26.5-5h0.1
	l15.5-4v0c0.1-1.7,0.2-3.4,0.2-5.1c0-0.2-0.2-0.3-0.1-0.5c0.3-0.5,0.9-0.4,1.5-0.6c0.8-0.3,1.2-0.7,1.9-1.2c0.4-0.3,0.8-0.4,1-0.8
	c0.1-0.3,0.1-0.6,0.2-1c0.3-0.8,0.9-1.1,1.7-1.6c0.8-0.5,1.2-1,1.9-1.6c1.6-1.2,2.4-2.1,3.9-3.5c0.3-0.3,0.5-0.7,0.8-1
	c0.7-0.6,1.1-1,1.8-1.6c1.2-1.1,2.1-1.4,3.3-2.5c0.9-0.9,1.4-1.6,2.1-2.8c0.4-0.7,0.5-1.4,1.2-1.8c0.6-0.4,1.2-0.2,1.9-0.4
	c1.2-0.3,1.9-0.9,2.8-1.7c0.3-0.3,0.7-0.4,1-0.7c0.1-0.1,0-0.4,0.1-0.5c0.5-0.3,0.9-0.1,1.5-0.1c0.8,0,1.2-0.1,1.9-0.4
	c0.9-0.4,1.7-0.8,1.9-1.8c0.1-0.3,0-0.6,0.1-1c0.2-0.5,0.4-0.9,0.6-1.5c0.1-0.3,0.4-0.4,0.4-0.7c0-1.2-0.4-1.9-0.5-3.1v0l-26.6,6.9
	l0,0l-1,0.2l-1.5-0.4l-17.5,3.6c-0.8,0-1.5,0.1-2.2,0c-0.8-0.1-1.1-0.5-1.9-0.6l-32.8,6.4c-1.2,0.3-1.9,0.7-3,1.2
	c-0.5,0.2-0.9,0.2-1.5,0.5c-2,1-3.1,1.8-5.3,2.1c-0.9,0.1-1.5,0-2.4,0.1c-0.5,0.1-0.9,0.3-1.5,0.4c-2.3,0.4-4.9-0.5-7.3-0.4l0,0
	c-0.7,0.5-1.2,0.8-1.9,1.3c-0.9,0.7-1.1,1.5-1.9,2.3c-0.1,0.1-0.4,0.1-0.5,0.2c-0.4,0.6-0.4,1.2-0.7,1.9c-0.5,0.9-1,1.4-1,2.4
	c0,0.7,0,1.5,0,2.2c0,1,0,1.7-0.1,2.5l0,0c-0.1,0.6-0.2,1.3-0.4,2c-0.4,1.3-1.7,1.6-2.1,2.9c-0.1,0.3,0,0.6,0,0.9c0,0.7,0,1.3,0,2
	c0,1.3-0.7,1.9-1.3,3c-0.5,0.8-0.5,1.5-0.6,2.4c-0.1,1.2-0.6,1.9-1.3,2.9c-0.3,0.4-0.7,0.5-0.7,1c0,0.6,0.1,0.9,0.1,1.5
	c0,0.3,0,0.5-0.1,0.8l0,0L533.7,318.8L533.7,318.8z"/>
<path fill="#969696" stroke="#FFFFFF" stroke-width="2" stroke-miterlimit="22.9256" d="M606.7,304.1c-0.3,1.4-0.8,2-0.8,3.4
	c0,0.8,0.2,1.3,0.5,1.9c0.3,0.6,0.4,1.1,1,1.5c1.3,0.8,2.1,1,3.4,1.8c1.8,1.2,2.6,2.4,3.7,4.4c0.5,0.8,1,1.1,1.6,1.8
	c1.8,2.1,3.9,2.3,6.5,3.1c3,1,4.3,2.7,6.7,4.8c1.2,1.1,1.3,2.4,2.8,3.1c0.3,0.2,0.6,0.1,1,0.1c1,0.2,1.6,0.4,2.5,0.7
	c1,0.3,1.4,1.3,1.6,2.4c0.3,1.5,0.4,2.4,0.8,3.9c0.6,1.9,1.7,2.8,3.3,4c0.9,0.7,1.6,1.1,2.3,2.1c1,1.4,1,2.5,1.9,3.9
	c0.2,0.3,0.3,0.7,0.6,1c0.6,0.4,1.5,0.1,2.2,0.2l0,0c-0.1-0.2-0.2-0.4-0.2-0.7c0-1.4,1.3-2,1.3-3.4c0-1.1-0.5-1.8-0.7-2.9
	c0.2,0,0.3-0.2,0.5-0.2c0.6,0,0.7,0.8,1.3,0.8c1,0,0.9-1.3,1.3-2.2c0.4-0.8,1.3-0.8,2.1-1.2c1.1-0.5,2-0.3,2.9-1.1
	c0.7-0.6,0.7-1.3,1.3-1.9c1-1,1.9-1.3,2.9-2.3c0.8-0.8,1.3-1.4,1.5-2.4c0-0.3-0.1-0.6,0-1c0.3-0.7,1.1-0.5,1.7-1.1
	c0.6-0.6,0.7-1.3,1.2-1.9c0.1-0.2,0.4-0.1,0.5-0.2c0.7-0.8,0.8-1.5,1.3-2.4c0.4-0.7,0.9-1.1,1-1.9c0.1-0.6-0.2-0.9,0-1.5
	c0.2-0.3,0.5-0.4,0.8-0.6c0.9-0.6,1.2-1.4,1.7-2.4c0.6-1.1,0.9-1.8,1.6-2.9c0.4-0.7,0.5-1.2,0.8-1.9c0.9-2.1,1.6-3.4,2.8-5.3
	c0.2-0.3,0.4-0.6,0.6-0.9l0,0l-18.2-12.1l-15.1,4.4c-1.1-0.5-1.6-1.2-2.3-2.3c-0.5-0.7-1.2-0.8-1.9-1.2c-0.6-0.3-0.9-1-1.7-1
	c-1.5,0-2.3,0.4-3.7,0.6c-1.1,0.2-1.8,0.2-2.9,0.4c-1.2,0.2-1.8,0.5-3,0.7c-1,0.2-1.7,0.2-2.7,0.4c-1.1,0.2-1.8,0.5-2.9,0.7
	c-3.1,0.8-5,0.8-7.7,2.4c-0.5,0.3-1,0.5-1.5,0.8c-0.8,0.7-1.3,1.3-2.3,1.7c-1.1,0.5-1.9,0.3-2.9,0.8
	C607.2,303.2,607,303.7,606.7,304.1L606.7,304.1z"/>
<path fill="#969696" stroke="#FFFFFF" stroke-width="2" stroke-miterlimit="22.9256" d="M588.2,308.5l18.5-4.5l0,0
	c0.3-0.3,0.5-0.9,1-1.1c1-0.5,1.8-0.4,2.9-0.8c1-0.4,1.5-1,2.3-1.7c0.5-0.4,0.9-0.5,1.5-0.8c2.7-1.7,4.7-1.7,7.7-2.4
	c1.1-0.3,1.8-0.5,2.9-0.7c1-0.2,1.7-0.2,2.7-0.4c1.2-0.2,1.8-0.5,3-0.7c1.1-0.2,1.8-0.2,2.9-0.4c1.5-0.2,2.3-0.6,3.7-0.6
	c0.8,0,1.1,0.6,1.7,1c0.8,0.4,1.5,0.5,1.9,1.2c0.7,1.1,1.1,1.8,2.3,2.3l15.1-4.4l18.2,12.1l0,0c0.7-0.8,1.6-1.3,2.7-1.9
	c1.1-0.6,1.7-1.2,2.9-1.7c1.1-0.5,1.9-0.5,2.9-1.1c1.5-0.8,1.5-2.3,1.9-4c0.6-2.3,0.5-3.7,1.7-5.8c0.3-0.6,0.8-0.8,1.2-1.3
	c0.2-0.3,0.4-0.6,0.6-1c0.6-1,1.2-1.5,2.1-2.4c1.5-1.7,2.1-3.2,4.2-3.9c0.9-0.3,1.5-0.2,2.4-0.2c1-0.1,1.5-0.7,2.4-1.1
	c0.6-0.2,1.2-0.1,1.5-0.7c0.2-0.5,0.1-0.9,0.2-1.5c0.3-0.9,0.7-1.4,0.8-2.4c-0.7-0.3-1.1-0.8-1.9-0.8c-0.5,0-0.5,0.7-1,1
	c-0.5,0.3-0.9,0.5-1.5,0.8c-0.7,0.5-1.2,0.7-1.9,1.1c-0.4,0.2-0.5,0.6-1,0.6c-1.2,0-1.8-1-2.5-1.9c1.5-0.4,2.4-0.1,3.9-0.7
	c0.5-0.2,0.6-0.8,0.6-1.5c0.2-0.9,0.2-1.5,0.5-2.4c0.1-0.4,0.4-0.5,0.4-0.9c0-0.3-0.1-0.5-0.1-0.9c-1.3,0-2.1,0.3-3.4,0.1
	c-0.7-0.1-1.2-0.3-1.9-0.5c1.3-1.3,3.1-0.4,4.4-1.7l-0.4-1.5c0.6-0.6,1.1-1.2,2.1-1.2c0.7,0,1.2,0.3,1.6,0.8
	c0.4,0.5,0.5,1.1,1.1,1.1c0.6,0,0.9-0.6,1.5-0.8c1.8-0.8,2.6-1.8,3.4-3.5c0.5-1.2,0.8-2.1,1-3.4c0.2-0.9,0.5-1.5,0.5-2.4
	c0-1.8-0.9-2.9-2.5-3.7c-0.5,0.8-0.8,1.4-1,2.4c-0.2,0.8-0.3,1.9-1.2,1.9c-0.7,0-1.1-0.4-1.7-0.7c-0.2-0.1-0.2-0.3-0.5-0.4
	c-0.8-0.1-1.2,0-2,0h-3c-1.5,0-1.9,1.5-3.3,2.2c-0.1-0.8-0.2-1.2-0.4-1.9c-0.2-0.9-0.1-1.5-0.4-2.4c-0.2-0.8-0.5-1.2-0.6-2.1h1.4
	c0.5,0,0.7,0.4,1,0.7c0.6,0.6,0.8,1.1,1.6,1.6c0.7-0.7,1.2-0.9,1.9-1.6c0.3-0.3,0.3-0.8,0.6-1c0.2-0.1,0.3,0,0.5,0
	c0.3-0.1,0.7-0.1,1-0.2c0.6-0.3,0.5-1.1,1-1.5c0.3-0.2,0.6-0.2,1-0.2c0.4,0,0.6,0.4,1,0.4c0.5,0,0.5-0.6,0.6-1.1l-2.6-4.8l0,0
	l-80.3,24.6l0,0c0.1,1.2,0.5,1.9,0.5,3.1c0,0.3-0.3,0.5-0.4,0.7c-0.2,0.6-0.4,0.9-0.6,1.5c-0.1,0.3,0,0.6-0.1,1
	c-0.3,1-1,1.5-1.9,1.8c-0.7,0.3-1.2,0.4-1.9,0.4c-0.6,0-1-0.2-1.5,0.1c-0.1,0.1,0,0.4-0.1,0.5c-0.3,0.4-0.6,0.4-1,0.7
	c-0.9,0.8-1.6,1.4-2.8,1.7c-0.7,0.2-1.3,0-1.9,0.4c-0.7,0.4-0.8,1.1-1.2,1.8c-0.7,1.1-1.1,1.8-2.1,2.8c-1.1,1.1-2.1,1.5-3.3,2.5
	c-0.7,0.6-1.1,1-1.8,1.6c-0.4,0.3-0.5,0.6-0.8,1c-1.4,1.4-2.3,2.3-3.9,3.5c-0.8,0.5-1.1,1.1-1.9,1.6c-0.8,0.5-1.4,0.7-1.7,1.6
	c-0.1,0.3-0.1,0.6-0.2,1c-0.2,0.4-0.6,0.6-1,0.8c-0.7,0.5-1.1,0.9-1.9,1.2c-0.5,0.2-1.1,0.1-1.5,0.6c-0.1,0.2,0.1,0.3,0.1,0.5
	C588.4,305.1,588.3,306.8,588.2,308.5L588.2,308.5z"/>
<path fill="#969696" stroke="#FFFFFF" stroke-width="2" stroke-miterlimit="22.9256" d="M516.9,291.2c2.3-0.2,5,0.7,7.3,0.4
	c0.5-0.1,0.9-0.3,1.5-0.4c0.9-0.2,1.5,0,2.4-0.1c2.2-0.3,3.4-1.1,5.3-2.1c0.5-0.2,0.9-0.2,1.5-0.5c1.1-0.5,1.8-0.9,3-1.2l32.8-6.4
	c0.8,0.1,1.2,0.5,1.9,0.6c0.7,0.1,1.4,0,2.2,0l17.5-3.6l1.5,0.4l1-0.2l0,0c1.6-1.8,2.6-2.9,4.5-4.4c1.6-1.2,2.8-1.7,4.2-3.1
	c0.3-0.3,0.7-0.3,1-0.7c0.4-0.7,0.3-1.2,0.7-1.9c0.3-0.6,1-0.6,1.3-1.2c0.7-1.1,0.1-2.2,0.7-3.4c0.2-0.4,0.6-0.5,1-0.7
	c0.9-0.7,1.6-1,2.3-1.9c0.2-0.3,0.4-0.6,0.6-1c0.2-0.4,0.6-0.5,0.8-1c0.9-1.8,1.1-2.9,1.5-4.8l0,0c-0.5-0.1-1.1-0.1-1.7-0.2
	c-1.5-0.4-2.1-1.2-3.3-2.3c-0.2-0.1-0.1-0.4-0.2-0.5c-0.2-0.1-0.3-0.1-0.5-0.2c-0.6-0.6-0.9-1.1-1.2-1.9c-0.1-0.3-0.1-0.6-0.2-1
	c-0.3-0.8-0.7-1.1-1-1.9c-0.6-1.8-0.6-4-1.3-5.8v0c-1,0-1.7-0.4-2.4-1.1c-0.3-0.3-0.2-0.7-0.5-1c-0.2-0.3-0.6-0.4-1-0.6
	c-0.9-0.4-1.5-0.6-2.4-1.1c-0.8-0.5-1-1.3-1.9-1.3c-1.1,0-1.1,1.3-1.9,1.9c-0.8,0.7-1.6,1-2.7,1c-0.7,0-1,0-1.7-0.1
	c-0.3,0-0.4-0.4-0.7-0.4c-1,0-1.4,1.1-2.4,1.1c-0.7,0-1.1-0.5-1.7-0.7c-0.6-0.2-1-0.2-1.7-0.2c-1.2,0-2,0.4-3.2,0.4
	c-0.4,0-0.7,0-1-0.1c-0.9-0.3-0.8-1.7-1.7-1.7c-0.8,0-1.1,0.1-1.9,0.1c-0.9,0-1.3-0.5-2.2-0.5c-0.5,0-0.9,0.1-1.2,0.4l0,0
	c-0.2,0.2-0.4,0.4-0.6,0.6c-0.2,0.2-0.5,0.3-0.5,0.6c0,0.9,0.5,1.4,0.8,2.2c0.4,0.8,1.4,1.2,1,1.9c-1,1.5-2.6,1.5-4.4,1.9
	c-0.5,0.1-0.9,0.1-1.5,0.2c-0.2,0.1-0.3,0.3-0.5,0.4c-0.9,0.3-1.5,0.3-2.4,0.6c-0.5,0.2-1,0.1-1.5,0.5c-0.5,0.5-0.2,1.2-0.2,1.9
	c-0.2,2.6-1.1,4-2.5,6.3c-0.7,1.2-1.3,1.8-2.1,3c-0.8,1.2-1.1,2.7-2.5,2.7c-1.1,0-1.5-0.8-2.4-1.3c-0.3-0.2-0.5-0.6-1-0.6
	c-0.4,0-0.5,0.5-0.8,0.7c-0.3,0.2-0.9,0.1-1,0.5c-0.1,0.9,0.4,1.5,0.4,2.4c0,0.6-0.3,1.3-1,1.3c-1,0-1.4-0.8-2.4-0.8
	c-0.2,0-0.2,0.4-0.4,0.5c-0.2,0.1-0.3,0.1-0.5,0.1c-0.3,0.1-0.6-0.1-1,0c-0.4,0.1-0.7,0.4-1,0.6c-0.7,0.6-0.9,1.1-1.3,1.8
	c-0.3,0.6-0.4,1.3-1.1,1.3c-0.8,0-1.1-0.7-2-0.7c-1.1,0-2.2,0.1-3.4,0c-0.3,0-0.6-0.2-1-0.2c-1.3-0.3-1.1,2.4-2.4,2.4
	c-0.8,0-2.2-1.2-2.2-0.4l0,0c0,0.8,0,1.6,0,2.4c0,0.7-0.7,0.9-1.1,1.4c-0.3,0.4-0.2,0.7-0.2,1.2c0,0.9,0.8,1.3,0.8,2.2
	c0,0.4-0.5,0.5-0.8,0.7c-0.7,0.5-1.1,0.8-1.9,1.2c-0.8,0.4-1.9,0.5-1.9,1.5c0,1.3,0.6,2.1,0.6,3.4c0,0.4,0.2,0.7-0.1,0.9
	c-0.4,0.3-0.8,0.1-1.3,0.1c-0.4,0-0.6-0.2-1-0.2c-0.9-0.1-1.5-0.1-2.4-0.4c-1.1-0.4-1.7-1-2.9-1c-0.7,0-1,0.7-1.2,1.3
	c-0.3,0.9,0.2,0.6-0.1,1.5l0,0c0.3,0.1,0.4,0.4,0.4,0.8c0,1.8,0,3.6,0,5.5c0,0.5,0.4,0.7,0.4,1.2C517.7,290.7,517.3,291,516.9,291.2
	L516.9,291.2z"/>
<path fill="#969696" stroke="#FFFFFF" stroke-width="2" stroke-miterlimit="22.9256" d="M530.5,266.5c0-0.8,1.3,0.4,2.2,0.4
	c1.3,0,1.1-2.7,2.4-2.4c0.3,0.1,0.6,0.2,1,0.2c1.1,0.1,2.2,0,3.4,0c0.8,0,1.1,0.7,2,0.7c0.7,0,0.8-0.8,1.1-1.3
	c0.4-0.8,0.7-1.2,1.3-1.8c0.3-0.2,0.6-0.5,1-0.6c0.3-0.1,0.6,0.1,1,0c0.2,0,0.3-0.1,0.5-0.1c0.2-0.1,0.1-0.5,0.4-0.5
	c1,0,1.4,0.8,2.4,0.8c0.6,0,1-0.7,1-1.3c0-0.9-0.5-1.5-0.4-2.4c0.1-0.4,0.6-0.2,1-0.5c0.3-0.2,0.4-0.7,0.8-0.7c0.4,0,0.6,0.4,1,0.6
	c0.9,0.6,1.4,1.3,2.4,1.3c1.4,0,1.8-1.5,2.5-2.7c0.8-1.2,1.3-1.8,2.1-3c1.4-2.3,2.3-3.7,2.5-6.3c0.1-0.8-0.3-1.4,0.2-1.9
	c0.4-0.4,0.9-0.3,1.5-0.5c0.9-0.3,1.5-0.3,2.4-0.6c0.2-0.1,0.3-0.3,0.5-0.4c0.5-0.2,0.9-0.1,1.5-0.2c1.8-0.5,3.3-0.4,4.4-1.9
	c0.5-0.7-0.6-1.2-1-1.9c-0.4-0.8-0.8-1.3-0.8-2.2c0-0.3,0.3-0.4,0.5-0.6c0.2-0.2,0.4-0.5,0.6-0.6l0,0l-8.6-46.8l0,0l-0.3-1.6
	l-27,4.9h0c-0.5,0.4-1,0.7-1.7,1.1c-1.8,1.2-2.9,2.2-5.1,2.2c-0.3,0-0.5-0.1-0.8-0.2l0,0l5.8,40.9c-0.6,1.1-1.7,1.2-1.7,2.5
	c0,1.7,0.6,2.6,1.2,4.1c0.8,1.9,1,3.2,1,5.3c0,1.8-0.9,2.6-1.3,4.4c-0.4,1.5-0.5,2.6-1.2,4c-0.3,0.6-0.9,0.8-1,1.5
	c-0.2,0.9,0,1.5-0.1,2.4c-0.1,0.6-0.3,0.9-0.4,1.5c-0.1,0.6,0.1,0.9,0,1.5c0,0.4-0.2,0.6-0.2,1C530.2,265.4,529.8,266,530.5,266.5
	L530.5,266.5z"/>
<path fill="#969696" stroke="#FFFFFF" stroke-width="2" stroke-miterlimit="22.9256" d="M528.2,195.5l5.8,40.9
	c-0.6,1.1-1.7,1.2-1.7,2.5c0,1.7,0.6,2.6,1.2,4.1c0.8,1.9,1,3.2,1,5.3c0,1.8-0.9,2.6-1.3,4.4c-0.4,1.5-0.5,2.6-1.2,4
	c-0.3,0.6-0.9,0.8-1,1.5c-0.2,0.9,0,1.5-0.1,2.4c-0.1,0.6-0.3,0.9-0.4,1.5c-0.1,0.6,0.1,0.9,0,1.5c0,0.4-0.2,0.6-0.2,1
	c0,0.8-0.4,1.5,0.2,1.9l0,0c0,0.8,0,1.6,0,2.4c0,0.7-0.7,0.9-1.1,1.4c-0.3,0.4-0.2,0.7-0.2,1.2c0,0.9,0.8,1.3,0.8,2.2
	c0,0.4-0.5,0.5-0.8,0.7c-0.7,0.5-1.1,0.8-1.9,1.2c-0.8,0.4-1.9,0.5-1.9,1.5c0,1.3,0.6,2.1,0.6,3.4c0,0.4,0.2,0.7-0.1,0.9
	c-0.4,0.3-0.8,0.1-1.3,0.1c-0.4,0-0.6-0.2-1-0.2c-0.9-0.1-1.5-0.1-2.4-0.4c-1.1-0.4-1.7-1-2.9-1c-0.7,0-1,0.7-1.2,1.3
	c-0.3,0.9,0.2,0.6-0.1,1.5l0,0c-0.8-0.4-2.6,0.3-3.7-0.2c-1-0.4-1.4-1.1-2.2-1.8c-0.3-0.3-0.6-0.5-0.8-0.8c-0.2-0.3-0.6-0.5-0.6-0.9
	c0-0.8,0-1.7,0-2.5c0-1.6-0.7-2.5-1.6-3.8c-0.7-1.2-1.3-2.2-2.4-3c-0.7-0.5-1.2-0.8-1.9-1.3c-0.8-0.7-1.3-1.3-2.2-1.9
	c-1.2-0.9-2.2-1.1-3.3-2.2c-0.6-0.6-0.7-1.2-1-1.9c-0.3-0.8-0.6-1.3-0.6-2.2c0-1.1,0.5-1.7,0.8-2.7c0.5-1.2,0.7-2.1,0.7-3.4
	c0-0.8-1.1-0.8-1.8-1.1c-0.6-0.2-0.9-0.3-1.5-0.6c-0.4-0.2-0.5-0.5-1-0.5c-0.4,0-0.4,0.4-0.6,0.7c-0.4,0.7-1,1.2-1.8,1.2
	c-0.6,0-0.5-0.9-0.6-1.5c-0.1-0.6-0.3-0.9-0.5-1.5c-0.4-1.1-0.6-1.8-1.1-2.9c-0.5-1-0.8-1.6-1.5-2.4c-1.3-1.5-2.4-2-3.9-3.3
	c-0.8-0.7-1.5-0.8-2.4-1.3c-0.6-0.3-0.9-0.7-1.5-1.1c-0.7-0.6-1.3-0.8-1.6-1.7c-0.4-1.2-0.2-2.1-0.4-3.4c-0.1-1.1-0.5-1.8-0.5-2.9
	c0-1,0-1.8,0.1-2.6l0,0c0.1-0.5,0.1-1.1,0.3-1.8c0.2-0.9,0.6-1.5,0.7-2.4c0.1-0.5-0.1-0.9,0.1-1.5c0.2-0.4,0.5-0.6,0.8-0.8
	c0.5-0.4,1.1-0.7,1.2-1.3c0.1-0.5,0.1-0.9,0.4-1.5c0.6-1.4,1-2.3,1.2-3.9c0.1-0.9,0.4-1.5,0.4-2.4c0-0.4,0-0.7-0.2-1
	c-0.2-0.3-0.7-0.2-1-0.5c-0.6-0.5-1.4-1.2-1.1-1.9c0.4-1.3,2-0.8,3.3-1.1c1.7-0.3,2.4-1.4,3.9-2.4c0.7-0.5,1.2-0.7,1.9-1.1
	c1.1-0.6,1.1-1.7,1.5-2.9c0.3-0.9,0.6-1.5,0.6-2.4c0-1.4-0.4-2.1-0.8-3.4c-0.2-0.6-0.4-1-0.7-1.5c-0.4-0.6-0.9-0.8-1.5-1.2
	c-0.8-0.6-1.1-1.2-1.8-1.8c-0.4-0.3-0.7-0.5-1-0.8c-0.7-1-0.8-1.8-1.3-2.9l0,0l37.5-6.1l0,0v3c0,1,0.5,1.5,0.8,2.4
	c0.6,1.4,1.1,2.1,1.9,3.4c0.8,1.3,1.2,2.3,2.4,3.3C527.6,195.1,527.8,195.3,528.2,195.5L528.2,195.5z"/>
<path fill="#969696" stroke="#FFFFFF" stroke-width="2" stroke-miterlimit="22.9256" d="M419.1,230.9c0.3,0.5,0.5,1,0.7,1.6
	c0,0.1,0,0.3,0,0.5c0.6,2,2,2.7,3.6,4.1c0.6,0.6,0.9,1.1,1.3,1.7h0c0,0-39.6,3-92.3,2.5v0l0.2-16.7l-26.7-1.2l0,0l1.6-36.4l0,0
	c26.7,1.2,51.1,1.4,73,1c1.1,0.9,2.2,1.4,3.6,2.1c1.4,0.6,2.3,1.3,3.9,1.3c2.6,0,4-0.8,6.5-0.8c1.5,0,2.2,1,3.6,1.3
	c1.4,0.3,2.1,0.6,3.4,1.1c2.4,1,4.2,1.3,5.8,3.1l0,0c0.1,0.1,0.2,0.4,0.4,0.6c1.5,2.1,0.6,4.3,2.1,6.4c0.2,0.4,0.5,0.5,0.8,0.8
	c1.5,1.5,2.8,2.9,2.4,5.1c-0.1,0.7-0.2,1.5-0.4,2.2c-0.3,2,2,2.6,2.9,4.4c0.5,1,0.5,1.8,0.6,2.9c0.1,1.3,0.1,2.2,0.6,3.4
	c0.6,1.3,1.2,2,1.2,3.4c0,1.1,0,2.3,0,3.4c0,0.4,0.2,0.6,0.4,0.9C418.7,230.1,418.9,230.5,419.1,230.9L419.1,230.9z"/>
<path fill="#969696" stroke="#FFFFFF" stroke-width="2" stroke-miterlimit="22.9256" d="M419.1,230.9c31.4-1.7,54.5-4.5,54.5-4.5
	c1.1,1.8,2.1,2,4.1,3l0,0c-0.1,0.8-0.1,1.6-0.1,2.6c0,1.1,0.4,1.8,0.5,2.9c0.1,1.3-0.1,2.1,0.4,3.4c0.3,0.8,0.9,1.1,1.6,1.7
	c0.5,0.4,0.9,0.8,1.5,1.1c0.9,0.5,1.6,0.7,2.4,1.3c1.5,1.3,2.6,1.8,3.9,3.3c0.7,0.8,1,1.4,1.5,2.4c0.5,1.1,0.7,1.8,1.1,2.9
	c0.2,0.5,0.4,0.9,0.5,1.5c0.1,0.6,0,1.5,0.6,1.5c0.8,0,1.4-0.5,1.8-1.2c0.2-0.3,0.2-0.7,0.6-0.7c0.4,0,0.6,0.3,1,0.5
	c0.5,0.3,0.9,0.4,1.5,0.6c0.8,0.2,1.8,0.3,1.8,1.1c0,1.3-0.3,2.1-0.7,3.4c-0.4,1-0.8,1.6-0.8,2.7c0,0.9,0.3,1.4,0.6,2.2
	c0.3,0.8,0.4,1.3,1,1.9c1,1.1,2.1,1.3,3.3,2.2c0.9,0.7,1.3,1.3,2.2,1.9c0.7,0.5,1.2,0.8,1.9,1.3c1.1,0.8,1.7,1.9,2.4,3
	c0.9,1.3,1.6,2.2,1.6,3.8c0,0.8,0,1.7,0,2.5c0,0.4,0.4,0.6,0.6,0.9c0.2,0.3,0.5,0.5,0.8,0.8c0.8,0.8,1.2,1.4,2.2,1.8
	c1.1,0.5,2.9-0.2,3.7,0.2l0,0c0.3,0.1,0.4,0.4,0.4,0.8c0,1.8,0,3.6,0,5.5c0,0.5,0.4,0.7,0.4,1.2c0,0.5-0.3,0.8-0.7,1.1l0,0
	c-0.7,0.5-1.2,0.8-1.9,1.3c-0.9,0.7-1.1,1.5-1.9,2.3c-0.1,0.1-0.4,0.1-0.5,0.2c-0.4,0.6-0.4,1.2-0.7,1.9c-0.5,0.9-1,1.4-1,2.4
	c0,0.7,0,1.5,0,2.2c0,1,0,1.7-0.1,2.5h0c-0.9,0-1.6,0.1-2.6,0.1c-1.2,0-1.8,0.4-2.9,0.6c-0.7,0.1-1.2,0.1-1.9,0.2
	c-0.4,0.1-0.6,0.4-1,0.4c-0.2,0-0.4-0.1-0.6-0.1c0-1.3,0-2.1,0-3.4c0-1.2,0.4-1.8,0.9-2.9c0.2-0.5,0.5-0.7,0.5-1.2
	c0-0.8-0.8-1.3-1.6-1.5l-61.9,7.4l0,0l-0.7-9.6l0,0l-2.7-36.4c-0.7-1.2-1.2-2.1-1.8-3.3c-0.4-0.2-0.8-0.2-1.3-0.2
	c-0.4,0-0.7,0.1-1-0.1c-0.6-0.4-0.6-1.2-0.8-1.9c-0.3-0.8-0.6-1.2-1.1-1.9c-0.5-0.7-0.5-1.5-0.5-2.3c0-1.5,1.1-2.3,1.1-3.9
	c0-1-0.8-1.4-1.6-2.1c-0.7-0.6-1-1-1.8-1.5c-1-0.5-1.8-1.1-2.6-1.9h0c-0.5-0.6-0.7-1.1-1.3-1.7c-1.6-1.4-3-2.1-3.6-4.1
	c0-0.1,0-0.3,0-0.5C419.7,231.8,419.4,231.4,419.1,230.9L419.1,230.9z"/>
<path fill="#969696" stroke="#FFFFFF" stroke-width="2" stroke-miterlimit="22.9256" d="M332.6,241.3c52.6,0.5,92.3-2.5,92.3-2.5
	l0,0c0.8,0.8,1.7,1.4,2.6,1.9c0.8,0.4,1.1,0.9,1.8,1.5c0.8,0.6,1.6,1.1,1.6,2.1c0,1.5-1.1,2.3-1.1,3.9c0,0.8,0,1.6,0.5,2.3
	c0.4,0.7,0.8,1.1,1.1,1.9c0.3,0.8,0.2,1.5,0.8,1.9c0.3,0.2,0.6,0.1,1,0.1c0.5,0,0.9,0,1.3,0.2c0.7,1.2,1.1,2.1,1.8,3.3l2.7,36.4l0,0
	c0,0-52.2,4-107.6,2.9l0,0L332.6,241.3L332.6,241.3z"/>
<path id="Texas" onclick="notify(this, &quot;select&quot;);" fill="#969696" stroke="#FFFFFF" stroke-width="2" stroke-miterlimit="22.9256" d="
	M451.9,365.8l0.8,19.1c1.3,2.6,1.7,4.2,3.1,6.8c0.5,0.8,0.9,1.2,1.5,1.9c0.5,0.7,0.7,1.2,1.1,1.9c0.3,0.6,0.8,0.8,1.1,1.5
	c0.9,1.6,1.3,2.7,1.3,4.6c0,1.6-0.1,2.6-0.7,4.1c-0.6,1.4-1.6,2.1-1.6,3.6c0,1.8,0.8,2.8,0.8,4.6c0,3.4-0.1,5.3-0.1,8.8
	c0,0.2-0.2,0.3-0.2,0.5c0,0.8,0,1.2-0.1,2v0c-1.7,0.5-2.7,0.9-4.5,1.6c-1.4,0.5-2.3,0.7-3.5,1.5c-1.6,1-2.6,1.7-4.4,2.3
	c-0.9,0.3-1.5,0.3-2.4,0.5c0.5-0.5,1.2-0.8,1.2-1.6c0-0.6-0.1-1.1-0.5-1.5c-0.5-0.4-1-0.4-1.5-0.8c-0.3-0.3-0.1-0.8-0.1-1.3
	c0-0.5,0.2-0.9,0.2-1.4c-1.3,0.7-1.6,1.6-2.7,2.5c-0.2,0.2-0.2,0.4-0.5,0.5c-0.3,0.1-0.6,0.2-1,0.2c0.4,0.7,0.6,1.1,0.6,1.9
	c0,0.9-0.2,1.5-0.2,2.4c-0.1,0.8-0.2,1.3-0.6,1.9c-0.1,0.2,0,0.4-0.1,0.5c-0.1,0.1-0.4,0-0.5,0.1c-0.5,0.5-0.9,0.7-1.3,1.2
	c-0.5,0.7-0.8,1.2-1.2,1.9c-0.5,0.8-0.9,1.1-1.3,1.9c-0.2,0.4-0.2,0.7-0.5,1.1c-0.7,1-1.5,1.2-2.4,1.9c-0.8,0.6-1,1.2-1.8,1.8
	c-0.8,0.6-1.5,0.6-2.4,0.8c-1.3,0.3-2.1,0.5-3.4,0.5c-0.8,0-1.2,0-1.9-0.2c-0.6-0.2-0.8-0.7-1.5-0.7c-0.5,0-0.6,0.5-1,0.7
	c-0.4,0.2-0.7,0.4-1.2,0.4c-0.5,0-0.8-0.3-1.2-0.6l-0.5,0.1c0.1,1.3,0.2,2.4,1.3,3c-1.8,0.6-2.7,1.5-4.4,2.4c0-0.6,0-0.9,0-1.5h-0.8
	c-0.8,0.3-1.6,0.6-1.6,1.5v0.9h1.3c-1.1,0.5-1.5,1.2-2.3,2.1c-0.9,0.9-1.8,1-2.4,2.1c-0.4,0.6-0.5,1-0.8,1.6
	c-0.4-0.7-0.8-1.2-1.5-1.7c-0.3,0.6-0.5,0.9-0.7,1.5c-0.2,0.4-0.5,0.5-0.5,1c0,0.5,0.6,0.6,1.1,0.7c-0.4,0.8-0.8,1.2-1.1,1.9
	c-0.2,0.5-0.2,1.2-0.7,1.2c-0.3,0-0.4-0.2-0.7-0.2c-0.3,0-0.5,0.2-0.7,0.2c-0.5,0.2-1.2,0.2-1.2,0.7c0,0.4,0.2,0.6,0.4,1
	c0.2,0.4,0.5,0.8,1,0.8c0.4,0,0.7-0.4,1-0.6c-0.2,1.3-0.4,2-0.8,3.1c-0.3,0.8-0.6,1.3-0.6,2.2c0,0.5,0.1,0.7,0.1,1.2V470
	c-0.3,0.1-0.5,0.2-0.8,0.2c-0.4,0-0.6-0.2-1-0.2c-0.8,0-1.7,0.6-1.7,1.5c0,1,1.1,1.6,2.1,1.6c0.4,0,0.7-0.1,1-0.4v3.8
	c0,0.9-0.5,1.4-1,2.1c-0.2,0.2-0.5,0.2-0.5,0.5c0,0.8,0.5,1.2,0.7,1.9c0.3,0.9,0.3,1.5,0.5,2.4c0.2,1.1,0.2,1.9,0.7,2.9
	c0.4,0.8,0.8,1.4,1.2,2.2c0.3,0.9,0.7,1.4,0.7,2.4v2.5c0,0.5-0.3,1,0,1.4c0.6,0.8,1.6,0.5,2.7,0.5c0,0.5,0.1,1,0.2,1.4l0,0
	c-1.7,0.4-3.4,0.8-5,1.2c-2,0.5-2.7-1.6-4.6-2.3c-0.7-0.3-1.2-0.2-1.9-0.2c-1.1-0.1-1.8-0.2-2.9-0.2c-1.1-0.1-1.9-0.1-2.9-0.6
	c-0.8-0.4-1.1-1.2-1.9-1.6c-1.8-0.7-3.1,0.1-4.8-0.7c-0.4-0.2-0.6-0.4-1-0.6c-1.5-0.7-2.4-1.1-3.9-1.7c-1.9-0.8-3.5-1.4-4.1-3.4
	c-0.5-1.8-0.2-3.1-1.1-4.8c-0.3-0.6-0.7-0.9-1.1-1.5c-0.7-1.2-1.2-2-1.6-3.4c-0.6-2-0.6-3.3-1.2-5.3c-0.3-1-0.6-1.6-1-2.7
	c-0.3-0.8-0.5-1.2-0.8-1.9c-1.1-1.8-3-1.8-4.5-3.3c-0.5-0.5-0.7-0.9-1.1-1.5c-0.8-1.4-1.6-2-2.4-3.4c-0.8-1.4-1.4-2.1-2.3-3.4
	c-0.8-1.1-1.8-1.5-2.7-2.7c-0.9-1.2-1.2-2-1.8-3.4c-0.8-1.9-1.4-3-2.4-4.8c-0.8-1.4-1.3-2.2-2.3-3.5c-0.5-0.7-1-1.1-1.7-1.5
	c-1-0.6-1.5-1-2.3-1.8c-0.6-0.6-0.8-1.2-1.3-1.9c-0.6-0.7-1.2-1-1.7-1.8c-0.6-0.9-0.7-1.6-1.5-2.4c-1.2-1.3-2.5-1.4-4.2-1.9
	c-1.7-0.5-2.6-1.2-4.4-1.2c-1,0-2.1,0-3.1,0c-1,0-1.8,0.2-2.4,1c-1.3,1.4-2.3,1.6-4.1,2.3c-0.5,0.2-1,0.1-1.5,0.5
	c-0.1,0.1,0,0.4-0.1,0.5c-0.9,1.4-2.1,1.8-2.9,3.1c-0.7,1.1-0.3,2.5-1.5,3c-1.2,0.6-2.5,0.3-3.1,1.4c-0.2,0.3-0.2,0.7-0.4,1
	c-0.2,0.3-0.6,0.1-1,0.1c-0.6,0-0.9-0.3-1.5-0.5c-2.9-1.1-4.2-2.5-6.8-4.2c-0.9-0.6-1.5-1-2.4-1.3c-1.5-0.5-2.5-0.4-3.9-1.2
	c-1.3-0.7-1.3-2-2.2-3.1c-0.9-1.3-1.9-1.6-3.1-2.7c-0.8-0.7-1-1.4-1.6-2.3c-0.5-0.9-1.1-1.4-1.3-2.4c-0.1-0.7,0.1-1.2,0-1.9
	c-0.2-2.8-1.3-4.3-2.5-6.8c-0.4-0.8-0.6-1.2-1-1.9c-0.4-0.8-1-1.1-1.2-1.9c-0.2-0.9-0.1-1.6-0.6-2.4c-0.7-1.3-1.9-1.5-3.1-2.2
	c-1.5-0.8-2-1.8-3.4-2.7c-1.2-0.7-1.7-1.3-2.9-2.1c-0.4-0.2-0.7-0.3-1-0.7c-0.6-1-0.7-1.8-1-3c-0.2-1.2-0.2-2.2-1.1-2.9
	c-1.3-1.1-2.6-0.9-3.9-1.9c-1.1-0.9-1-2.1-1.8-3.3c-0.5-0.7-1.1-1.1-1.9-1.6l0,0c-0.5-0.9-0.8-1.6-1.5-2.4c-0.3-0.3-0.7-0.3-1-0.6
	c-0.6-0.5-0.6-1.2-0.8-1.9l55.7,3.4l1.8-80.9l0,0l43.3,0.8v34.5c1.9,0.3,3,0.4,4.8,0.8c0.8,0.2,1.3,0.4,1.9,0.8
	c0.8,0.6,1,1.8,2.1,1.8c0.2,0,0.3-0.3,0.5-0.4c1.1-0.4,1.7-1,2.9-1c0.2,0,0.1,0.3,0.2,0.5c0.4,0.5,0.6,0.9,1.1,1.3
	c0.7,0.5,1.2,0.8,1.9,1.3c1.3,0.9,2.2,1.6,3.9,1.6c2.8,0,4.4-0.5,7.3-0.5c0.4,0,0.6-0.1,1,0c0.5,0.1,0.5,0.6,1,0.8
	c0.9,0.5,1.6,0.7,2.4,1.3c0.5,0.4,0.6,0.9,0.8,1.5c0.5,1,1.1,1.8,2.2,1.8c0.5,0,0.7-0.4,1.1-0.7c0.6-0.6,1.3-1,2.2-1
	c0.5,0,0.9,0.1,1.2,0.5c0.1,0.2,0.1,0.4,0.2,0.5c0.8,0.6,1.5,0.6,2.4,0.6c0.8,0,1.2-0.1,1.9,0.1c0.6,0.2,1,0.7,1.7,0.7
	c0.5,0,0.4-1,1-1c0.6,0,0.9,0.3,1.5,0.4c2.5,0.4,3.8,0.8,6.3,1.3c0.9,0.2,1.3,0.8,2.2,0.8c0.7,0,1.1-0.2,1.7-0.4
	c1-0.3,1.6-0.5,2.4-1.1c0.4-0.2,0.5-0.6,0.8-0.8c1.1-0.8,2.1-0.5,3.4-1.1c0.6-0.3,0.8-0.8,1.5-1c0.7-0.2,1.2-0.2,1.9-0.2
	c0.7,0.4,1.1,0.7,2,0.7h3.3c1.2,0,1.8,0.5,2.9,1c1.3,0.6,2.1,1.1,3.4,1.7c1.7,0.8,2.9,0.6,4.8,0.6v0c1.6,0.6,2.8,0.8,4.5,0.8
	c1.1,0,1.8-0.1,2.9-0.1L451.9,365.8L451.9,365.8z"/>
<path fill="#969696" stroke="#FFFFFF" stroke-width="2" stroke-miterlimit="22.9256" d="M439.7,303.8l2.8,16.8l1.5,34.1l0,0
	c1.6,0.6,2.8,0.8,4.5,0.8c1.1,0,1.8-0.1,2.9-0.1l0.6,10.4l0,0l42.4-4.3l0,0c0-0.2-0.1-0.4-0.1-0.6c-0.1-0.8,0.1-1.2,0.1-1.9
	c0-0.9-0.3-1.5-0.4-2.4c-0.2-1.8,0-2.9-0.4-4.7c-0.2-0.8-0.7-1.1-0.7-1.9c0-1.2,0.5-1.8,0.8-2.9c0.3-1.1,0.2-1.8,0.4-2.9
	c0.3-2.6,3.4-3.2,3.4-5.8c0-0.5-0.4-0.7-0.4-1.2c0-0.3,0.3-0.5,0.5-0.7c0.6-0.6,1.2-0.9,1.8-1.6c0.8-1,1.5-1.7,1.5-3
	c0-0.5,0-1,0-1.5c0-0.2-0.2-0.3-0.1-0.5c0.1-0.4,0.4-0.6,0.6-1c0.5-0.9,0.6-1.5,1.1-2.4c0.2-0.4,0.7-0.5,1-0.8
	c0.6-0.7,0.9-1.3,1-2.1l0,0c0-0.2,0.1-0.5,0.1-0.8c0-0.6-0.2-0.9-0.1-1.5c0-0.5,0.5-0.6,0.7-1c0.7-1,1.2-1.7,1.3-2.9
	c0.1-1,0.1-1.6,0.6-2.4c0.6-1.1,1.3-1.7,1.3-3c0-0.7,0-1.3,0-2c0-0.4-0.1-0.6,0-0.9c0.3-1.3,1.6-1.6,2.1-2.9c0.2-0.8,0.4-1.4,0.4-2
	h0c-0.9,0-1.6,0.1-2.6,0.1c-1.2,0-1.8,0.4-2.9,0.6c-0.7,0.1-1.2,0.1-1.9,0.2c-0.4,0.1-0.6,0.4-1,0.4c-0.2,0-0.4-0.1-0.6-0.1
	c0-1.3,0-2.1,0-3.4c0-1.2,0.4-1.8,0.9-2.9c0.2-0.5,0.5-0.7,0.5-1.2c0-0.8-0.8-1.3-1.6-1.5L439.7,303.8L439.7,303.8z"/>
<path fill="#969696" stroke="#FFFFFF" stroke-width="2" stroke-miterlimit="22.9256" d="M451.9,365.8l42.4-4.3l0,0
	c0.1,0.5,0.3,1,0.6,1.5c0.4,0.7,0.7,1.1,0.8,1.9c0.2,1.3-0.2,2.1,0.2,3.4c0.7,1.8,0.8,2.9,0.8,4.8c0,0.8,0.2,1.2,0,1.9
	c-0.2,0.8-1,1.1-1.2,1.9c-0.3,1-0.1,1.6-0.1,2.7c0,0.7-0.1,1.1-0.5,1.7c-0.6,1-1.7,1-2.2,2.1c-0.3,0.7,0.3,1.3-0.1,1.9
	c-0.2,0.3-0.7,0.2-1,0.5c-0.2,0.2-0.2,0.4-0.2,0.7c0,0.9,1,1.3,1,2.2c0,0.6-0.4,0.9-0.6,1.5c-0.2,0.6-0.4,0.9-0.7,1.5
	c-0.4,0.6-1,0.9-1,1.7c0,0.9,0.3,1.4,0.6,2.2c0.2,0.8-0.1,1.4,0.2,2.1c0.1,0.2,0.2,0.3,0.4,0.4l25.6-3.9c0.7,0.7,1.9,0.6,1.9,1.6
	c0,1.1-0.1,1.8-0.2,2.9c0,0.3-0.2,0.6-0.2,1c0,0.6,0.5,0.9,1,1.3c1,0.9,1.8,1.4,2.3,2.7c0.6,1.6,0.6,2.7,0.6,4.4l0,0
	c-1.4-0.2-2.3-0.8-3.9-1.2c-1.1-0.3-1.8-0.6-2.9-1c-0.9-0.3-1.6-0.5-2.3-1.2c-0.5,0.3-0.9,0.5-1.5,0.8c-0.5,0.3-0.8,0.8-1.5,1
	c-1.1,0.3-1.8,0.2-2.9,0.2c0.1,1.4,1.3,1.8,1.9,3c0.6,1.2,1.7,1.7,3.1,1.7h3c0.7,0,0.9-0.7,1.4-1.2c0.4-0.5,0.7-0.8,1-1.3
	c0.7,0.4,1.2,0.5,1.9,1c0.4,0.2,0.2,0.7,0.2,1.2c0,0.7-0.4,1-0.6,1.7h1.4c1.5,0,2.3-0.4,3.5-1.1c0.6-0.3,0.9-0.8,1.6-0.8
	c0.5,0,0.5,0.7,1,0.8c0.3,0.1,0.6,0.1,1,0.2c1,0.4,1.2,1.2,1.8,2.1c-0.1,0.2-0.1,0.4-0.2,0.5c-1,0.6-1.8,0.6-2.9,0.8
	c-0.7,0.2-1.2,0.4-1.9,0.4v2.3c0,0.8-0.6,1.1-0.6,2c0,0.6,0.7,0.7,1.2,1c0.9,0.4,1.4,0.8,2.4,1c0.4,0,0.6-0.1,1,0
	c1.6,0.3,2.5,1.2,3.4,2.5c0.3,0.4,0.7,0.7,0.7,1.2c0,0.6-0.4,0.8-0.6,1.3c-0.2,0.6-0.5,0.9-1,1.3c-0.8,0.8-1.1,1.5-2.1,2.1
	c-1.1-1.5-1.5-2.7-3.1-3.6c-1.8-1-3-1.1-4.8-2.1c-0.8-0.4-1.2-0.8-1.9-1.3c-0.8-0.5-1.4-0.8-1.9-1.6c-0.4-0.7-0.5-1.2-0.8-1.9
	c-0.3-0.5-0.9-0.6-1.5-0.8c-0.5-0.3-0.8-0.6-1.5-0.7l-0.5,1.9c0,0.2-0.4,0.2-0.4,0.5c0,0.6,0.8,0.7,1.3,1c0.4,0.2,0.6,0.4,1,0.5
	c0.3,0.1,0.7,0,1,0.2c0.2,0.2,0.2,0.6,0.2,1c0.3,1.7,0.7,2.6,0.7,4.4c0,1-0.9,1.4-1.8,1.8c-0.5,0.3-0.9,0.5-1.5,0.8
	c-0.3,0.2-0.5,0.6-1,0.6c-1.1,0-1.4-1.2-2.4-1.2c-1.1,0-1.7-0.1-2.8-0.1c-0.8,0-1,0.9-1.5,1.6c-0.3,0.5-0.8,0.8-1.3,1
	c-0.4,0.2-0.6,0.4-1,0.4c-1.3,0-1.8-1-2.9-1.6c-0.9-0.5-1.5-0.8-2.4-1.3l0.6-3.3c-0.1-0.5-0.2-0.7-0.2-1.2c-0.2-1.7,0.2-2.7,0-4.4
	c-0.1-1-0.3-1.8-1.1-2.4c-0.6-0.5-1.2-0.5-1.9-0.8c-0.8-0.4-1.1-0.8-1.8-1.5l-0.5,0.1c0.3,1.2,0.3,1.9,0.8,2.9
	c0.6,1.1,1.6,1.3,2.1,2.4c0.1,0.3,0.1,0.6,0.2,1c0.2,0.5,0.5,0.7,0.5,1.2c0,0.3-0.2,0.5-0.2,0.7c-1.5-0.2-2.2-0.8-3.4-1.6
	c-0.4-0.2-0.6-0.5-1-0.7c-0.2-0.2-0.3-0.5-0.6-0.5c-0.5,0-0.7,0.2-1.2,0.2c-0.7-0.2-1.2-0.3-1.9-0.6c-0.4-0.2-0.5-0.6-1-0.6
	c-1.1,0-1.3,1.3-2.3,1.8c-0.2,0.1-0.3,0.3-0.5,0.4c-0.3,0.1-0.8,0-1,0.2c-0.3,0.4-0.1,0.7-0.1,1.2c0,0.5,0.1,0.8,0.2,1.3
	c-3.2,0-5.1,0-8.3,0c-0.9,0-1.4-0.5-2.2-0.6c-1.5-0.2-2.4-0.4-3.9-1c-0.6-0.2-1-0.6-1.7-0.6c-0.8,0-1.4,0.3-2.2,0.5
	c-2.3,0.5-3.6,0.5-5.9,1.1c-0.2,0.1-0.5,0.1-0.7,0.2v0c0.1-0.8,0.1-1.2,0.1-2c0-0.2,0.2-0.3,0.2-0.5c0-3.4,0.1-5.3,0.1-8.8
	c0-1.8-0.8-2.7-0.8-4.6c0-1.5,0.9-2.2,1.6-3.6c0.7-1.5,0.7-2.5,0.7-4.1c0-1.9-0.4-3-1.3-4.6c-0.3-0.6-0.8-0.8-1.1-1.5
	c-0.4-0.7-0.6-1.2-1.1-1.9c-0.5-0.8-1-1.1-1.5-1.9c-1.4-2.5-1.8-4.2-3.1-6.8L451.9,365.8L451.9,365.8z"/>
<path fill="#969696" stroke="#FFFFFF" stroke-width="2" stroke-miterlimit="22.9256" d="M316.9,305.9l-1.8,80.9l-55.7-3.4
	c0.2,0.8,0.3,1.4,0.8,1.9c0.3,0.3,0.7,0.3,1,0.6c0.7,0.8,1,1.5,1.5,2.4l0,0l-25.7-2.1l-0.7,8.5l-14.8-1.7l0,0l9.5-103.3l0,0
	c29.9,3.1,58.5,5.4,86,6.8l0,0V305.9L316.9,305.9z"/>
<path fill="#969696" stroke="#FFFFFF" stroke-width="2" stroke-miterlimit="22.9256" d="M316.9,296.6v9.3v0l43.3,0.8v34.5
	c1.9,0.3,3,0.4,4.8,0.8c0.8,0.2,1.3,0.4,1.9,0.8c0.8,0.6,1,1.8,2.1,1.8c0.2,0,0.3-0.3,0.5-0.4c1.1-0.4,1.7-1,2.9-1
	c0.2,0,0.1,0.3,0.2,0.5c0.4,0.5,0.6,0.9,1.1,1.3c0.7,0.5,1.2,0.8,1.9,1.3c1.3,0.9,2.2,1.6,3.9,1.6c2.8,0,4.4-0.5,7.3-0.5
	c0.4,0,0.6-0.1,1,0c0.5,0.1,0.5,0.6,1,0.8c0.9,0.5,1.6,0.7,2.4,1.3c0.5,0.4,0.6,0.9,0.8,1.5c0.5,1,1.1,1.8,2.2,1.8
	c0.5,0,0.7-0.4,1.1-0.7c0.6-0.6,1.3-1,2.2-1c0.5,0,0.9,0.1,1.2,0.5c0.1,0.2,0.1,0.4,0.2,0.5c0.8,0.6,1.5,0.6,2.4,0.6
	c0.8,0,1.2-0.1,1.9,0.1c0.6,0.2,1,0.7,1.7,0.7c0.5,0,0.4-1,1-1c0.6,0,0.9,0.3,1.5,0.4c2.5,0.4,3.8,0.8,6.3,1.3
	c0.9,0.2,1.3,0.8,2.2,0.8c0.7,0,1.1-0.2,1.7-0.4c1-0.3,1.6-0.5,2.4-1.1c0.4-0.2,0.5-0.6,0.8-0.8c1.1-0.8,2.1-0.5,3.4-1.1
	c0.6-0.3,0.8-0.8,1.5-1c0.7-0.2,1.2-0.2,1.9-0.2c0.7,0.4,1.1,0.7,2,0.7h3.3c1.2,0,1.8,0.5,2.9,1c1.3,0.6,2.1,1.1,3.4,1.7
	c1.7,0.8,2.9,0.6,4.8,0.6l0,0l-1.5-34.1l-2.8-16.8l0,0l-0.7-9.6l0,0c0,0-52.2,4-107.6,2.9l0,0L316.9,296.6L316.9,296.6z"/>
<path fill="#969696" stroke="#FFFFFF" stroke-width="2" stroke-miterlimit="22.9256" d="M238.3,217.6l-7.4,72.2l0,0
	c-22.9-3-46.4-6.8-71.1-11.1l0,0l13.7-89.5l0,0L213,196l0,0l-2.4,18.1L238.3,217.6L238.3,217.6z"/>
<path fill="#969696" stroke="#FFFFFF" stroke-width="2" stroke-miterlimit="22.9256" d="M238.3,217.6c24.3,2.7,46.9,4.7,67.8,5.8
	l0,0l26.7,1.2l-0.2,16.7v0l-1.2,55.9l0,0l-14.5-0.6l0,0c-27.5-1.4-56.1-3.7-86-6.8h0L238.3,217.6L238.3,217.6z"/>
<path fill="#969696" stroke="#FFFFFF" stroke-width="2" stroke-miterlimit="22.9256" d="M563,189.2l16.8-4.1l0,0
	c0,0.9,1.2,1.1,2.1,1.3c0.9,0.3,1.5,0.6,2.4,0.6h3.8c0.7,0,0.6,1,0.9,1.6c0.2,0.3,0.4,0.5,0.7,0.7c0.7-0.5,1.3-0.5,2.1-0.7
	c0.2-0.1,0.3-0.3,0.5-0.4c1.5-0.6,2.4-1.1,3.9-1.8c2.4-1.2,3.5-2.5,6-3.3c2-0.5,2.7-2,4-3.5c0.6-0.8,1.3-0.9,1.9-1.7
	c1-1.2,1.8-1.8,3-2.7c0.8-0.6,1.1-1.2,1.9-1.8c0.4-0.3,0.7-0.3,1.1-0.5c1.3-0.7,1.7-1.5,2.9-2.3c0.1-0.1,0.2-0.1,0.3-0.2v0l5,21.9v0
	c-0.3,0.2-0.7,0.3-0.9,0.6c-0.2,0.3,0,0.6,0,1c0,0.8,0,1.7,0,2.5c0,2.5,0.1,4,0.2,6.5c0.1,1,0.2,1.5,0.2,2.5c0,2-0.2,3.1-0.7,5.1
	c-0.7,3-0.9,5.4-3.5,7c-1.1,0.7-2.6-0.3-3.4,0.7c-1,1.3-0.1,2.7-0.8,4.1c-0.2,0.4-0.6,0.5-0.6,1c0,0.6,0.5,0.8,0.5,1.5
	c0,0.6-0.2,0.9-0.5,1.5c-0.4,0.7-0.3,1.4-0.6,2.2c-0.2,0.5-0.4,1.2-1,1.2c-0.6,0-0.7-0.6-1-1.1c-0.3-0.5-0.1-1.3-0.7-1.5
	c-0.7-0.2-1.2,0.8-1.2,1.6c0,1,0,2.1,0,3.1c0,1.8-0.1,3-1,4.5c-0.5,0.8-0.9,1.2-1.6,1.8c-0.8,0.7-1,1.7-2.1,1.7l0,0
	c-1,0-1.7-0.4-2.4-1.1c-0.3-0.3-0.2-0.7-0.5-1c-0.2-0.3-0.6-0.4-1-0.6c-0.9-0.4-1.5-0.6-2.4-1.1c-0.8-0.5-1-1.3-1.9-1.3
	c-1.1,0-1.1,1.3-1.9,1.9c-0.8,0.7-1.6,1-2.7,1c-0.7,0-1,0-1.7-0.1c-0.3,0-0.4-0.4-0.7-0.4c-1,0-1.4,1.1-2.4,1.1
	c-0.7,0-1.1-0.5-1.7-0.7c-0.6-0.2-1-0.2-1.7-0.2c-1.2,0-2,0.4-3.2,0.4c-0.4,0-0.7,0-1-0.1c-0.9-0.3-0.8-1.7-1.7-1.7
	c-0.8,0-1.1,0.1-1.9,0.1c-0.9,0-1.3-0.5-2.2-0.5c-0.5,0-0.9,0.1-1.2,0.4l0,0L563,189.2L563,189.2z"/>
<path fill="#969696" stroke="#FFFFFF" stroke-width="2" stroke-miterlimit="22.9256" d="M603.9,240c1,0,1.3-1,2.1-1.7
	c0.7-0.6,1.1-1,1.6-1.8c0.8-1.5,1-2.7,1-4.5c0-1,0-2.1,0-3.1c0-0.8,0.5-1.8,1.2-1.6c0.6,0.1,0.5,0.9,0.7,1.5c0.2,0.5,0.4,1.1,1,1.1
	c0.6,0,0.8-0.7,1-1.2c0.3-0.8,0.2-1.5,0.6-2.2c0.3-0.5,0.5-0.8,0.5-1.5c0-0.6-0.5-0.8-0.5-1.5c0-0.4,0.4-0.6,0.6-1
	c0.7-1.5-0.2-2.8,0.8-4.1c0.8-1.1,2.3,0,3.4-0.7c2.6-1.6,2.8-4.1,3.5-7c0.5-1.9,0.7-3.1,0.7-5.1c0-1-0.2-1.5-0.2-2.5
	c-0.2-2.5-0.2-4-0.2-6.5c0-0.8,0-1.7,0-2.5c0-0.4-0.2-0.7,0-1c0.2-0.3,0.5-0.5,0.9-0.6v0l4.5,18.5l14.3-4.4l0,0l1.8,7.1
	c1.1-0.8,1.3-1.7,2.2-2.7c1-1,2.3-0.8,3.3-1.8c1.1-1.1,1.4-2.1,2.7-3l1,0.2h2.4c0.7,0,1.1-0.4,1.5-1c0.4-0.5,0.6-0.9,1-1.5
	c0.3-0.5,0.5-1,1.1-1.2c0.3-0.1,0.6,0,1,0c1.2-0.2,1.9-0.4,3.1-0.4c1.1,0,1,1.4,1.8,2.1c0.4,0.4,0.9,0.1,1.5,0.1c0.1,0,0.2,0,0.4,0
	h0c-0.1,1.1-0.2,1.8-0.5,2.9c-0.2,0.7-0.2,1.7-1,1.7c-0.4,0-0.6-0.5-1-0.6c-0.5-0.2-0.9-0.2-1.5-0.4c-0.9-0.2-1.5-0.5-2.4-0.5
	c-0.4,0-0.3,0.6-0.5,1c-0.1,0.2-0.3,0.3-0.4,0.5c-0.3,0.5-0.6,0.8-0.7,1.5c-0.1,0.3,0,0.6,0,1c-0.1,0.8-0.5,1.3-0.7,2.1
	c-0.7,2.2-1.6,3.3-2.7,5.3c-0.4,0.8-0.5,1.5-1.3,1.8c-0.3,0.1-0.7-0.2-1,0c-0.3,0.2-0.1,0.6-0.2,1c-0.2,0.6-0.3,0.9-0.6,1.5
	c-0.5,1-1,1.5-1.6,2.4c-0.6,1.1-1.2,2.1-2.4,2.1c-0.8,0-1.2-0.2-1.9-0.4c-0.9,2.3-2.2,3.4-3.1,5.7c-0.5,1.1-0.5,1.9-1.1,3
	c-1,2-1.8,3-2.8,5c-0.5,1.1-1.1,1.7-1.1,2.9c0,0.6,0.3,0.9,0.4,1.5c0.2,1,0.1,1.7,0.2,2.7c0.1,0.7,0.5,1.1,0.5,1.9v1.8
	c-0.8-0.1-1.2-0.1-1.9,0.1h-0.6c-0.9,0.3-1.5,0.4-2.4,0.8c-1,0.5-1.4,1.1-2.4,1.5c-1.5,0.5-2.4,0.6-3.9,1.1c-1.3,0.4-2,0.9-3.4,0.8
	c0,0.5-0.2,0.8-0.2,1.2v3c-0.8-0.2-1.3-0.2-2-0.5c-0.5-0.2-0.5-0.5-1-0.7c-0.9-0.5-1.5-0.8-2.4-1.2c-1-0.4-1.8-0.7-2.3-1.6
	c-0.5-0.9-0.5-1.8-1.3-2.4c-0.3-0.2-0.9,0-1.2-0.1l0,0c-0.5-0.1-1.1-0.1-1.7-0.2c-1.5-0.4-2.1-1.2-3.3-2.3c-0.2-0.1-0.1-0.4-0.2-0.5
	c-0.2-0.1-0.3-0.1-0.5-0.2c-0.6-0.6-0.9-1.1-1.2-1.9c-0.1-0.3-0.1-0.6-0.2-1c-0.3-0.8-0.7-1.1-1-1.9
	C604.6,244,604.6,241.8,603.9,240L603.9,240z"/>
<path fill="#969696" stroke="#FFFFFF" stroke-width="2" stroke-miterlimit="22.9256" d="M694.4,189.7l0.2,2.7l0.1,1.1l0,0
	c1,0.2,1.5,0.6,2.4,1c1.5,0.6,2.4,0.8,3.9,1.2c0.7,0.2,1.4,0,1.9,0.5c0.7,0.6,0.3,1.5,0.4,2.5c0.1,0.8,0.3,1.2,0.5,1.9
	c0.4-0.6,0.9-0.8,1.2-1.5c0.8-1.6,0.7-2.7,1.2-4.4c0.5-1.5,1.2-2.3,1.6-3.9c0.4-1.5,0.2-2.4,0.4-3.9c0-0.6,0.3-0.9,0.5-1.5
	c0.3-1.1,0.3-1.8,0.4-2.9c0.3-3.6,2.2-5.3,2.2-8.9c0-0.5,0-0.8-0.1-1.2c0-0.2,0.1-0.4,0-0.5c-0.1-0.2-0.3-0.2-0.5-0.2
	c-0.6-0.3-1.2-0.2-1.9-0.2c-0.9,0-1.5-0.2-2.4-0.2c0-0.3-0.1-0.5-0.1-0.9c0-1.9,0-3.1,0.7-4.8c0.3-0.8,0.8-1.1,1-1.9
	c0.2-0.7,0.2-1.3,0.5-1.9c0.5-1,1-1.5,1.6-2.4c0.2-0.3,0.4-0.7,0.6-0.9l0,0c-1.8,0.5-2.8,0.4-4.7,0.6c-0.8,0.1-1.3,0.2-2.2,0.2
	c-1.6,0-2.6-0.2-4.1-0.5c-1.8-0.4-3.7-0.2-4.8-1.7l0,0c-0.5,1.9-0.7,3-1.3,4.8c-0.5,1.5-1.5,2.3-1.5,3.9c0,1.1,0.8,1.6,0.8,2.7
	c0,0.8-0.1,1.4-0.2,2.2c-0.1,0.4-0.4,0.6-0.4,1c0,0.2,0.3,0.3,0.4,0.5c0.2,0.6,0.7,0.9,1.2,1.2c0.7,0.4,1.2,0.7,1.9,1.1
	c0.8,0.4,1.1,0.9,1.9,1.3c0.7,0.4,1.7,0.4,1.7,1.2c0,0.6-0.3,0.9-0.4,1.5c-0.2,0.9-0.4,1.5-0.6,2.4c-0.7,2.4-1.3,3.7-2.4,5.9
	c-0.4,0.8-0.8,1.2-1.1,1.9C694.5,189.2,694.6,189.2,694.4,189.7L694.4,189.7z"/>
<path fill="#969696" stroke="#FFFFFF" stroke-width="2" stroke-miterlimit="22.9256" d="M641.1,206.6l48.2-15.4l5.1-1.6
	c0.2-0.5,0.1-0.5,0.4-1.1c0.3-0.8,0.7-1.2,1.1-1.9c1.1-2.2,1.8-3.6,2.4-5.9c0.2-0.9,0.5-1.5,0.6-2.4c0.1-0.5,0.4-0.9,0.4-1.5
	c0-0.8-1-0.8-1.7-1.2c-0.8-0.4-1.1-0.9-1.9-1.3c-0.7-0.4-1.2-0.7-1.9-1.1c-0.5-0.3-1-0.6-1.2-1.2c-0.1-0.2-0.4-0.2-0.4-0.5
	c0-0.4,0.3-0.6,0.4-1c0.2-0.8,0.2-1.3,0.2-2.2c0-1.1-0.8-1.6-0.8-2.7c0-1.6,0.9-2.4,1.5-3.9c0.7-1.8,0.9-3,1.3-4.8v0
	c-1.5-0.6-3-0.2-4.1-1.3c-0.7-0.7-0.8-1.5-1.3-2.4c-0.3-0.6-0.8-0.9-1.1-1.5c-0.3-0.5-0.4-1.1-1-1.5c-0.8-0.4-1.5-0.4-2.4-0.7
	c-0.5-0.2-0.8-0.4-1.5-0.5c-18.9,6.6-39.7,13-62.8,19.3l0,0c-0.9,0.8-1.9,1.3-3.1,2v0l5,21.9v0l4.5,18.5L641.1,206.6L641.1,206.6z"
	/>
<path fill="#969696" stroke="#FFFFFF" stroke-width="2" stroke-miterlimit="22.9256" d="M728.8,131.8c0.8-0.2,1.5-0.7,2.3-0.8
	c0.3-0.1,0.6,0.1,1,0c1-0.2,1.4-0.8,2.4-0.8c0.3,0,0.3,0.3,0.5,0.5c0.3,0.3,0.5,0.5,0.8,0.8c0.8,0.8,1.4,1.1,2.3,1.7
	c1.1,0.7,1.5,1.7,1.5,3v0c1.1-0.2,2-0.4,2.8-1.3c0.6-0.6,0.5-1.2,1-1.9c0.4-0.8,0.7-1.2,1.2-1.9c0.6,0.6,1,1,1.6,1.7
	c1.3-0.7,1.6-1.7,2.7-2.7c0.7-0.6,1.4-0.6,1.9-1.3c0.4-0.5,0.6-0.9,1-1.5c0.3-0.4,0.7-0.5,1-0.8c0.6-1,1-1.7,1-2.9
	c0-1.3-1.5-1.6-2.7-2.1c-1.3-0.5-1.9-1-3.3-1.5c0.3,1.3,0.4,2.3,1.5,3c0.1,0.1,0.4,0,0.5,0.1c0.5,0.5,0.6,1,0.6,1.7
	c0,0.9,0,1.5-0.6,2.2c-0.5,0.6-1.2,0.6-1.9,0.8c-1,0.3-1.6,0.6-2.7,0.6c-0.9,0-1.5-0.5-2.1-1.1c-0.4-0.5-0.9-0.8-1.2-1.3
	c-0.5-0.9-0.8-1.5-1.3-2.4c-0.3-0.5-0.6-1-1.1-1.3c-0.1-0.1-0.2-0.3-0.4-0.3c-0.5,0-0.9,0.1-1.4,0.1c-1.7,0-2.1-2.1-2.1-3.7
	c0-0.8-0.1-1.4,0.1-2.2c0.3-1.1,1.1-1.4,1.6-2.4c-1-0.7-1.8-0.8-2.9-1.3c-0.3-0.2-0.8-0.2-0.8-0.6v0c-0.7,1-1.8,1.4-2.5,2.4
	c-0.8,1-1.1,1.8-1.7,2.9l-13.1,5.3l0,0l-10.6,3.1l0,0l0.2,3l0.4,3.9v2.4c0,1.1,0.4,1.8,0.6,2.9c0.1,0.7,0.5,0.8,0.6,1.6h0
	L728.8,131.8L728.8,131.8z"/>
<path fill="#969696" stroke="#FFFFFF" stroke-width="2" stroke-miterlimit="22.9256" d="M732.5,142c-0.8,0.3-1.3,0.7-2.1,1.2
	c-0.9,0.6-1.6,1-2.4,1.7c-0.4,0.3-0.5,0.7-1,1c-1.8,1.2-3,1.6-4.8,2.7c-1.1,0.6-1.7,1.1-2.9,1.6c-1.5,0.6-2.3,1.1-3.4,2.2
	c-0.6,0.6-0.9,1.1-1.5,1.7c-0.5,0.5-1,0.6-1.5,1.1c-0.4,0.4-0.8,0.9-1.1,1.3v0c-0.3-0.9-0.3-1.8-0.3-2.7c-0.7-2.1-0.7-3.6-1.5-5.6
	c-0.5-1.4-1.2-2-1.7-3.4c-0.2-0.5-0.2-0.9-0.4-1.5c-0.5-1.4-0.7-2.4-0.7-3.9l0,0l21.4-7.5v0L732.5,142L732.5,142z"/>
<path fill="#969696" stroke="#FFFFFF" stroke-width="2" stroke-miterlimit="22.9256" d="M728.8,131.8l3.8,10.2l0,0
	c0.1,0,0.2-0.1,0.3-0.1c0.3-0.1,0.6-0.1,1-0.2c0.2-0.1,0.3-0.3,0.5-0.5c0.4-0.4,0.8-0.8,1-1.3c0.3-0.9,0-1.5,0.2-2.4
	c0.4-1.3,1.1-2,1.1-3.4c0.6,0.3,0.9,0.4,1.5,0.7c0.2,0.1,0.4,0,0.5,0.1c0.4,0.4,0.3,0.9,0.5,1.5c0.2,0,0.4-0.1,0.6-0.1v0
	c-0.1-1.4-0.4-2.3-1.5-3c-0.9-0.5-1.5-0.9-2.3-1.7c-0.3-0.3-0.5-0.6-0.8-0.8c-0.2-0.2-0.2-0.5-0.5-0.5c-1,0-1.5,0.7-2.4,0.8
	c-0.3,0.1-0.6-0.1-1,0C730.3,131.1,729.5,131.6,728.8,131.8L728.8,131.8z"/>
<path fill="#969696" stroke="#FFFFFF" stroke-width="2" stroke-miterlimit="22.9256" d="M717,72.7l12.9,33.7c1.4,0.8,2.9,1,4.3,1.6
	l0,0c0-0.1,0-0.1,0-0.2c0.5-3,0.5-4.9,1.7-7.7c0.3-0.8,0.8-1.2,1.1-1.9c0.8-1.8,0.9-2.9,1.1-4.8c0.9-1.5,1.9-1.9,3.4-2.9
	c1.6-1.1,1.9-2.3,2.9-4c0.4-0.8,0.8-1.4,1.6-1.7c0.3-0.1,0.7-0.1,1-0.2c0.5-0.3,0.7-0.8,0.8-1.5c0.3-1.1,0.2-1.8,0.4-2.9
	c0.1-0.5,0.4-0.8,0.4-1.4v-2.4l-0.8-2.4c0.5-0.1,0.9-0.2,1.5-0.4c0.2,0,0.2-0.4,0.5-0.4c0.6,0,0.7,0.8,1,1.3
	c0.3,0.5,0.5,0.9,0.7,1.5c1-0.3,1.8-0.2,2.4-1.1c0.2-0.3,0-0.6,0.1-1c0.2-0.6,0.5-0.9,0.8-1.5c0.4-0.5,0.6-0.9,1-1.5
	c0.2-0.2,0.2-0.5,0.5-0.5c0.5,0,0.7,0.5,1.2,0.7c0.2,0.1,0.3,0,0.5,0c0.5-0.9,0.4-1.6,1-2.4c0.7-1.1,1.6-1.5,2.5-2.4
	c0.5-0.5,0.8-0.8,1.3-1.2c1.6-1.2,2.1-2.4,3-4.1c0.5-1.1,1.1-1.7,1.1-2.9c0-0.6,0-1-0.4-1.5c-0.4-0.5-1-0.5-1.5-1
	c-0.4-0.4-0.4-0.9-0.6-1.5c-0.2-0.7-0.8-0.9-1.3-1.3l0,0c-1.2-0.2-1.9-1.1-3-1.5c-0.7-0.2-1.4-0.1-1.9-0.6c-0.3-0.3-0.4-0.6-0.6-1
	c-0.9-1.5-1.4-2.6-2.9-3.5c-0.7-0.4-1.1-0.6-1.9-0.7c-0.5-0.1-1.1,0.2-1.5-0.2c-0.4-0.4-0.2-0.9-0.4-1.5c-0.7-2-1.8-2.9-2.5-4.8
	c-0.5-1.3-0.5-2.1-1-3.4c-0.9-2.4-1.6-3.8-2.4-6.3c-0.4-1.1-0.7-1.8-1.2-2.9c-0.3-0.5-0.4-1.1-0.8-1.5c-0.8-0.6-1.5-0.5-2.4-0.8
	c-1.4-0.5-2.1-1.2-3.6-1.2c-0.9,0-1.3,0.8-1.7,1.6c-0.3,0.5-0.5,0.9-0.8,1.5c-1.2,0.8-2.4,0.5-3.5,1.5c-0.2,0.1-0.1,0.3-0.2,0.5
	c-0.9,1.1-1.6,1.6-2.8,2.4c-1.2-1.6-2.7-1.9-3.9-3.5c0,1.8-1.3,2.6-1.6,4.4c-0.3,1.7-0.6,2.7-1,4.4c-0.3,1.5-0.2,2.4-0.5,3.9
	c-0.3,2.1-0.6,3.4-0.6,5.6c0,3.7,0.5,5.8,0.8,9.5v3c0,1.5-0.2,2.4-0.5,3.9c-0.2,1-0.5,1.5-1,2.4c-0.2,0.4-0.5,0.5-0.7,1
	c-0.1,0.2-0.4,0.2-0.4,0.5c0,0.8,1.1,0.8,1.1,1.6c0,1-0.4,1.5-0.5,2.5c-0.1,0.8,0.2,1.2,0,1.9c0,0.2-0.3,0.2-0.5,0.4
	c-0.5,0.4-0.9,0.7-1.5,0.8C717.1,72.7,717,72.7,717,72.7L717,72.7z"/>
<path fill="#969696" stroke="#FFFFFF" stroke-width="2" stroke-miterlimit="22.9256" d="M705.5,125.5l10.6-3.1l0,0
	c-0.5-0.9-1-1.4-1.2-2.4c-0.3-1.1-0.1-1.8-0.2-2.9c-0.2-1.1-0.5-1.8-1-2.9c-0.6-1.4-0.6-2.4-0.8-3.9c-0.3-1.8-1-2.8-1-4.6
	c0-0.7,0.2-1.1,0.4-1.7c0.3-1.1,0.1-1.8,0.2-2.9c0.1-0.9,0.4-1.5,0.4-2.4v-2.4l0.5-2.4c-0.1-0.5-0.5-0.7-0.5-1.2
	c0-1.2,0.9-1.6,1.5-2.7c0.4-0.7,0.5-1.2,0.8-1.9c0.5-0.9,1-1.4,1-2.4c0-1.5-1.7-1.6-2.3-2.9c-0.7-1.4-0.5-2.7-1.1-4.1l0,0l-21.2,8.2
	l0,0c0,1.5,0.3,2.4,0.8,3.9c0.2,0.9,0.1,1.5,0.4,2.4c0.2,0.6,0.6,0.9,1,1.5c1.1,1.7,1.6,2.8,1.9,4.8c0.4,2.5,1.5,3.8,2.1,6.3
	c0.2,1.2,0.6,1.8,1.2,2.9c0.8,1.3,1.4,2.1,2.8,2.8l3.5,12C705.3,124.3,705.5,124.6,705.5,125.5L705.5,125.5z"/>
<path fill="#969696" stroke="#FFFFFF" stroke-width="2" stroke-miterlimit="22.9256" d="M717,72.7l12.9,33.7c1.4,0.8,2.9,1,4.3,1.6
	l0,0c-0.2,1-0.3,1.7-0.5,2.7c0,0.3-0.2,0.6-0.2,1v0c-0.7,1-1.8,1.4-2.5,2.4c-0.8,1-1.1,1.8-1.7,2.9l-13.1,5.3l0,0
	c-0.5-0.9-1-1.4-1.2-2.4c-0.3-1.1-0.1-1.8-0.2-2.9c-0.2-1.1-0.5-1.8-1-2.9c-0.6-1.4-0.6-2.4-0.8-3.9c-0.3-1.8-1-2.8-1-4.6
	c0-0.7,0.2-1.1,0.4-1.7c0.3-1.1,0.1-1.8,0.2-2.9c0.1-0.9,0.4-1.5,0.4-2.4v-2.4l0.5-2.4c-0.1-0.5-0.5-0.7-0.5-1.2
	c0-1.2,0.9-1.6,1.5-2.7c0.4-0.7,0.5-1.2,0.8-1.9c0.5-0.9,1-1.4,1-2.4c0-1.5-1.7-1.6-2.3-2.9c-0.7-1.4-0.5-2.7-1.1-4.1l0,0
	c-0.1-0.5-0.2-0.7-0.2-1.2c0-0.9,0.3-1.4,0.7-2.2c0.4-0.8,0.6-1.5,1.5-1.8C715.6,73.1,716.2,73,717,72.7L717,72.7z"/>
<path fill="#969696" stroke="#FFFFFF" stroke-width="2" stroke-miterlimit="22.9256" d="M709.4,166.1v1l0.5,0.1
	c1.8-1.1,3-1.5,4.8-2.5c1.6-0.9,2.3-2,3.9-3c1.1-0.7,1.8-1.1,2.9-1.8c0.8-0.5,1.1-1.1,1.7-1.8c0.6-0.7,1.3-0.9,1.9-1.6
	c0.6-0.6,0.9-1.1,1.6-1.7c1.1-1,1.9-1.4,2.9-2.4c0.9-1,2.2-1.3,2.2-2.7c0-0.2-0.1-0.3-0.1-0.5c-0.2,0.1-0.4-0.1-0.6,0
	c-1.5,1.1-2,2.5-3.7,3.1c-0.7,0.3-1.3,0.3-1.9,0.6c-0.8,0.4-1.1,1-1.9,1.3c-1.7,0.7-2.7,1.2-4.5,1.7c-2.8,0.7-4.1,2.1-6.3,4
	c-1.3,1.1-1.9,2.1-2.5,3.7C709.8,164.6,709.4,165.1,709.4,166.1L709.4,166.1z M711.9,156.3c-0.5,0.7-0.9,1.4-1.4,2.1l0,0
	c-1.8,0.5-2.8,0.4-4.7,0.6c-0.8,0.1-1.3,0.2-2.2,0.2c-1.6,0-2.6-0.2-4.1-0.5c-1.8-0.4-3.7-0.2-4.8-1.7v0c-1.5-0.6-3-0.2-4.1-1.3
	c-0.7-0.7-0.8-1.5-1.3-2.4c-0.3-0.6-0.8-0.9-1.1-1.5c-0.3-0.5-0.4-1.1-1-1.5c-0.8-0.4-1.5-0.4-2.4-0.7c-0.5-0.2-0.8-0.4-1.5-0.5
	c-18.9,6.6-39.7,13-62.8,19.3l0,0c0.3-0.3,0.7-0.7,1-1.1c1.5-2.1,2.4-3.4,4.5-5c0.6-0.5,1-0.6,1.6-1.1c0.7-0.6,1-1.1,1.6-1.8
	c0.3-0.4,0.7-0.5,1.1-0.8c0.8-0.7,1.1-1.3,1.7-2.2c1.2-1.6,2.2-2.3,3.3-4c0.4-0.7,1-1.1,1-1.9c0-0.5-0.5-0.6-0.8-1
	c-0.4-0.5-0.7-0.9-1.1-1.5c-0.1,0.1-0.2,0.1-0.3,0.1l0,0c-1.5-2-2.1-3.5-2.8-5.9h0c1.2-0.4,1.9-0.7,3-1.2c1.3-0.6,2.1-0.9,3.4-1.6
	c1.5-0.7,2.3-1.2,3.9-1.6c1.2-0.3,1.9-0.7,3.1-0.7c0.9,0,1.3,0.6,2.2,0.6c1.3,0,2-0.4,3.1-0.8c0.8-0.3,1.4-0.3,2.2-0.7
	c2.1-1,3-2,5.2-2.7c0.8-0.2,1.4-0.5,2.2-1c0.6-0.3,1.1-0.4,1.5-1c0.3-0.5,0.5-0.9,1-1.2c1.1-0.7,1.9-0.8,2.9-1.7
	c0.7-0.6,1.6-0.9,1.6-1.8c0-0.5-0.5-0.5-0.8-0.8c-0.5-0.5-0.7-0.9-1.1-1.5c-0.5-0.7-1-1.1-1-1.9c0-0.2,0.4-0.1,0.5-0.2
	c0.4-0.5,0.7-0.9,0.7-1.6v-2.9c-0.2,0-0.3-0.2-0.5-0.2c-0.7,0-1,0.5-1.7,0.5c-0.9,0-1.5-0.2-2.3-0.7c-0.4-0.2-0.8-0.5-0.8-1
	c0-0.8,0.7-1.2,1.1-1.9c0.8-1.4,1.7-1.9,2.7-3.1c0.6-0.8,1-1.5,1.5-2.4c0.4-0.8,0.8-1.3,0.8-2.2c0-0.3-0.1-0.6-0.3-0.7l0,0
	c1.4-3.5,2.5-5.5,4.4-8.8c1.2-2.1,2.6-3,4.7-4.4c0.9-0.5,2-0.2,2.9-0.6l14.6-5.7l0,0c0,1.5,0.3,2.4,0.8,3.9c0.2,0.9,0.1,1.5,0.4,2.4
	c0.2,0.6,0.6,0.9,1,1.5c1.1,1.7,1.6,2.8,1.9,4.8c0.4,2.5,1.5,3.8,2.1,6.3c0.2,1.2,0.6,1.8,1.2,2.9c0.8,1.3,1.4,2.1,2.8,2.8l3.5,12
	c0.1,0.9,0.3,1.2,0.4,2.2l0,0l0.2,3l0.4,3.9v2.4c0,1.1,0.4,1.8,0.6,2.9c0.1,0.7,0.5,0.8,0.6,1.6h0c0,1.5,0.3,2.4,0.7,3.9
	c0.2,0.5,0.2,0.9,0.4,1.5c0.5,1.4,1.2,2,1.7,3.4c0.7,2,0.8,3.5,1.5,5.6C711.6,154.5,711.6,155.4,711.9,156.3L711.9,156.3z"/>
<path fill="#969696" stroke="#FFFFFF" stroke-width="2" stroke-miterlimit="22.9256" d="M689.3,191.3l5.1-1.6l0,0l0.2,2.7l0.1,1.1
	l0,0c0.1,0.6,0.3,0.9,0.5,1.5c0.5,1.8,0.2,3.2,1.2,4.8c0.1,0.2,0.3,0.2,0.5,0.4c0.8,0.8,1.4,1.2,2.4,1.8c0.9,0.5,1.5,0.8,2.4,1.2
	c0.7,0.3,1.2,0.6,1.5,1.3c0.2,0.7,0.1,1.2,0.2,1.9c0.2,0.9,0.6,1.4,0.6,2.4v1.5l0,0l-7.5,2.3L689.3,191.3L689.3,191.3z"/>
<path fill="#969696" stroke="#FFFFFF" stroke-width="2" stroke-miterlimit="22.9256" d="M641.1,206.6l1.8,7.1
	c1.1-0.8,1.3-1.7,2.2-2.7c1-1,2.3-0.8,3.3-1.8c1.1-1.1,1.4-2.1,2.7-3l1,0.2h2.4c0.7,0,1.1-0.4,1.5-1c0.4-0.5,0.6-0.9,1-1.5
	c0.3-0.5,0.5-1,1.1-1.2c0.3-0.1,0.6,0,1,0c1.2-0.2,1.9-0.4,3.1-0.4c1.1,0,1,1.4,1.8,2.1c0.4,0.4,0.9,0.1,1.5,0.1c0.1,0,0.2,0,0.4,0
	h0c0.7,0,1.3,0.2,2.1,0.4c0.5,0.1,1-0.1,1.5,0.2c0.3,0.2,0.3,0.6,0.5,1c0.5,1,0.8,2.1,1.9,2.3c1.4,0.3,2,1,3.4,1h2.3v1
	c0,0.9-0.2,1.5-0.2,2.4c-0.1,0.9,0,1.5-0.2,2.4c-0.4,1.4-1,2.1-1.5,3.4c-0.1,0.4-0.4,0.5-0.4,0.9v1c0.3,0,0.4,0.1,0.7,0.1
	c1.1,0,1.6-0.3,2.7-0.4c1.1-0.1,1.8,0.2,2.9,0.1c2.1-0.1,3.3-0.1,5.3-0.6v0l0.2-0.5c0.8,0,1.3-0.1,2.1-0.4c0.4-0.2,1-0.4,1-0.8
	c0-1.5-1.8-1.6-3-2.5c-1.4-1.1-0.7-2.8-1.5-4.4c-0.7-1.4-1.2-2.3-1.5-3.9c-0.1-0.5-0.2-0.9-0.4-1.5c-0.5-1.2-1.7-1.6-1.7-2.9
	c0-0.8,0.4-1.2,0.7-1.9c0.1-0.2-0.1-0.3,0-0.5c0.4-0.8,0.9-1.2,1.5-1.9c0.6-0.7,1.1-1.1,1.6-1.8c0.6-0.8,0.8-1.6,1.6-2.2
	c0.1,1.1,0.6,1.6,0.6,2.7c0,0.9-0.5,1.4-0.8,2.2c-0.1,0.3-0.4,0.4-0.4,0.7c0,1,0.7,1.5,0.7,2.4c0,0.8-0.7,1.1-0.7,1.9
	c0,0.5,0.2,0.9,0.6,1.2c0.3,0.2,0.7-0.1,1,0.1c0.3,0.2,0.3,0.6,0.4,1c0.2,0.8,0.3,1.4,1,1.8c0.5,0.3,1.2,0.4,1.2,1
	c0,0.7-0.7,0.8-1.2,1.2c0.6,1.5,1.6,2.4,3.1,3c0.5,0.2,1,0,1.5,0.4c0.5,0.4,0.5,0.9,0.7,1.5c0.2,0.5,0.5,0.9,0.6,1.5
	c0.2,1.1,0.3,2,1.1,2.8h3.7h0c0.8-0.1,1.7-0.3,2.3-0.6l0,0c0-0.3,0-0.6,0.1-1c0.3-2.3,0.9-3.5,1.2-5.8c0-0.4,0.2-0.6,0.2-0.9v-1.5
	l0,0l-7.5,2.3l-7.3-21.3l0,0L641.1,206.6L641.1,206.6z"/>
<path fill="#969696" stroke="#FFFFFF" stroke-width="2" stroke-miterlimit="22.9256" d="M700.2,220c0.8-0.1,1.7-0.3,2.3-0.6l0,0
	c0,0.8,0,1.5,0,2.4c-0.1,1.5-0.4,2.4-0.8,3.9c-0.2,0.8-0.1,1.3-0.4,2.1c-0.4,1-1.1,1.4-1.6,2.4c-0.2,0.5-0.3,0.9-0.6,1.5
	c-0.1-1.9-1.1-2.9-1.1-4.8c0-2.4,2.3-3.4,2.3-5.8C700.3,220.6,700.3,220.4,700.2,220L700.2,220L700.2,220z M686.6,219.9L686.6,219.9
	c-2,0.5-3.2,0.5-5.3,0.6c-1.1,0-1.8-0.2-2.9-0.1c-1.1,0.1-1.6,0.4-2.7,0.4c-0.3,0-0.4-0.1-0.7-0.1v-1c0-0.4,0.2-0.6,0.4-0.9
	c0.5-1.3,1.1-2,1.5-3.4c0.2-0.9,0.2-1.5,0.2-2.4c0.1-0.9,0.2-1.5,0.2-2.4v-1H675c-1.4,0-2.1-0.7-3.4-1c-1.2-0.2-1.4-1.3-1.9-2.3
	c-0.2-0.4-0.2-0.7-0.5-1c-0.5-0.3-0.9-0.2-1.5-0.2c-0.8-0.2-1.3-0.3-2.1-0.4l0,0c-0.1,1.1-0.2,1.8-0.5,2.9c-0.2,0.7-0.2,1.7-1,1.7
	c-0.4,0-0.6-0.5-1-0.6c-0.5-0.2-0.9-0.2-1.5-0.4c-0.9-0.2-1.5-0.5-2.4-0.5c-0.4,0-0.3,0.6-0.5,1c-0.1,0.2-0.3,0.3-0.4,0.5
	c-0.3,0.5-0.6,0.8-0.7,1.5c-0.1,0.3,0,0.6,0,1c-0.1,0.8-0.5,1.3-0.7,2.1c-0.7,2.2-1.6,3.3-2.7,5.3c-0.4,0.8-0.5,1.5-1.3,1.8
	c-0.3,0.1-0.7-0.2-1,0c-0.3,0.2-0.1,0.6-0.2,1c-0.2,0.6-0.3,0.9-0.6,1.5c-0.5,1-1,1.5-1.6,2.4c-0.6,1.1-1.2,2.1-2.4,2.1
	c-0.8,0-1.2-0.2-1.9-0.4c-0.9,2.3-2.2,3.4-3.1,5.7c-0.5,1.1-0.5,1.9-1.1,3c-1,2-1.8,3-2.8,5c-0.5,1.1-1.1,1.7-1.1,2.9
	c0,0.6,0.3,0.9,0.4,1.5c0.2,1,0.1,1.7,0.2,2.7c0.1,0.7,0.5,1.1,0.5,1.9v1.8c-0.8-0.1-1.2-0.1-1.9,0.1h-0.6c-0.9,0.3-1.5,0.4-2.4,0.8
	c-1,0.5-1.4,1.1-2.4,1.5c-1.5,0.5-2.4,0.6-3.9,1.1c-1.3,0.4-2,0.9-3.4,0.8c0,0.5-0.2,0.8-0.2,1.2v3c-0.8-0.2-1.3-0.2-2-0.5
	c-0.5-0.2-0.5-0.5-1-0.7c-0.9-0.5-1.5-0.8-2.4-1.2c-1-0.4-1.8-0.7-2.3-1.6c-0.5-0.9-0.5-1.8-1.3-2.4c-0.3-0.2-0.9,0-1.2-0.1l0,0
	c-0.3,2-0.6,3.1-1.5,4.8c-0.2,0.4-0.6,0.6-0.8,1c-0.2,0.3-0.4,0.6-0.6,1c-0.7,0.9-1.4,1.2-2.3,1.9c-0.4,0.3-0.8,0.3-1,0.7
	c-0.7,1.1,0,2.3-0.7,3.4c-0.4,0.6-1,0.6-1.3,1.2c-0.4,0.7-0.3,1.3-0.7,1.9c-0.2,0.4-0.6,0.4-1,0.7c-1.5,1.5-2.6,1.9-4.2,3.1
	c-1.9,1.4-2.9,2.6-4.5,4.4l0,0l26.6-6.9v0l80.3-24.6l0,0l-0.4-0.8l0.1-0.5c0.6-0.1,0.9-0.2,1.5-0.5c-0.5-1-1.1-1.4-1.9-2.2
	c-0.5-0.5-0.6-0.9-1-1.5c-0.1-0.2,0-0.4-0.1-0.5c-0.3-0.2-0.6-0.1-1-0.1c-1.1,0-1.8,0.5-2.9,0.5c-1.1,0-1.7,0-2.8,0
	c-0.5,0-0.6-0.4-1-0.6c-0.3-0.1-0.6-0.1-1-0.1c-1.4-0.3-2.1-0.8-3.5-1.1c0.8-0.4,1.5-0.4,2.4-0.6c0.6-0.1,0.9-0.4,1.5-0.4
	c0.8,0,1.2,0.3,2,0.5c0.2,0,0.3,0.2,0.5,0.2c0.2,0,0.3-0.3,0.5-0.4c-0.9-1.6-1.9-2.3-3.5-3.3c-0.7-0.4-1.2-0.5-1.8-1
	c1.1,0,1.7-0.5,2.7-1.1c0.2-0.1,0.4,0,0.5-0.1c0.5-0.4,0.7-1,0.7-1.7c0-0.6-0.6-0.8-1.2-1.1c-0.8-0.3-1.2-0.5-1.9-1
	c-1.1-0.7-1.7-1.2-2.9-1.8c-0.3-0.2-0.6-0.2-1-0.4c-0.2-0.1,0-0.3-0.1-0.5c0.3-0.2,0.5-0.6,1-0.6c0.8,0,1.2,0.1,1.9,0.4
	c0.4,0.2,0.5,0.6,1,0.6h2v-2.3c0-1.2-1-1.8-2-2.4c-0.2-0.1-0.3,0-0.5-0.1C688,221.6,687.8,220.5,686.6,219.9z"/>
<path fill="#969696" stroke="#FFFFFF" stroke-width="2" stroke-miterlimit="22.9256" d="M458.4,113.9c-0.3,0.3-0.5,0.4-0.8,0.7
	c-0.3,0.3-0.3,0.7-0.7,1c-0.3,0.2-0.7,0.2-1,0.5c-0.4,0.4-0.3,0.9-0.5,1.5c-0.2,0.6-0.4,1-0.4,1.7c0,1.8,0.6,2.8,0.6,4.6
	c0,1.1,0.1,1.9-0.5,2.9c-0.3,0.6-0.9,0.7-1.5,1.2c-0.7,0.7-1,1.1-1.6,1.8c-1.7,2-1.7,3.7-3.3,5.8c1.3,1.5,2,2.5,3,4.2
	c0.6,1,1.1,1.7,1.1,2.9c0,0.8-0.8,1.1-1.1,1.9c-0.3,0.8-0.4,1.3-0.4,2.2c0,0.8,0.2,1.3,0.2,2.2c0.1,0.9,0,1.5,0.1,2.4
	c0,0,0,0.1,0,0.2c0.2,0.2,0.4,0.3,0.6,0.4c2.6,0.9,4.3,1.2,6.8,2.4c1.6,0.8,2.8,0.9,3.9,2.3c0.8,1,0.9,1.9,1.8,2.8
	c0.5,0.4,0.9,0.6,1.5,1c2,1.2,3.2,1.9,5.3,2.9c2.4,1.2,3.8,3.4,3.5,6.2c-0.1,1-0.2,1.9-0.4,2.9l0,0c-21.7,2.6-44.1,4.7-68.2,5.8l0,0
	c0.2-1.2,0.3-1.3,0.8-2.4l-1.5-30.7c-1.8-1.4-4-2.7-4-5c0-1.9,0.6-2.9,0.6-4.8c0-0.6-0.3-1-0.4-1.6l0,0c-0.2-2.3-0.1-3.8-0.5-6
	c-0.1-0.5-0.3-0.9-0.4-1.5c-0.4-2.3-0.6-3.6-1.3-5.8c-0.2-0.7-0.5-1.2-0.5-1.9c0-1.9,0.7-2.9,0.7-4.8c0-1.3-0.5-2.1-0.6-3.4
	c-0.3-2.3-0.2-3.6-0.7-5.8c-0.2-1-0.6-1.6-1.1-2.4c-0.7-1.1-1.1-1.8-1.7-2.9c-0.9-1.7-1.8-2.7-1.8-4.6c0-0.7-0.1-1.1,0.1-1.7
	c0.1-0.4,0.4-0.6,0.4-1c0-1.2-0.5-1.8-0.8-2.9c-0.2-0.5-0.5-0.7-0.5-1.2c0-1.1,0.5-1.6,0.5-2.7c0-1.4-0.5-2.1-1-3.4
	c-0.1-0.2-0.2-0.2-0.2-0.5c0-1,0-1.5,0.1-2.5l0,0c7.4-0.3,14.8-0.8,22.2-1.3c0-0.1,0.2-0.3,0.2-0.5c0.1-0.1,0.2-0.4,0.2-0.6
	c0.4-0.5,0.6-1.9,0.9-2.6c0.5-1.1,0.6-2.3,1.7-3.1c0.1,0,0.2,0,0.2,0c0.5,0.3,0.9,1.1,1.3,1.5c0.7,0.8,1.2,2.5,1.6,3.5
	c0.4,1.2,0.9,2.4,1.7,3.8c0.6,1.2,1.5,1.8,2.6,1.8c1.2,0,1.9-0.7,3.1-0.7c0.7,0,1,0.3,1.7,0.5c0.9,0.2,1.5,0.1,2.4,0.4
	c0.6,0.2,1.1,0.3,1.5,0.8c0.4,0.6,0.7,1.3,1.5,1.3c0.4,0,0.6-0.4,1-0.6c0.5-0.3,0.8-0.3,1.4-0.5c0.4-0.1,0.2,0,0.5,0
	c0.3,0.3,1.2,0.6,1.6,0.7c1.5,0.3,2.8-0.1,4.2-0.6c1.3-0.4,2.6-1.7,4.1-1.5c0.7,1.3,0.8,2.5,1.1,3.6c0.3,0.9,0.5,1.6,1.2,2.2
	c0.5-0.8,0.7-1.8,1.7-1.8c0.8,0,1.4-0.1,2.2,0.1c0.5,0.1,0.5,0.6,1,0.8c0.8,0.5,1.5,0.6,2.4,0.8c0.8,0.2,1.3,0.2,1.9,0.6
	c0.4,0.2,0.4,0.7,0.7,1c0.7,0.5,1.3,0.8,2.2,0.8c1.4,0,2.1-0.9,3.1-1.7c0.4-0.3,0.5-0.7,1-0.7c0.4,0,0.6,0.2,1,0.2
	c0.6,0.1,0.9-0.1,1.5,0.1c1,0.4,1.3,1.6,2.4,1.6c1,0,1.5-0.4,2.4-0.7c0.9-0.3,1.5-0.3,2.4-0.4l7.8,1l0,0c-1.3,1.2-2,2.2-3.7,3
	c-0.4,0.2-0.5,0.5-1,0.7c-1.7,0.7-2.8,1-4.4,1.9c-1,0.5-1.5,1-2.4,1.6c-0.4,0.2-0.6,0.2-1,0.5c-0.7,0.5-0.8,1.1-1.2,1.8
	c-0.8,1.2-1.4,1.8-2.4,2.8c-1.5,1.4-1.7,2.8-2.9,4.4c-0.8,1.1-1.5,1.6-2.4,2.5c-0.3,0.3-0.3,0.7-0.7,1c-0.1,0.1-0.4,0-0.5,0.1
	c-0.9,0.7-1.2,1.3-2.1,2.2c-0.6,0.6-1.1,0.9-1.6,1.7L458.4,113.9L458.4,113.9z"/>
<path fill="#969696" stroke="#FFFFFF" stroke-width="2" stroke-miterlimit="22.9256" d="M406.7,178.2c24.1-1.1,46.5-3.2,68.2-5.8
	l0,0c-0.1,0.8,0.7,1.2,1.1,1.9c0.2,0.4,0.5,0.5,0.5,1c0,0.8-0.2,1.2-0.2,1.9c-0.1,1.1-0.1,1.8-0.2,2.9c-0.1,0.9,0.1,1.5,0.4,2.4
	c0.2,0.6,0.7,0.9,1,1.5c0.5,0.9,0.7,1.6,1.5,2.3c1.1,1.1,2.3,1,3.9,1.2c0.5,0.1,1,0,1.5,0.4c0.3,0.2,0.3,0.6,0.5,1l0,0
	c0.5,1.1,0.6,1.9,1.3,2.9c0.3,0.4,0.6,0.5,1,0.8c0.8,0.6,1.1,1.2,1.8,1.8c0.5,0.5,1,0.6,1.5,1.2c0.4,0.5,0.5,0.9,0.7,1.5
	c0.5,1.3,0.8,2,0.8,3.4c0,1-0.3,1.5-0.6,2.4c-0.4,1.2-0.4,2.3-1.5,2.9c-0.7,0.4-1.2,0.6-1.9,1.1c-1.5,1-2.1,2.1-3.9,2.4
	c-1.3,0.2-2.8-0.2-3.3,1.1c-0.3,0.8,0.5,1.4,1.1,1.9c0.3,0.3,0.7,0.2,1,0.5c0.2,0.3,0.2,0.6,0.2,1c0,0.9-0.2,1.5-0.4,2.4
	c-0.2,1.5-0.6,2.4-1.2,3.9c-0.2,0.5-0.3,0.9-0.4,1.5c-0.1,0.7-0.7,0.9-1.2,1.3c-0.3,0.3-0.7,0.5-0.8,0.8c-0.2,0.5,0,0.9-0.1,1.5
	c-0.2,0.9-0.5,1.5-0.7,2.4c-0.1,0.7-0.2,1.2-0.3,1.8l0,0c-1.9-1-3-1.1-4.1-3c0,0-23.1,2.9-54.5,4.5l0,0c-0.2-0.4-0.4-0.8-0.6-1.3
	c-0.1-0.4-0.4-0.5-0.4-0.9c0-1.1,0-2.3,0-3.4c0-1.4-0.6-2.1-1.2-3.4c-0.5-1.2-0.5-2.1-0.6-3.4c-0.1-1.1-0.1-1.9-0.6-2.9
	c-0.9-1.8-3.2-2.4-2.9-4.4c0.1-0.7,0.2-1.5,0.4-2.2c0.4-2.2-0.9-3.5-2.4-5.1c-0.3-0.3-0.6-0.5-0.8-0.8c-1.5-2.1-0.5-4.3-2.1-6.4
	c-0.1-0.2-0.2-0.5-0.4-0.6l0,0c-0.2-2.4-1.7-3.4-1.7-5.8c0-1.2,0.7-1.8,1.1-2.9c0.3-0.9,0.4-1.5,0.4-2.4
	C407.3,182.4,406.9,180.8,406.7,178.2L406.7,178.2z"/>
<path fill="#969696" stroke="#FFFFFF" stroke-width="2" stroke-miterlimit="22.9256" d="M458.4,113.9c-0.3,0.3-0.5,0.4-0.8,0.7
	c-0.3,0.3-0.3,0.7-0.7,1c-0.3,0.2-0.7,0.2-1,0.5c-0.4,0.4-0.3,0.9-0.5,1.5c-0.2,0.6-0.4,1-0.4,1.7c0,1.8,0.6,2.8,0.6,4.6
	c0,1.1,0.1,1.9-0.5,2.9c-0.3,0.6-0.9,0.7-1.5,1.2c-0.7,0.7-1,1.1-1.6,1.8c-1.7,2-1.7,3.7-3.3,5.8c1.3,1.5,2,2.5,3,4.2
	c0.6,1,1.1,1.7,1.1,2.9c0,0.8-0.8,1.1-1.1,1.9c-0.3,0.8-0.4,1.3-0.4,2.2c0,0.8,0.2,1.3,0.2,2.2c0.1,0.9,0,1.5,0.1,2.4
	c0,0,0,0.1,0,0.2c0.2,0.2,0.4,0.3,0.6,0.4c2.6,0.9,4.3,1.2,6.8,2.4c1.6,0.8,2.8,0.9,3.9,2.3c0.8,1,0.9,1.9,1.8,2.8
	c0.5,0.4,0.9,0.6,1.5,1c2,1.2,3.2,1.9,5.3,2.9c2.4,1.2,3.8,3.4,3.5,6.2c-0.1,1-0.2,1.9-0.4,2.9l0,0c-0.1,0.8,0.7,1.2,1.1,1.9
	c0.2,0.4,0.5,0.5,0.5,1c0,0.8-0.2,1.2-0.2,1.9c-0.1,1.1-0.1,1.8-0.2,2.9c-0.1,0.9,0.1,1.5,0.4,2.4c0.2,0.6,0.7,0.9,1,1.5
	c0.5,0.9,0.7,1.6,1.5,2.3c1.1,1.1,2.3,1,3.9,1.2c0.5,0.1,1,0,1.5,0.4c0.3,0.2,0.3,0.6,0.5,1l0,0l37.5-6.1l0,0v-0.5
	c0-1.5,0-2.3-0.1-3.8c-0.2-1.9-1.5-2.6-2.2-4.4c-0.1-0.3-0.1-0.6-0.1-1c-0.1-0.7-0.2-1.2-0.4-1.9c-0.3-2.1-0.8-3.2-0.8-5.3
	c0-1.6,0.7-2.4,1.3-3.9c0.2-0.5,0.5-0.7,0.5-1.2c0-0.7-0.2-1.1-0.5-1.7c-0.2-0.9-0.4-1.7-0.4-2.7c0-1.6,0.5-2.5,1.1-4
	c0.3-0.7,0.7-1.1,0.7-1.9c0-1-0.5-1.5-0.5-2.4c0-1.5,0.5-2.4,1-3.9c0.5-1.7,0.8-2.7,1.5-4.4c0.2-0.4,0.4-0.6,0.5-1
	c0.3-1.2-0.1-2,0.2-3.1c0-0.2,0.3-0.3,0.4-0.5c0.2-0.5,0.1-0.9,0.1-1.5c-1.4,0.6-2.5,0.9-3.1,2.3c-0.6,1.5-0.5,2.5-1.3,3.9
	c-0.2,0.3-0.3,0.7-0.6,1c-0.3,0.3-0.7,0.3-1,0.6c-0.5,0.6-0.6,1.2-1.1,1.9c-1.1,1.6-1.7,2.7-3.4,3.5v-1c0-1.3,0.3-2.1,0.7-3.4
	c0.2-0.7,0.3-1.2,0.6-1.9c0.5-1.2,1.2-1.8,1.2-3.1v-1.5v0c-0.2-1-0.5-2-1-2.9c-0.3-0.6-0.7-0.8-1-1.5c-1-2.2-1.7-3.6-1.7-6
	c-1-0.1-1.6,0-2.4-0.5c-0.4-0.2-0.6-0.4-0.8-0.7c-0.3-0.5-0.2-1.1-0.6-1.5c-0.6-0.5-1.2-0.2-1.9-0.2c-0.9-0.1-1.5-0.3-2.4-0.4
	c-3.5-0.4-5.3-1-8.7-1.8c-1-0.2-1.5-0.4-2.5-0.6c-0.7-0.2-1.2-0.1-1.9-0.2c-1.7-0.3-2.7-0.6-4.4-1c-1.7-0.4-2.6-0.5-4.4-0.7
	c-1.7-0.2-2.3-1.9-2.9-3.5h0c-0.8,0.3-1.5,0.5-2.5,0.6c-1.8,0.3-3.1-0.4-4.7,0.4v-3.4c0-0.4,0.2-0.7,0-1c-0.1-0.4-0.4-0.6-0.6-1
	c-2.1,1.1-3.7,1-5.8,2.1c-2.2,1.1-3.6,1.7-6.1,1.7C459.5,113.9,459.1,113.8,458.4,113.9L458.4,113.9z"/>
<path fill="#969696" stroke="#FFFFFF" stroke-width="2" stroke-miterlimit="22.9256" d="M489.7,90c0.8,0.2,1.3,0.5,1.7,1.2
	c0.2-0.5,0.4-0.6,0.7-1c0.4-0.5,0.7-1,1.1-1.5c1.2-1.3,2.2-2,2.8-3.7c-0.3-0.1-0.6-0.4-1-0.2c-0.2,0.1-0.2,0.4-0.4,0.5
	c-0.5,0.4-0.7,0.8-1.1,1.3c-0.1,0.2-0.4,0.1-0.5,0.2c-0.1,0.1-0.1,0.4-0.2,0.5C491.7,88.4,490.7,88.7,489.7,90L489.7,90z
	 M479.8,114.6c0.5,1.6,1.2,3.3,2.9,3.5c1.7,0.2,2.7,0.3,4.4,0.7c1.7,0.4,2.7,0.7,4.4,1c0.7,0.1,1.2,0.1,1.9,0.2
	c1,0.2,1.5,0.4,2.5,0.6c3.4,0.8,5.2,1.4,8.7,1.8c0.9,0.1,1.5,0.3,2.4,0.4c0.8,0.1,1.4-0.2,1.9,0.2c0.5,0.4,0.3,1,0.6,1.5
	c0.2,0.3,0.5,0.5,0.8,0.7c0.8,0.5,1.5,0.4,2.4,0.5c0,2.4,0.7,3.8,1.7,6c0.3,0.6,0.7,0.9,1,1.5c0.4,0.9,0.7,1.9,1,2.9v0v-0.7
	c0-1.4,0.7-2.2,1.3-3.4c0.9-1.5,1.3-2.4,2.1-4c0.6-1.1,0.9-1.8,1.6-2.9c0.3-0.5,0.6-0.8,0.7-1.5c0.2-1.3-0.2-2.1,0-3.4l0.5,0.1
	c0.3,0.8,0.2,1.6,1,2.1c0.5,0.3,0.9,0.4,1.5,0.6c0.3-1.3,1.4-2.1,2.7-2.1c0.2,0,0.3,0.1,0.5,0.1c-0.1,0.4-0.1,0.7-0.2,1
	c-0.2,0.4-0.6,0.5-0.6,1c0,0.8,0.5,1.2,1.1,1.6c0.7-1.1,1.1-1.9,1.8-3c0.4-0.6,0.8-0.8,1.2-1.5c0.5-0.9,1-1.6,1.9-1.9
	c0.3-0.1,0.6,0,1-0.1c0.6-0.2,0.9-0.6,1.5-1c1.2-0.8,1.9-1.3,2.9-2.3c0.5-0.5,0.8-0.8,1.3-1.3c0.2-0.2,0.1-0.4,0.2-0.5
	c0.5-0.3,0.9-0.2,1.5-0.2c1.5,0,2.4,0.2,3.9,0.5c0.2,0,0.3,0.2,0.5,0.2c0.7,0.2,1.2,0.1,1.9,0.4c0.8,0.3,1,1.3,1.9,1.3
	c0.4,0,0.5-0.5,0.7-0.8c0.3-0.5,0.3-0.9,0.4-1.5c0.1-0.5,0.2-0.9,0.2-1.5h1.3l3.5,1.2c0.5-0.3,0.8-0.6,1.2-1.1
	c0.3-0.3,0.6-0.6,0.6-1.1c0-0.5-0.5-0.5-1-0.7c-0.6-0.2-0.9-0.4-1.5-0.7c-1.1-0.6-1.3-1.7-2.4-2.4c-0.2-0.1-0.1-0.5-0.4-0.5
	c-0.4,0-0.6,0.2-1,0.4c-0.5,0.2-0.9,0.2-1.5,0.4c-1.5,0.6-2.4,1.2-4.1,1.2c-0.9,0-1.4-0.5-2.1-1.1c-0.6-0.5-1.3-0.8-1.3-1.5v-3
	c0-0.6,0.3-0.9,0.5-1.4l-0.5,0.1c-1.6,0.8-2.4,1.5-4,2.2c-0.9,0.3-1.5,0.4-2.4,0.7c-1.2,0.4-1.7,1.1-2.9,1.5
	c-1.7,0.6-2.9,0.8-4.4,1.9c-0.5,0.4-0.7,0.9-1.1,1.5c-0.6,0.7-1.1,0.9-1.9,1.3c-0.6,0.3-1,0.7-1.7,1l-4.1-1.1l-2.4,0.6
	c-1.9-0.3-3-1.2-4.2-2.7c-0.4-0.5-0.7-0.9-1.2-1.2c-1.8-1.1-3.1-1.4-5.3-1.7c-0.5-0.1-0.7-0.2-1.2-0.2c-1.2,0-1.5,1.2-2.7,1.7
	c-0.2,0.1-0.4,0-0.5,0c0-0.6,0-0.9,0-1.5c0-1.5,0.1-2.5,0.8-3.8c0.3-0.5,0.9-0.6,1.5-0.8c1.1-0.5,1.6-1,2.3-1.9
	c0.5-0.7,0.5-1.2,1-1.9c0.4-0.7,0.7-1.1,0.7-1.9h-0.9c-0.2,0-0.3,0.2-0.5,0.2c-0.9,0.3-1.5,0.6-2.4,0.8c-0.7,0.2-1.2,0.3-1.9,0.6
	c-2,0.9-2.7,2.2-4.5,3.5c-0.3,0.2-0.6,0.4-1,0.6c-1.1,0.8-1.5,1.7-2.3,2.9c-0.1,0.2-0.4,0.2-0.5,0.4c-0.1,0.2-0.1,0.4-0.1,0.5
	c-1.1,1.7-3.3,1.3-4.1,3.1c-0.5,1.1-0.9,2.1-2.2,2.4c-0.7,0.2-1.2-0.3-1.9,0c-0.4,0.2-0.6,0.5-0.8,0.7c-0.8,0.8-1.2,1.5-2.1,2.3
	c-0.5,0.5-0.7,1-1.3,1.2c-0.3,0.1-0.6,0.1-1,0.1C480.7,114.3,480.2,114.4,479.8,114.6L479.8,114.6L479.8,114.6z M563,189.2
	L563,189.2l-0.3-1.6l-27,4.9h0c0.3-0.2,0.5-0.5,0.7-0.8c0.3-0.5,0.4-0.9,0.7-1.5c0.7-1.3,1.2-2,1.7-3.4c0.2-0.8,0.2-1.3,0.4-2.1
	c0.2-1.1,0.5-1.8,0.6-2.9c0.1-1,0.5-1.5,0.6-2.4c0.1-0.6,0-1,0-1.6c0.1-1.3,0.4-2.1,0.4-3.4v-3c0-1-0.4-1.5-0.6-2.4
	c-0.5-2.1-0.2-3.6-1.5-5.3c-0.7-0.9-1.4-1.2-2.2-2.1c-1.4-1.4-1.2-2.9-1.5-4.8c-0.2-1.8-1.1-2.8-1.1-4.6c0-2,1.1-3.1,1.1-5.1v-2.4
	c0-1.1-0.2-1.8-0.4-2.9c0-0.2-0.2-0.3-0.2-0.5c0-0.6,0.4-0.9,0.6-1.5c0.3-0.7,0.5-1.2,0.6-1.9c0.1-0.7-0.1-1.4,0.4-1.9
	c0.2-0.3,0.6-0.3,1-0.5c1.1-0.7,1.6-1.5,2.2-2.7c0.3-0.5,0.5-0.9,0.8-1.5c0.3-0.5,0.4-1.1,1-1.1h1.2c0,1.5-0.1,2.6,0.7,3.9
	c0.5,0.8,1.4,0.9,2.4,1c0.4-1.1,0.4-1.8,0.4-2.9v-3.8c0-0.6,0.1-1.2,0.5-1.6c1.5-0.4,2.2-1.1,3.3-2.2c-1.1-0.5-1.8-0.5-2.9-1
	c0.6-1.3,0.5-2.2,1.3-3.4c0.5-0.7,1-1,1.8-1.3c0.7-0.3,1.1-0.6,1.9-0.6c1,0,1.2,1,2.2,1.2c0.9,0.2,1.5-0.2,2.4,0
	c0.6,0.1,0.9,0.1,1.5,0.2c1.3,0.4,2,1.2,3.4,1.1c0.9-0.1,1.5-0.2,2.4,0c1,0.3,1.5,1,2.4,1.5c0.7,0.4,1.1,0.6,1.9,0.7
	c0.8,0.2,1.8,0.4,1.8,1.2c0,1.1-0.5,1.6-0.7,2.7c0,0.2-0.2,0.3-0.2,0.5c0,0.6,0.6,0.9,1,1.3c0.6,0.7,0.9,1.2,1.3,1.9
	c0.7,1.2,1.2,2,1.2,3.4v3c0,1.4-0.5,2.1-1,3.4c-0.3,1.1-0.1,1.8-0.2,2.9c-0.2,1.1-1.1,1.4-1.8,2.3c-0.5,0.7-0.7,1.2-1.2,1.9
	c-0.4,0.5-0.8,0.8-0.8,1.5c0,0.4,0.5,0.6,0.6,1c0.2,0.5-0.1,0.9,0,1.5c0.1,0.4,0.2,0.6,0.4,1c0.8-0.2,1.2-0.6,1.9-0.8
	c0.3-0.1,0.6-0.1,1-0.1c0.2,0,0.3,0.2,0.5,0.1c0.5-0.3,0.5-0.9,0.7-1.5c0.4-0.8,0.8-1.2,1.3-1.9c0.6-0.9,1.1-1.5,1.6-2.4
	c0.3-0.6,0.6-1,1-1.5c0.1-0.2,0.1-0.4,0.2-0.5c0.3-0.2,0.6,0,1,0c0.5-0.1,0.9-0.4,1.5-0.4c0.9,0,1.7-0.2,2.4,0.4
	c0.2,0.1,0.1,0.3,0.2,0.5c0.6,0.6,0.9,1.1,1.3,1.8c1.1,1.8,1.9,2.8,2.5,4.8c0.7,2.1,1.2,3.3,2.1,5.3c0.6,1.5,0.8,2.7,2.2,3.5l0,0
	c-0.5,1.8-0.3,3.1-0.5,5v0c-0.1,0.2,0.1,0.4,0,0.5c-1.3,1-2.5,0.6-4,1.5c-0.2,0.1-0.3,0.1-0.5,0.1c-0.7,0.4-0.3,1.3-0.5,2.1
	c-0.2,0.7-0.5,1.1-0.5,1.9v2.9l0,0c-0.3,1.4-0.7,2.9-1,4.3c-0.1,0.5,0.1,0.9,0.3,1.4l0,0c-0.1,1.4-0.5,2.3-1.5,3.4
	c-0.7,0.8-1.6,1.3-1.6,2.4l0,0L563,189.2z"/>
<path fill="#969696" stroke="#FFFFFF" stroke-width="2" stroke-miterlimit="22.9256" d="M309,150.8l0.8-16.5v0l2.8-55.7l0,0
	c-47-2.4-93.8-8.9-140.3-19.5l0,0l-4.1,17.7c0.6,1.9,1,2.9,1.5,4.8c0.2,1,0.6,1.5,0.8,2.4c0.3,1.3,0.5,2.1,0.8,3.4
	c0.1,0.5,0.1,0.9,0.2,1.5c0.4,1.1,1,1.5,1.7,2.4c0.6,0.8,0.9,1.4,1.2,2.3c0.7,1.9,1.2,3.1,2.3,4.8c0.8,1.4,1.8,1.8,3,2.8
	c0.7,0.5,1.2,0.8,1.9,1.3c0.5,0.3,1.1,0.5,1.1,1.1c0,0.8-0.4,1.2-0.5,1.9c-0.3,1.8-0.9,2.7-1.5,4.5c-0.3,1.1-1.2,1.5-1.2,2.7
	c0,0.7,0.5,1.1,0.7,1.7c0.6,1.5,1.2,2.3,1.2,3.9c0,0.2-0.3,0.2-0.5,0.4c-0.5,0.4-0.9,0.4-1.5,0.7c-0.5,0.3-0.8,0.5-1.5,0.7
	c0.2,0.8,0.6,1.1,0.7,1.9c0.2,0.7,0.1,1.2,0.2,1.9c0.1,0.3,0,0.7,0.2,1c0.4,0.4,0.9,0.4,1.5,0.4c1.9,0,2.7-1.3,4.6-1.3
	c1,0,1.3,1.1,1.5,2.1c0.2,1.5,0,2.5,0.6,3.9c0.8,2.1,1.7,3.3,1.7,5.5c0,0.9-0.1,1.4-0.1,2.2c0,0.5-0.1,0.9,0.1,1.4
	c0.2,0.5,0.6,0.6,0.8,1c0.5,0.9,0.7,1.6,1.3,2.4c0.3,0.3,0.6,0.5,0.8,0.8c0.6,1,0.5,1.9,1,2.9c0.3,0.6,0.6,0.9,1,1.5
	c0.3,0.5,0.4,1.3,1.1,1.3c0.9,0,1.3-0.7,2.2-0.7c1.2,0,1.7,1.2,2.9,1.2c0.5,0,0.8-0.1,1.2-0.4c0.4-0.3,0.5-0.8,1-0.8
	c0.4,0,0.6,0.4,1,0.5c0.8,0.3,1.2,0.5,1.9,0.7c1.3,0.4,2.1,0.2,3.4,0.2c0.8,0,1.2,0.1,1.9,0c0.5-0.1,0.6-0.5,1-0.7
	c0.4-0.3,0.8-0.4,1-0.8c0.4-0.7,0.3-1.8,1.1-1.8c0.6,0,0.9,0.5,1.3,1c0.4,0.5,0.7,0.9,1.2,1.3c0.8,0.7,1.6,0.9,2.4,1.7h0l1-8.3
	C248.5,145.8,278.4,148.7,309,150.8L309,150.8z"/>
<path fill="#969696" stroke="#FFFFFF" stroke-width="2" stroke-miterlimit="22.9256" d="M218.7,150.3l1-8.3
	c28.9,3.8,58.8,6.7,89.3,8.9v0l-1.3,36.2h0l-1.6,36.4l0,0c-20.9-1.1-43.6-3.1-67.8-5.8v0l-27.7-3.5L213,196l0,0L218.7,150.3
	L218.7,150.3z"/>
<path fill="#969696" stroke="#FFFFFF" stroke-width="2" stroke-miterlimit="22.9256" d="M402.3,133.7c0.1,0.6,0.4,1,0.4,1.6
	c0,1.9-0.6,2.9-0.6,4.8c0,2.3,2.2,3.6,4,5l1.5,30.7c-0.5,1.1-0.7,1.2-0.8,2.4l0,0c0.2,2.6,0.6,4.1,0.6,6.8c0,0.9-0.1,1.5-0.4,2.4
	c-0.4,1.1-1.1,1.7-1.1,2.9c0,2.4,1.5,3.4,1.7,5.8l0,0c-1.6-1.9-3.4-2.2-5.8-3.1c-1.3-0.5-2-0.8-3.4-1.1c-1.5-0.4-2.1-1.3-3.6-1.3
	c-2.6,0-4,0.8-6.5,0.8c-1.6,0-2.4-0.7-3.9-1.3c-1.5-0.6-2.5-1.1-3.6-2.1c-21.9,0.5-46.3,0.2-73-1h0l1.3-36.2l0,0l0.8-16.5v0
	C340.5,135.2,371.3,135,402.3,133.7L402.3,133.7z"/>
<path fill="#969696" stroke="#FFFFFF" stroke-width="2" stroke-miterlimit="22.9256" d="M309.7,134.3l2.8-55.7l0,0
	c26.8,1.4,53.6,1.5,80.5,0.2l0,0c-0.2,1-0.1,1.5-0.1,2.5c0,0.2,0.2,0.3,0.2,0.5c0.4,1.3,1,2,1,3.4c0,1.1-0.5,1.6-0.5,2.7
	c0,0.5,0.3,0.7,0.5,1.2c0.4,1.1,0.8,1.7,0.8,2.9c0,0.4-0.3,0.6-0.4,1c-0.2,0.6-0.1,1-0.1,1.7c0,1.9,0.9,2.9,1.8,4.6
	c0.6,1.1,1,1.8,1.7,2.9c0.5,0.8,0.8,1.4,1.1,2.4c0.5,2.2,0.5,3.5,0.7,5.8c0.2,1.3,0.6,2.1,0.6,3.4c0,1.9-0.7,2.9-0.7,4.8
	c0,0.8,0.3,1.2,0.5,1.9c0.7,2.2,1,3.5,1.3,5.8c0.1,0.5,0.3,0.9,0.4,1.5c0.4,2.2,0.3,3.8,0.5,6v0C371.3,135,340.5,135.2,309.7,134.3
	L309.7,134.3z"/>
<path id="California" onclick="notify(this, &quot;select&quot;);" fill="#969696" stroke="#FFFFFF" stroke-width="2" stroke-miterlimit="22.9256" d="
	M137.1,355.6c0.2-0.6,0.4-1.3,1-1.7c0.8-0.6,1.4-0.6,2.4-1c0.7-0.2,1.5-0.5,1.5-1.2c0-2.7-1.8-4.1-1.8-6.8c0-0.8,0.3-1.2,0.4-1.9
	c0.1-0.9-0.4-1.6,0.1-2.4c0.3-0.5,1.2,0,1.6-0.5c0.7-0.7,0.5-1.5,0.8-2.4c0.5-1.5,1.1-2.4,1.7-3.9c0.3-0.8,0.5-1.4,1.1-2.1
	c0.7-0.9,1.5-1.1,2.4-1.7c1.4-0.8,3-1.3,2.9-2.9c0-1.1-1.2-1.3-1.8-2.2c-0.6-0.7-1.4-0.9-1.8-1.7c-0.6-1-0.6-1.8-0.8-2.9
	c-0.4-1.9-0.2-3.1-0.6-5.1c0-0.2-0.3-0.9-0.4-1.1l0,0l-63-91.5l12.1-52.5h0c-18.1-4.9-36.5-10.7-55.1-17.3h0
	c-0.1,0.2-0.2,0.3-0.3,0.5c-0.4,0.8-0.6,1.3-0.6,2.1c0,0.7,0.2,1.2,0.2,1.8c0.2,1.6,0.5,2.5,0.5,4.1c0,2.1-1.2,3.1-1.8,5.1
	c-0.2,0.9-0.4,1.5-0.5,2.4c-0.1,0.8,0.1,1.2,0,1.9c-0.1,0.6-0.5,1-1,1.5c-0.9,1.1-1.7,1.5-2.7,2.5c-0.8,0.8-1.1,1.5-1.9,2.3
	c-0.5,0.5-1.2,0.8-1.2,1.6c0,0.5,0.2,0.7,0.2,1.2v4.4c0,0.4,0.5,0.5,0.7,0.7c0.7,0.6,1,1.1,1.5,1.8c0.6,1,1,1.8,1.3,2.9
	c0.6,1.9,0.6,3.1,0.6,5.1c0,1.2-0.1,1.9-0.4,3.1c-0.1,0.3,0,0.6-0.1,1c-0.3,1-0.8,1.6-0.8,2.7c0,0.5,0.2,0.7,0.2,1.2
	c0,0.3-0.2,0.5-0.2,0.7c0,0.7,0.2,1.1-0.1,1.7c-0.4,1-1,1.4-1,2.4c0,0.6,0.2,0.9,0.4,1.5c0.3,1.1,0.4,1.8,0.5,2.9
	c0.1,1.5-0.2,2.8,1,3.9c0.9,0.8,1.2,1.6,1.8,2.8c0.9,1.8,1.7,3,1.7,5.1c0,1.1-0.1,1.7-0.5,2.7c-0.2,0.5-0.5,0.7-0.5,1.2
	c0,1.6,1.5,2.1,2.2,3.5c0.5,0.9,0.9,1.5,1.8,1.9c0.4,0.2,0.5,0.5,1,0.5c0.5,0,0.6-0.4,1-0.7c0.8-0.8,1.2-1.4,1.9-2.3
	c0.2,1.2-0.3,1.9,0,3c0.2,0.8,0.5,1.1,0.7,1.9l-0.2,1c0.2,0.7,0.4,1.2,0.5,1.9c-0.8-0.8-1.5-1.1-2.5-1.6l-1.1,5.8
	c0.2,1.5,0,2.4,0.5,3.9c0.4,1.3,1,2.1,1.5,3.5c1.1,1.2,1.8,1.9,3.1,2.7c1.4,0.8,2.5,1.7,2.5,3.3c0,1.5-1.9,1.6-2.7,2.9
	c-0.6,1.1-1,1.9-1,3.1c0,1.1,0.8,1.7,1.3,2.7c1.1,2.1,2,3.2,2.8,5.4c0.5,1.3,0.8,2.1,1,3.4c0.2,1.5,0,2.8,1.1,3.9
	c1.3,1.2,2,2.1,2.9,3.6c0.2,0.4,0.5,0.5,0.7,1c0.5,1,0.6,1.8,0.6,2.9c0,1.1,0.7,1.6,1.5,2.3c0.4,0.4,0.9,0.6,1,1.2
	c0,0.3-0.1,0.6-0.1,1c0,0.9,0.2,1.5,0.2,2.4l-1.2,7.6c0,1.5,0.9,2.7,2.3,3.3c0.5,0.2,0.9,0.3,1.5,0.5c1.8,0.7,2.6,1.7,4.4,2.4
	c1.1,0.5,1.8,0.5,2.9,0.8c0.8,0.2,1.1,0.5,1.9,0.7c0.6,0.2,1.1,0,1.6,0.4c0.9,0.6,1.1,1.4,1.7,2.3c1.1,1.7,1.8,2.7,3.4,4.1l1.5,1.2
	c0.2,0.1,0.4,0.1,0.5,0.2c0.7,0.8,1.1,1.4,2.1,1.8c1.6,0.7,2.7,0.9,4.4,1.5c0.4,0.1,0.7,0.1,1,0.4c0.3,0.2,0.3,0.6,0.4,1
	c0.2,0.9,0.2,1.5,0.2,2.4c0,1.1,0.9,1.5,1.7,2.2c1.3,1,2.4,1.1,3.9,1.7c1.5,0.6,2.3,1.4,3,2.8c0.5,0.9,0.6,1.5,1.1,2.4
	c0.6,1.2,1.3,1.7,1.9,2.9c0.8,1.5,0.9,2.7,1.5,4.4c0.6,1.8,1.1,3,0.8,5c-0.2,0.8-0.5,1.2-0.6,2.1c0.2,0,0.3,0.2,0.5,0.2
	c0.5,0.1,0.8-0.2,1.3-0.2c0.2,1.3,0,2.1,0,3.4c0,0.4,0,0.8,0,1.2l0,0c0.7,0.2,1.3,0.2,2,0.2c0.8,0.1,1.2,0.3,1.9,0.5
	c1.9,0.4,3,0.6,4.8,1c1.8,0.4,2.9,0.5,4.8,0.7c1.6,0.2,2.5,0.6,4.1,0.6c2.7,0,4.2,0.5,6.9,0.7c1.3,0.1,2.1,0.1,3.4,0.4
	c1.1,0.2,1.8,0.3,2.9,0.5C134.7,355.1,135.5,355.3,137.1,355.6L137.1,355.6z"/>
<path fill="#969696" stroke="#FFFFFF" stroke-width="2" stroke-miterlimit="22.9256" d="M159.8,278.7l-2.1,14.7
	c-0.5,0.1-0.9,0.5-1.4,0.8c-0.3,0.2-0.5,0.6-1,0.6c-0.7,0-0.8-0.7-1.5-1c-0.8-0.3-1.1-0.6-2-0.6c-0.9,0-1.9,0-2.8,0
	c-1.3,0-2.2,0.5-2.9,1.6c-0.6,1,0.1,1.8,0,2.9c0,0.6-0.4,0.9-0.4,1.5c0,0.9,0,1.9,0,2.8c0,0.4,0.2,0.6,0.2,1c0,1.3-0.1,2.1,0,3.4
	c0,0.2,0.2,0.3,0.2,0.5c0,0.9,0,1.9,0,2.8c0,1.1-1.1,1.6-0.8,2.7c0.1,0.4,0.2,1.5,0.2,1.8v0c0,0.2,0.3,0.9,0.4,1.1
	c0.4,2,0.2,3.1,0.6,5.1c0.2,1.1,0.3,1.9,0.8,2.9c0.5,0.8,1.3,0.9,1.8,1.7c0.6,0.9,1.8,1.1,1.8,2.2c0.1,1.6-1.5,2.1-2.9,2.9
	c-1,0.6-1.7,0.8-2.4,1.7c-0.5,0.7-0.8,1.2-1.1,2.1c-0.6,1.5-1.2,2.4-1.7,3.9c-0.3,0.9-0.2,1.7-0.8,2.4c-0.4,0.5-1.2-0.1-1.6,0.5
	c-0.5,0.8,0,1.5-0.1,2.4c-0.1,0.8-0.4,1.2-0.4,1.9c0,2.7,1.8,4,1.8,6.8c0,0.7-0.8,1-1.5,1.2c-1,0.4-1.6,0.4-2.4,1
	c-0.6,0.4-0.8,1.1-1,1.7l0,0c0.1,0.9,0.3,1.5,0.5,2.4l53.6,31.7l30.3,3.4l0,0l9.5-103.3v0C208,286.8,184.5,283,159.8,278.7
	L159.8,278.7z"/>
<path fill="#969696" stroke="#FFFFFF" stroke-width="2" stroke-miterlimit="22.9256" d="M159.8,278.7l-2.1,14.7
	c-0.5,0.1-0.9,0.5-1.4,0.8c-0.3,0.2-0.5,0.6-1,0.6c-0.7,0-0.8-0.7-1.5-1c-0.8-0.3-1.1-0.6-2-0.6c-0.9,0-1.9,0-2.8,0
	c-1.3,0-2.2,0.5-2.9,1.6c-0.6,1,0.1,1.8,0,2.9c0,0.6-0.4,0.9-0.4,1.5c0,0.9,0,1.9,0,2.8c0,0.4,0.2,0.6,0.2,1c0,1.3-0.1,2.1,0,3.4
	c0,0.2,0.2,0.3,0.2,0.5c0,0.9,0,1.9,0,2.8c0,1.1-1.1,1.6-0.8,2.7c0.1,0.4,0.2,1.5,0.2,1.8v0l-63-91.5l12.1-52.5l0,0
	c12.7,3.8,25.8,7.3,39.4,10.5l0,0l39.3,8.4v0L159.8,278.7L159.8,278.7z"/>
<path fill="#969696" stroke="#FFFFFF" stroke-width="2" stroke-miterlimit="22.9256" d="M148.6,110.4l-24.2-6.9
	c-0.5,0.1-0.8,0.3-1.2,0.5c-4,1.7-6.7-0.8-10.9-1.5c-2.2-0.3-3.6-0.1-5.8-0.5c-2.5-0.4-3.4-2.9-6-2.9c-1,0-1.6,0.1-2.4,0.5
	c-0.6,0.3-0.8,1-1.5,1c-1.5,0-1.8-1.5-3.1-2.2c-1.1-0.5-1.8-1-3-1c-1.9,0-3.8,0-5.7,0c-1.6,0-2.5-0.5-3.9-1c-1.1-0.4-2.1,0-2.9-1
	c-0.2-0.2-0.1-0.7-0.2-1c-0.4-1-0.5-1.8-0.5-2.9c0-1.9,0.2-3.3-0.7-4.8c-0.6-1.1-1.6-1.3-2.7-1.9c-0.8-0.5-0.8-1.7-1.7-1.9
	c-0.7-0.2-1,0.7-1.7,0.7l0,0l-0.2-0.5c-0.7-0.9-1-1.7-1.9-2.3c-0.5-0.3-0.9-0.4-1.5-0.7c-0.5-0.3-1.1-0.5-1.1-1.1
	c0-0.4,0.4-0.6,0.5-1c0.1-0.5,0-0.9,0-1.5c1.1,0,1.9-0.5,2.5-1.5c0.2-0.3,0.5-0.4,0.5-0.7c0-0.8-0.6-1-1.1-1.6
	c-0.6-0.8-0.8-1.4-0.8-2.4c0.1-0.7,1.2-1.7,1.8-2.4c0.2-0.3,0.6-0.5,0.6-0.8c0-0.4-0.6-0.5-1-0.6c-0.6-0.2-0.9-0.2-1.5-0.5
	c0.4-1.2,0.7-1.9,0.7-3.1c0-0.7-0.2-1.1-0.4-1.7c-0.3-1.5-0.6-2.5-0.6-4.1c0-1.5,0.5-2.4,0.5-4c0-2.7-1.1-4.3-1.1-7
	c0-1,0.7-1.4,1.2-2.2c0.5-0.8,0.8-1.3,1.5-1.9c0.5,0.5,0.8,0.7,1.3,1.2c0.7,0.7,0.8,1.4,1.7,1.8c1.1,0.6,1.8,1,2.9,1.7
	c0.9,0.6,1.5,1.3,2.5,1.6c0.7,0.2,1.2,0.2,1.9,0.5c2.1,0.8,3.1,2.1,5.3,2.7c1.2,0.3,1.7,1.1,2.3,2.2c0.1,0.2,0.4,0.2,0.5,0.4
	c0.7,0.7,1.4,0.8,2.4,0.8c-0.4,1.3-1.3,1.7-2.4,2.5c-0.8,0.5-1.1,1.1-1.7,1.8c1.3,0.8,2,1.2,3.4,1.8c-0.2,1.2-0.5,1.8-1,2.9
	c-0.3,0.7-0.4,1.5-1.1,1.8c-0.5,0.2-0.9,0.1-1.5,0.1c-1.6,0-2.4-0.8-4-0.8v3.3c0.9,1,1.6,1.8,2.9,1.8c1.1,0,1.7-0.3,2.7-0.6
	c0.9-0.3,1.1-1.1,1.9-1.6c0.7-0.4,1.4-0.5,1.9-1.1c0.4-0.4,0.4-0.9,0.5-1.5c0.2-0.6,0.4-1,0.4-1.7c0-0.5-0.2-0.7-0.2-1.2
	c0-1.4,0.1-2.6,1.2-3.4c0.5-0.4,0.9-0.2,1.5-0.5c0.4-0.2,0.5-0.6,0.7-1c0.4-0.6,0.7-1,0.7-1.7c0-1.1-0.8-1.6-1.1-2.7
	c-0.1-0.2,0.1-0.5,0.1-0.7c0-0.1-0.2-0.1-0.2-0.2c-0.1-0.5,0.2-0.7,0.2-1.2c0-1.7-1.2-2.4-1.2-4.1c0-0.6,0.7-0.6,1.2-1
	c0.5-0.4,0.7-0.9,0.7-1.6c0-2-1.8-2.7-2.7-4.5c-0.5-0.9-0.5-1.6-1.1-2.4c-0.4-0.5-0.9-0.8-1.3-1.2l0,0c23.1,7.6,46.3,14.3,69.5,19.9
	h0L148.6,110.4L148.6,110.4z"/>
<path fill="#969696" stroke="#FFFFFF" stroke-width="2" stroke-miterlimit="22.9256" d="M160.2,56.3c4,1,8,1.9,12,2.8l0,0l-4.1,17.7
	c0.6,1.9,1,2.9,1.5,4.8c0.2,1,0.6,1.5,0.8,2.4c0.3,1.3,0.5,2.1,0.8,3.4c0.1,0.5,0.1,0.9,0.2,1.5c0.4,1.1,1,1.5,1.7,2.4
	c0.6,0.8,0.9,1.4,1.2,2.3c0.7,1.9,1.2,3.1,2.3,4.8c0.8,1.4,1.8,1.8,3,2.8c0.7,0.5,1.2,0.8,1.9,1.3c0.5,0.3,1.1,0.5,1.1,1.1
	c0,0.8-0.4,1.2-0.5,1.9c-0.3,1.8-0.9,2.7-1.5,4.5c-0.3,1.1-1.2,1.5-1.2,2.7c0,0.7,0.5,1.1,0.7,1.7c0.6,1.5,1.2,2.3,1.2,3.9
	c0,0.2-0.3,0.2-0.5,0.4c-0.5,0.4-0.9,0.4-1.5,0.7c-0.5,0.3-0.8,0.5-1.5,0.7c0.2,0.8,0.6,1.1,0.7,1.9c0.2,0.7,0.1,1.2,0.2,1.9
	c0.1,0.3,0,0.7,0.2,1c0.4,0.4,0.9,0.4,1.5,0.4c1.9,0,2.7-1.3,4.6-1.3c1,0,1.3,1.1,1.5,2.1c0.2,1.5,0,2.5,0.6,3.9
	c0.8,2.1,1.7,3.3,1.7,5.5c0,0.9-0.1,1.4-0.1,2.2c0,0.5-0.1,0.9,0.1,1.4c0.2,0.5,0.6,0.6,0.8,1c0.5,0.9,0.7,1.6,1.3,2.4
	c0.3,0.3,0.6,0.5,0.8,0.8c0.6,1,0.5,1.9,1,2.9c0.3,0.6,0.6,0.9,1,1.5c0.3,0.5,0.4,1.3,1.1,1.3c0.9,0,1.3-0.7,2.2-0.7
	c1.2,0,1.7,1.2,2.9,1.2c0.5,0,0.8-0.1,1.2-0.4c0.4-0.3,0.5-0.8,1-0.8c0.4,0,0.6,0.4,1,0.5c0.8,0.3,1.2,0.5,1.9,0.7
	c1.3,0.4,2.1,0.2,3.4,0.2c0.8,0,1.2,0.1,1.9,0c0.5-0.1,0.6-0.5,1-0.7c0.4-0.3,0.8-0.4,1-0.8c0.4-0.7,0.3-1.8,1.1-1.8
	c0.6,0,0.9,0.5,1.3,1c0.4,0.5,0.7,0.9,1.2,1.3c0.8,0.7,1.6,0.9,2.4,1.7l0,0L213,196l0,0l-39.5-6.8l0,0l-39.3-8.4v0l5.8-30
	c0-1.4,0.5-2.3,1.3-3.5c0.6-1,0.6-1.8,0.7-2.9c0.1-0.8,0.6-1.3,0.6-2.2c0-0.3-0.2-0.4-0.5-0.6c-0.6-0.5-1.8,0.2-1.9-0.6
	c-0.5-2.5,0.6-4,1.6-6.4c0.5-1.3,1.7-1.6,2.9-2.4c0.4-0.2,0.5-0.6,0.7-1c0.5-0.8,1.1-1.1,1.6-1.9c0.5-0.7,0.9-1.2,1-2.1
	c0.1-1.1-0.1-1.9,0.4-2.9c0.2-0.6,0.6-0.9,1-1.5c0.7-1,1.6-1.3,2.3-2.4c0.9-1.5,0.8-2.8,0.8-4.6c0-1,0.2-1.7-0.1-2.7
	c-0.3-1.1-1.1-1.4-1.6-2.4c-0.7-0.2-1.4-0.1-2-0.4l0,0L160.2,56.3L160.2,56.3z"/>
<path fill="#969696" stroke="#FFFFFF" stroke-width="2" stroke-miterlimit="22.9256" d="M134.1,180.8l5.8-30c0-1.4,0.5-2.3,1.3-3.5
	c0.6-1,0.6-1.8,0.7-2.9c0.1-0.8,0.6-1.3,0.6-2.2c0-0.3-0.2-0.4-0.5-0.6c-0.6-0.5-1.8,0.2-1.9-0.6c-0.5-2.5,0.6-4,1.6-6.4
	c0.5-1.3,1.7-1.6,2.9-2.4c0.4-0.2,0.5-0.6,0.7-1c0.5-0.8,1.1-1.1,1.6-1.9c0.5-0.7,0.9-1.2,1-2.1c0.1-1.1-0.1-1.9,0.4-2.9
	c0.2-0.6,0.6-0.9,1-1.5c0.7-1,1.6-1.3,2.3-2.4c0.9-1.5,0.8-2.8,0.8-4.6c0-1,0.2-1.7-0.1-2.7c-0.3-1.1-1.1-1.4-1.6-2.4
	c-0.7-0.2-1.4-0.1-2-0.4h0l-24.2-6.9c-0.5,0.1-0.8,0.3-1.2,0.5c-4,1.7-6.7-0.8-10.9-1.5c-2.2-0.3-3.6-0.1-5.8-0.5
	c-2.5-0.4-3.4-2.9-6-2.9c-1,0-1.6,0.1-2.4,0.5c-0.6,0.3-0.8,1-1.5,1c-1.5,0-1.8-1.5-3.1-2.2c-1.1-0.5-1.8-1-3-1c-1.9,0-3.8,0-5.7,0
	c-1.6,0-2.5-0.5-3.9-1c-1.1-0.4-2.1,0-2.9-1c-0.2-0.2-0.1-0.7-0.2-1c-0.4-1-0.5-1.8-0.5-2.9c0-1.9,0.2-3.3-0.7-4.8
	c-0.6-1.1-1.6-1.3-2.7-1.9c-0.8-0.5-0.8-1.7-1.7-1.9c-0.7-0.2-1,0.7-1.7,0.7l0,0c-1.8-0.9-3.2-0.6-5-1.5c-0.5,1.1-0.5,1.8-1,2.9
	c-0.6,1.3-1.1,2.1-1.2,3.5c-0.1,0.6,0.2,0.9,0.1,1.5c-0.1,1-0.7,1.4-0.8,2.4c-0.1,0.6,0.1,0.9-0.1,1.5c-0.2,0.5-0.6,0.5-0.7,1
	c-0.1,0.6-0.1,1-0.2,1.6c-0.3,1.1-1.1,1.5-1.7,2.4c-1.2,1.9-1.9,3.2-2.7,5.3c-0.2,0.6-0.5,0.9-0.7,1.5c-0.8,2.2-0.8,3.6-1.7,5.8
	c-1,2.4-2.1,3.6-3.3,5.9c-0.4,0.8-0.9,1.1-1.2,1.8c-0.1,0.3,0,0.6-0.1,1c-0.4,1.2-0.8,1.8-1.5,2.9c-0.7,1.1-1,1.9-1.9,2.9
	c-0.7,0.7-1.4,0.9-1.8,1.8c-0.1,0.2-0.4,0.2-0.4,0.5c0,0.5,0.2,0.7,0.2,1.2c0,0.9-0.5,1.5-1.1,2.2c-1.1,1.2-1.6,1.9-2.3,3.4
	c-0.3,0.7-0.7,1.1-0.7,1.9c0,0.9,0.4,1.5,0.4,2.4c0,1.4-0.2,2.2-0.7,3.5c-0.2,0.5-0.5,0.9-0.6,1.5c-0.5,2-0.5,3.2-0.5,5.2
	c0,1,0.6,1.6,0.6,2.6c0,0.3-0.1,0.5-0.3,0.7h0c18.7,6.7,37.1,12.5,55.1,17.3h0C107.5,174,120.6,177.5,134.1,180.8L134.1,180.8z"/>
</svg>
