<?xml version="1.0" encoding="utf-8"?>
<!-- Generator: Adobe Illustrator 16.0.0, SVG Export Plug-In . SVG Version: 6.00 Build 0)  -->
<!DOCTYPE svg PUBLIC "-//W3C//DTD SVG 1.1//EN" "http://www.w3.org/Graphics/SVG/1.1/DTD/svg11.dtd">
<svg version="1.1" id="Ebene_1" xmlns="http://www.w3.org/2000/svg" xmlns:xlink="http://www.w3.org/1999/xlink" x="0px" y="0px"
	 width="14px" height="14px" viewBox="0 0 14 14" enable-background="new 0 0 14 14" xml:space="preserve">
<g id="Shape_2_18_">
	<g>
		<path fill="#656565" d="M7,0C3.134,0,0,3.134,0,7s3.134,7,7,7s7-3.134,7-7S10.866,0,7,0z M10.836,6.414L7.733,9.586
			C7.729,9.59,7.729,9.595,7.725,9.599l-0.24,0.245c-0.133,0.136-0.307,0.203-0.481,0.202c-0.175,0.001-0.349-0.066-0.481-0.202
			l-0.24-0.245C6.277,9.595,6.276,9.59,6.272,9.585L3.17,6.414c-0.266-0.271-0.266-0.709,0-0.98l0.239-0.244
			c0.265-0.271,0.694-0.271,0.959,0l2.635,2.692l2.635-2.692c0.265-0.271,0.694-0.271,0.959,0l0.239,0.244
			C11.102,5.705,11.102,6.144,10.836,6.414z"/>
	</g>
</g>
</svg>
